<svg xmlns="http://www.w3.org/2000/svg" version="1.1" xmlns:xlink="http://www.w3.org/1999/xlink" xmlns:svgjs="http://svgjs.dev/svgjs" width="1440" height="560" preserveAspectRatio="none" viewBox="0 0 1440 560"><g mask="url(&quot;#SvgjsMask1041&quot;)" fill="none"><rect width="1440" height="560" x="0" y="0" fill="rgba(255, 255, 255, 1)"></rect><path d="M1495.4566043020384 373.61350812722253L1518.6853605389326 286.92260965450043 1377.0346347114023 295.42492453552z" fill="rgba(255, 165, 0, 0.73)" class="triangle-float3"></path><path d="M924.2048245030292-27.01501635597151L880.4590049856998 86.94673969469173 994.420761036363 130.69255921202102 1038.1665805536925 16.730803161357798z" fill="rgba(255, 165, 0, 0.73)" class="triangle-float1"></path><path d="M1097.12 229.62 a123.12 123.12 0 1 0 246.24 0 a123.12 123.12 0 1 0 -246.24 0z" fill="rgba(255, 165, 0, 0.73)" class="triangle-float1"></path><path d="M684.9951817530657 516.8459591253581L803.2005265057825 402.69638457545926 689.0509519558835 284.49103982274255 570.8456072031668 398.64061437264144z" fill="rgba(255, 165, 0, 0.73)" class="triangle-float3"></path><path d="M126.24 543.09 a166.59 166.59 0 1 0 333.18 0 a166.59 166.59 0 1 0 -333.18 0z" fill="rgba(255, 165, 0, 0.73)" class="triangle-float1"></path><path d="M449.50158947055957 416.4307429272154L468.4537836231745 536.8327250890914 552.4133290783092 471.2363390169571z" fill="rgba(255, 165, 0, 0.73)" class="triangle-float1"></path><path d="M262.9,411.512C308.231,412.768,352.152,388.705,373.066,348.467C392.673,310.743,380.527,265.942,356.949,230.564C336.082,199.254,300.525,183.458,262.9,183.171C224.696,182.88,186.643,196.751,166.335,229.111C144.764,263.484,143.834,306.779,162.821,342.644C183.129,381.003,219.514,410.31,262.9,411.512" fill="rgba(255, 165, 0, 0.73)" class="triangle-float3"></path><path d="M260.9656995471347 193.47319536693183L171.2782280287177 231.54326835601606 209.34830101780193 321.2307398744331 299.03577253621893 283.16066688534886z" fill="rgba(255, 165, 0, 0.73)" class="triangle-float2"></path><path d="M903.24697926676 522.4204917251509L1063.8893393177684 547.8637420142425 928.6902295558516 361.7781316741424z" fill="rgba(255, 165, 0, 0.73)" class="triangle-float2"></path><path d="M1254.45 506.88 a165.62 165.62 0 1 0 331.24 0 a165.62 165.62 0 1 0 -331.24 0z" fill="rgba(255, 165, 0, 0.73)" class="triangle-float3"></path><path d="M223.73905974476358 162.68905859200902L153.3619138262781 99.32119178086548 93.49868656880551 236.5708440641655z" fill="rgba(255, 165, 0, 0.73)" class="triangle-float3"></path><path d="M641.699,504.281C684.627,503.401,708.965,458.859,727.501,420.129C743.019,387.705,745.608,351.98,730.109,319.547C711.848,281.336,683.95,243.478,641.699,240.585C595.44,237.418,550.329,264.388,529.499,305.813C510.293,344.006,528.542,386.561,549.581,423.776C571.091,461.825,598,505.177,641.699,504.281" fill="rgba(255, 165, 0, 0.73)" class="triangle-float2"></path><path d="M711.76 176.47 a184.24 184.24 0 1 0 368.48 0 a184.24 184.24 0 1 0 -368.48 0z" fill="rgba(255, 165, 0, 0.73)" class="triangle-float3"></path><path d="M1097.316023306513 315.84152517428015L1037.652951499426 160.4139092435967 941.8884073758295 375.5045969813672z" fill="rgba(255, 165, 0, 0.73)" class="triangle-float3"></path><path d="M1514.72620184481 185.964126789567L1492.3522566922302 70.86015740176322 1399.6222324570062 208.3380719421468z" fill="rgba(255, 165, 0, 0.73)" class="triangle-float2"></path><path d="M1153.482,51.075C1170.967,51.432,1188.197,44.365,1197.43,29.512C1207.175,13.834,1207.554,-5.782,1198.99,-22.135C1189.743,-39.792,1173.401,-55.138,1153.482,-54.41C1134.387,-53.712,1121.91,-36.111,1113.39,-19.008C1105.935,-4.044,1104.236,13.267,1112.537,27.778C1120.894,42.387,1136.656,50.731,1153.482,51.075" fill="rgba(255, 165, 0, 0.73)" class="triangle-float2"></path><path d="M1428.3259473321405 516.838970200112L1485.189451830187 360.60777560067265 1328.9582572307477 303.74427110262604 1272.0947527327012 459.97546570206543z" fill="rgba(255, 165, 0, 0.73)" class="triangle-float3"></path><path d="M490.662,406.228C520.531,407.967,553.562,404.892,570.205,380.028C588.359,352.905,587.782,315.607,569.344,288.676C552.692,264.353,520.121,262.803,490.662,263.844C463.589,264.8,435.04,270.715,421.054,293.915C406.697,317.73,411.044,347.976,425.693,371.613C439.548,393.968,464.406,404.699,490.662,406.228" fill="rgba(255, 165, 0, 0.73)" class="triangle-float3"></path><path d="M827.4254704175305 168.27250756886434L932.2425392630555 186.75458484510705 950.7246165392983 81.93751599958199 845.9075476937732 63.455438723339284z" fill="rgba(255, 165, 0, 0.73)" class="triangle-float3"></path><path d="M-38.03 141.48 a168.55 168.55 0 1 0 337.1 0 a168.55 168.55 0 1 0 -337.1 0z" fill="rgba(255, 165, 0, 0.73)" class="triangle-float1"></path></g><defs><mask id="SvgjsMask1041"><rect width="1440" height="560" fill="#ffffff"></rect></mask><style>
                @keyframes float1 {
                    0%{transform: translate(0, 0)}
                    50%{transform: translate(-10px, 0)}
                    100%{transform: translate(0, 0)}
                }

                .triangle-float1 {
                    animation: float1 5s infinite;
                }

                @keyframes float2 {
                    0%{transform: translate(0, 0)}
                    50%{transform: translate(-5px, -5px)}
                    100%{transform: translate(0, 0)}
                }

                .triangle-float2 {
                    animation: float2 4s infinite;
                }

                @keyframes float3 {
                    0%{transform: translate(0, 0)}
                    50%{transform: translate(0, -10px)}
                    100%{transform: translate(0, 0)}
                }

                .triangle-float3 {
                    animation: float3 6s infinite;
                }
            </style></defs></svg>