<svg xmlns="http://www.w3.org/2000/svg" version="1.1" xmlns:xlink="http://www.w3.org/1999/xlink" xmlns:svgjs="http://svgjs.dev/svgjs" width="500" height="500" preserveAspectRatio="none" viewBox="0 0 500 500"><g mask="url(&quot;#SvgjsMask1530&quot;)" fill="none"><use xlink:href="#SvgjsG1536" transform="translate(0, 0)" fill="rgba(15, 19, 34, 1)"></use><use xlink:href="#SvgjsG1536" transform="translate(0, 480)" fill="rgba(15, 19, 34, 1)"></use><use xlink:href="#SvgjsG1536" transform="translate(480, 0)" fill="rgba(15, 19, 34, 1)"></use><use xlink:href="#SvgjsG1536" transform="translate(480, 480)" fill="rgba(15, 19, 34, 1)"></use></g><defs><mask id="SvgjsMask1530"><rect width="500" height="500" fill="#ffffff"></rect></mask><g id="SvgjsG1534"><path d="M2.524 8.637H0.014V7.308h2.51v1.329zM3.656 4.576L1.884 2.804l0.935-0.935 1.772 1.772-0.935 0.935z m0 6.817l0.935 0.935-1.772 1.773-0.934-0.936 1.771-1.772z m4.997-8.884h-1.33V-0.002h1.33v2.511z m-1.33 10.952h1.33v2.51h-1.33v-2.509zM12.344 4.576l-0.96-0.935 1.796-1.772 0.935 0.935-1.772 1.772z m0 6.792l1.771 1.797-0.935 0.936-1.771-1.774 0.936-0.96z m3.643-4.06v1.329h-2.51V7.308h2.509z"></path><path d="M3.702 7.984a4.184 4.184 0 1 0 8.368 0 4.184 4.184 0 1 0-8.368 0"></path></g><g id="SvgjsG1531"><path d="M1.099-0.001l13.803 7.969-13.803 7.969V-0.002z" fill-rule="evenodd"></path></g><g id="SvgjsG1533"><path d="M5.942 5.059s0.24-0.368-0.043-0.512H3.845s-0.33 0.171 0.013 0.728l2.086-0.216zM10.288 6.04s0.101 0.141-0.006 0.224l-2.605 2.016 0.315 0.442L10.576 6.736s0.042-0.083 0.17 0.088l0.022-0.272-0.48-0.512z"></path><path d="M7.811 4.501s-0.112 0.013-0.099-0.08V4.08s0.042-0.088 0.112-0.08h2.421s0.571 0.013 0.214 0.501c0 0-0.293 0.235-0.149 0.589L12.608 9.165l-0.4 0.232-1.941-3.328s0.035-0.054-0.264-0.048h-4.224l1.162 2.107-0.471 0.288L5.12 6.096s-0.048-0.053-0.085 0.016l-1.142 2.528s-0.029 0.069 0.086 0.085l2.298 0.008 0.057 0.472H3.45s-0.342 0-0.208-0.341l1.484-3.408s0.022 0-0.006-0.058l-0.155-0.252 0.64-0.08 0.102 0.2s0.027 0.086 0.128 0.073h4.218s0.16 0.032 0.16-0.16c0-0.192-0.125-0.234 0.025-0.56 0 0 0.056-0.112-0.064-0.112H7.808"></path><path d="M3.437 6.96a2.064 2.064 0 0 0 0 4.128 2.064 2.064 0 0 0 0-4.128zM12.288 6.96a2.064 2.064 0 1 0 2.064 2.064 2.064 2.064 0 0 0-2.064-2.064z"></path><path d="M7.131 8.341a0.688 0.688 0 1 0 0 1.376 0.688 0.688 0 0 0 0-1.376z"></path></g><g id="SvgjsG1532"><path d="M1.689 7.893a2.738 2.738 0 0 1-0.445-1.226 0.652 0.652 0 0 1-0.16 0.023 0.64 0.64 0 0 1-0.355-1.174l1.836-1.28c0.386-0.235 0.836-0.38 1.323-0.396l4.56 0.014 3.333-0.533V3.271a0.601 0.601 0 0 1 1.204 0c0 0.053-0.005 0.11-0.018 0.16l0.308 0.041c0.356 0.071 0.628 0.388 0.627 0.764 0 0.025 0 0.046-0.003 0.068l0.99 0.533a0.391 0.391 0 0 1 0.213 0.516l-0.245 0.558a0.775 0.775 0 0 1-0.573 0.365l-2.275 0.27L9.963 8.942l1.169 2.02 0.774 0.359a0.466 0.466 0 0 1-0.263 0.85l-1.483 0.003c-0.382 0-0.711-0.213-0.878-0.528l-1.27-2.293-2.862 0.005 1.014 1.556 0.746 0.343a0.462 0.462 0 0 1 0.226 0.402 0.462 0.462 0 0 1-0.462 0.462l-1.488 0.005a0.999 0.999 0 0 1-0.854-0.487L2.933 9.429l-0.972 0.943-0.08 0.622 0.327 0.213c0.053 0.028 0.107 0.066 0.146 0.116a0.468 0.468 0 0 1-0.368 0.759L1.333 12.089A0.647 0.647 0 0 1 0.889 11.833l-0.761-1.316a0.987 0.987 0 0 1 0.139-1.12l1.422-1.507z" fill-rule="evenodd"></path></g><g id="SvgjsG1535"><path d="M14.643 3.297L12.92 2.57c-0.7-0.265-0.057-0.792-0.963-1.24-0.4-0.19-1.898-0.515-1.898-0.515-0.352-0.122-1.376 0.23-1.376 0.935 0 0.7-0.172 0.755-0.172 0.755-0.734 1.576-0.294 0.874-0.645 2.42-0.014 0.08-0.06 0.295-0.265 0.7C6.875 7.06 5 8.704 3.398 9.627c-1.87 1.09-1.84 3.95-1.84 3.95-1.372-0.09-1.344-2.16-1.344-2.16-0.992 2.54 1.784 3.238 1.784 3.238 0.67 0.67 1.984 0.498 1.984 0.498 0.498-0.064 0.555 0.025 0.555 0.025s0.06 0.268 0.877 0.293c0.817 0.03 1.547-0.054 1.898 0.122 0.35 0.164 1.11 0.2 1.11 0.2 0.556 0.147 0.495-0.47 0.495-0.47-0.29-0.67-0.992-0.608-0.992-0.608l-1.372-0.06c1.927-0.61 1.604-1.748 1.604-1.748-0.168-0.646-0.77-0.75-1.192-0.764-0.068-0.007 0-0.086 0-0.086 1.178-0.34 2.245-1.117 2.245-1.117-0.028 0.587 0.527 1.49 0.788 1.9 0.265 0.413 0.702 2.078 0.702 2.078 0.322 0.352 0.437 0.646 0.437 0.646 0.265 0.175 1.17 0.14 1.17 0.14 0.234-0.03 0.29-0.11 0.29-0.11l0.033-0.564c-0.15-0.64-0.877-0.64-0.877-0.64l-0.763-3.267c-0.086-0.526 0.294-1.17 0.294-1.17 0.44-1.397-0.32-2.834-0.32-2.834-0.088-0.206 0.263-0.206 0.263-0.206s0.204-0.094 0.702-0.262c0.493-0.172 0.23-0.788 0.23-0.788l-0.264-0.873c-0.086-0.408 0.734 0.054 0.734 0.054 0.874 0.498 1.576-0.236 1.752-0.376 0.175-0.147 0.118-0.322 0.494-0.673 0.38-0.348-0.233-0.698-0.233-0.698" fill-rule="evenodd"></path></g><g id="SvgjsG1536"><use xlink:href="#SvgjsG1531" transform="translate(0, 0) scale(2)" fill="rgba(15, 19, 34, 1)"></use><use xlink:href="#SvgjsG1532" transform="translate(0, 48) scale(2)" fill="rgba(15, 19, 34, 1)"></use><use xlink:href="#SvgjsG1531" transform="translate(0, 96) scale(2)" fill="rgba(15, 19, 34, 1)"></use><use xlink:href="#SvgjsG1531" transform="translate(0, 144) scale(2)" fill="rgba(15, 19, 34, 1)"></use><use xlink:href="#SvgjsG1533" transform="translate(0, 192) scale(2)" fill="rgba(15, 19, 34, 1)"></use><use xlink:href="#SvgjsG1534" transform="translate(0, 240) scale(2)" fill="rgba(15, 19, 34, 1)"></use><use xlink:href="#SvgjsG1535" transform="translate(0, 288) scale(2)" fill="rgba(15, 19, 34, 1)"></use><use xlink:href="#SvgjsG1534" transform="translate(0, 336) scale(2)" fill="rgba(15, 19, 34, 1)"></use><use xlink:href="#SvgjsG1534" transform="translate(0, 384) scale(2)" fill="rgba(15, 19, 34, 1)"></use><use xlink:href="#SvgjsG1532" transform="translate(0, 432) scale(2)" fill="rgba(15, 19, 34, 1)"></use><use xlink:href="#SvgjsG1531" transform="translate(48, 0) scale(2)" fill="rgba(15, 19, 34, 1)"></use><use xlink:href="#SvgjsG1531" transform="translate(48, 48) scale(2)" fill="rgba(15, 19, 34, 1)"></use><use xlink:href="#SvgjsG1534" transform="translate(48, 96) scale(2)" fill="rgba(15, 19, 34, 1)"></use><use xlink:href="#SvgjsG1532" transform="translate(48, 144) scale(2)" fill="rgba(15, 19, 34, 1)"></use><use xlink:href="#SvgjsG1532" transform="translate(48, 192) scale(2)" fill="rgba(15, 19, 34, 1)"></use><use xlink:href="#SvgjsG1533" transform="translate(48, 240) scale(2)" fill="rgba(15, 19, 34, 1)"></use><use xlink:href="#SvgjsG1535" transform="translate(48, 288) scale(2)" fill="rgba(15, 19, 34, 1)"></use><use xlink:href="#SvgjsG1532" transform="translate(48, 336) scale(2)" fill="rgba(15, 19, 34, 1)"></use><use xlink:href="#SvgjsG1533" transform="translate(48, 384) scale(2)" fill="rgba(15, 19, 34, 1)"></use><use xlink:href="#SvgjsG1533" transform="translate(48, 432) scale(2)" fill="rgba(15, 19, 34, 1)"></use><use xlink:href="#SvgjsG1535" transform="translate(96, 0) scale(2)" fill="rgba(15, 19, 34, 1)"></use><use xlink:href="#SvgjsG1535" transform="translate(96, 48) scale(2)" fill="rgba(15, 19, 34, 1)"></use><use xlink:href="#SvgjsG1533" transform="translate(96, 96) scale(2)" fill="rgba(15, 19, 34, 1)"></use><use xlink:href="#SvgjsG1535" transform="translate(96, 144) scale(2)" fill="rgba(15, 19, 34, 1)"></use><use xlink:href="#SvgjsG1531" transform="translate(96, 192) scale(2)" fill="rgba(15, 19, 34, 1)"></use><use xlink:href="#SvgjsG1532" transform="translate(96, 240) scale(2)" fill="rgba(15, 19, 34, 1)"></use><use xlink:href="#SvgjsG1535" transform="translate(96, 288) scale(2)" fill="rgba(15, 19, 34, 1)"></use><use xlink:href="#SvgjsG1532" transform="translate(96, 336) scale(2)" fill="rgba(15, 19, 34, 1)"></use><use xlink:href="#SvgjsG1533" transform="translate(96, 384) scale(2)" fill="rgba(15, 19, 34, 1)"></use><use xlink:href="#SvgjsG1534" transform="translate(96, 432) scale(2)" fill="rgba(15, 19, 34, 1)"></use><use xlink:href="#SvgjsG1534" transform="translate(144, 0) scale(2)" fill="rgba(15, 19, 34, 1)"></use><use xlink:href="#SvgjsG1533" transform="translate(144, 48) scale(2)" fill="rgba(15, 19, 34, 1)"></use><use xlink:href="#SvgjsG1534" transform="translate(144, 96) scale(2)" fill="rgba(15, 19, 34, 1)"></use><use xlink:href="#SvgjsG1535" transform="translate(144, 144) scale(2)" fill="rgba(15, 19, 34, 1)"></use><use xlink:href="#SvgjsG1532" transform="translate(144, 192) scale(2)" fill="rgba(15, 19, 34, 1)"></use><use xlink:href="#SvgjsG1535" transform="translate(144, 240) scale(2)" fill="rgba(15, 19, 34, 1)"></use><use xlink:href="#SvgjsG1533" transform="translate(144, 288) scale(2)" fill="rgba(15, 19, 34, 1)"></use><use xlink:href="#SvgjsG1535" transform="translate(144, 336) scale(2)" fill="rgba(15, 19, 34, 1)"></use><use xlink:href="#SvgjsG1533" transform="translate(144, 384) scale(2)" fill="rgba(15, 19, 34, 1)"></use><use xlink:href="#SvgjsG1533" transform="translate(144, 432) scale(2)" fill="rgba(15, 19, 34, 1)"></use><use xlink:href="#SvgjsG1534" transform="translate(192, 0) scale(2)" fill="rgba(15, 19, 34, 1)"></use><use xlink:href="#SvgjsG1531" transform="translate(192, 48) scale(2)" fill="rgba(15, 19, 34, 1)"></use><use xlink:href="#SvgjsG1531" transform="translate(192, 96) scale(2)" fill="rgba(15, 19, 34, 1)"></use><use xlink:href="#SvgjsG1535" transform="translate(192, 144) scale(2)" fill="rgba(15, 19, 34, 1)"></use><use xlink:href="#SvgjsG1533" transform="translate(192, 192) scale(2)" fill="rgba(15, 19, 34, 1)"></use><use xlink:href="#SvgjsG1535" transform="translate(192, 240) scale(2)" fill="rgba(15, 19, 34, 1)"></use><use xlink:href="#SvgjsG1531" transform="translate(192, 288) scale(2)" fill="rgba(15, 19, 34, 1)"></use><use xlink:href="#SvgjsG1531" transform="translate(192, 336) scale(2)" fill="rgba(15, 19, 34, 1)"></use><use xlink:href="#SvgjsG1535" transform="translate(192, 384) scale(2)" fill="rgba(15, 19, 34, 1)"></use><use xlink:href="#SvgjsG1534" transform="translate(192, 432) scale(2)" fill="rgba(15, 19, 34, 1)"></use><use xlink:href="#SvgjsG1535" transform="translate(240, 0) scale(2)" fill="rgba(15, 19, 34, 1)"></use><use xlink:href="#SvgjsG1533" transform="translate(240, 48) scale(2)" fill="rgba(15, 19, 34, 1)"></use><use xlink:href="#SvgjsG1532" transform="translate(240, 96) scale(2)" fill="rgba(15, 19, 34, 1)"></use><use xlink:href="#SvgjsG1535" transform="translate(240, 144) scale(2)" fill="rgba(15, 19, 34, 1)"></use><use xlink:href="#SvgjsG1534" transform="translate(240, 192) scale(2)" fill="rgba(15, 19, 34, 1)"></use><use xlink:href="#SvgjsG1535" transform="translate(240, 240) scale(2)" fill="rgba(15, 19, 34, 1)"></use><use xlink:href="#SvgjsG1532" transform="translate(240, 288) scale(2)" fill="rgba(15, 19, 34, 1)"></use><use xlink:href="#SvgjsG1533" transform="translate(240, 336) scale(2)" fill="rgba(15, 19, 34, 1)"></use><use xlink:href="#SvgjsG1531" transform="translate(240, 384) scale(2)" fill="rgba(15, 19, 34, 1)"></use><use xlink:href="#SvgjsG1531" transform="translate(240, 432) scale(2)" fill="rgba(15, 19, 34, 1)"></use><use xlink:href="#SvgjsG1531" transform="translate(288, 0) scale(2)" fill="rgba(15, 19, 34, 1)"></use><use xlink:href="#SvgjsG1535" transform="translate(288, 48) scale(2)" fill="rgba(15, 19, 34, 1)"></use><use xlink:href="#SvgjsG1535" transform="translate(288, 96) scale(2)" fill="rgba(15, 19, 34, 1)"></use><use xlink:href="#SvgjsG1532" transform="translate(288, 144) scale(2)" fill="rgba(15, 19, 34, 1)"></use><use xlink:href="#SvgjsG1531" transform="translate(288, 192) scale(2)" fill="rgba(15, 19, 34, 1)"></use><use xlink:href="#SvgjsG1535" transform="translate(288, 240) scale(2)" fill="rgba(15, 19, 34, 1)"></use><use xlink:href="#SvgjsG1533" transform="translate(288, 288) scale(2)" fill="rgba(15, 19, 34, 1)"></use><use xlink:href="#SvgjsG1534" transform="translate(288, 336) scale(2)" fill="rgba(15, 19, 34, 1)"></use><use xlink:href="#SvgjsG1533" transform="translate(288, 384) scale(2)" fill="rgba(15, 19, 34, 1)"></use><use xlink:href="#SvgjsG1533" transform="translate(288, 432) scale(2)" fill="rgba(15, 19, 34, 1)"></use><use xlink:href="#SvgjsG1534" transform="translate(336, 0) scale(2)" fill="rgba(15, 19, 34, 1)"></use><use xlink:href="#SvgjsG1531" transform="translate(336, 48) scale(2)" fill="rgba(15, 19, 34, 1)"></use><use xlink:href="#SvgjsG1535" transform="translate(336, 96) scale(2)" fill="rgba(15, 19, 34, 1)"></use><use xlink:href="#SvgjsG1531" transform="translate(336, 144) scale(2)" fill="rgba(15, 19, 34, 1)"></use><use xlink:href="#SvgjsG1534" transform="translate(336, 192) scale(2)" fill="rgba(15, 19, 34, 1)"></use><use xlink:href="#SvgjsG1535" transform="translate(336, 240) scale(2)" fill="rgba(15, 19, 34, 1)"></use><use xlink:href="#SvgjsG1532" transform="translate(336, 288) scale(2)" fill="rgba(15, 19, 34, 1)"></use><use xlink:href="#SvgjsG1532" transform="translate(336, 336) scale(2)" fill="rgba(15, 19, 34, 1)"></use><use xlink:href="#SvgjsG1533" transform="translate(336, 384) scale(2)" fill="rgba(15, 19, 34, 1)"></use><use xlink:href="#SvgjsG1533" transform="translate(336, 432) scale(2)" fill="rgba(15, 19, 34, 1)"></use><use xlink:href="#SvgjsG1534" transform="translate(384, 0) scale(2)" fill="rgba(15, 19, 34, 1)"></use><use xlink:href="#SvgjsG1532" transform="translate(384, 48) scale(2)" fill="rgba(15, 19, 34, 1)"></use><use xlink:href="#SvgjsG1531" transform="translate(384, 96) scale(2)" fill="rgba(15, 19, 34, 1)"></use><use xlink:href="#SvgjsG1534" transform="translate(384, 144) scale(2)" fill="rgba(15, 19, 34, 1)"></use><use xlink:href="#SvgjsG1532" transform="translate(384, 192) scale(2)" fill="rgba(15, 19, 34, 1)"></use><use xlink:href="#SvgjsG1535" transform="translate(384, 240) scale(2)" fill="rgba(15, 19, 34, 1)"></use><use xlink:href="#SvgjsG1534" transform="translate(384, 288) scale(2)" fill="rgba(15, 19, 34, 1)"></use><use xlink:href="#SvgjsG1533" transform="translate(384, 336) scale(2)" fill="rgba(15, 19, 34, 1)"></use><use xlink:href="#SvgjsG1535" transform="translate(384, 384) scale(2)" fill="rgba(15, 19, 34, 1)"></use><use xlink:href="#SvgjsG1534" transform="translate(384, 432) scale(2)" fill="rgba(15, 19, 34, 1)"></use><use xlink:href="#SvgjsG1533" transform="translate(432, 0) scale(2)" fill="rgba(15, 19, 34, 1)"></use><use xlink:href="#SvgjsG1534" transform="translate(432, 48) scale(2)" fill="rgba(15, 19, 34, 1)"></use><use xlink:href="#SvgjsG1532" transform="translate(432, 96) scale(2)" fill="rgba(15, 19, 34, 1)"></use><use xlink:href="#SvgjsG1534" transform="translate(432, 144) scale(2)" fill="rgba(15, 19, 34, 1)"></use><use xlink:href="#SvgjsG1535" transform="translate(432, 192) scale(2)" fill="rgba(15, 19, 34, 1)"></use><use xlink:href="#SvgjsG1533" transform="translate(432, 240) scale(2)" fill="rgba(15, 19, 34, 1)"></use><use xlink:href="#SvgjsG1532" transform="translate(432, 288) scale(2)" fill="rgba(15, 19, 34, 1)"></use><use xlink:href="#SvgjsG1534" transform="translate(432, 336) scale(2)" fill="rgba(15, 19, 34, 1)"></use><use xlink:href="#SvgjsG1534" transform="translate(432, 384) scale(2)" fill="rgba(15, 19, 34, 1)"></use><use xlink:href="#SvgjsG1531" transform="translate(432, 432) scale(2)" fill="rgba(15, 19, 34, 1)"></use></g></defs></svg>