<svg xmlns="http://www.w3.org/2000/svg" viewBox="0 0 500 500"><g id="freepik--background-complete--inject-13"><rect y="382.4" width="500" height="0.25" style="fill:#ebebeb"></rect><rect x="416.78" y="398.49" width="33.12" height="0.25" style="fill:#ebebeb"></rect><rect x="322.53" y="401.21" width="8.69" height="0.25" style="fill:#ebebeb"></rect><rect x="396.59" y="389.21" width="19.19" height="0.25" style="fill:#ebebeb"></rect><rect x="52.46" y="390.89" width="43.19" height="0.25" style="fill:#ebebeb"></rect><rect x="104.56" y="390.89" width="6.33" height="0.25" style="fill:#ebebeb"></rect><rect x="131.47" y="395.11" width="93.68" height="0.25" style="fill:#ebebeb"></rect><path d="M237,337.8H43.91a5.71,5.71,0,0,1-5.7-5.71V60.66A5.71,5.71,0,0,1,43.91,55H237a5.71,5.71,0,0,1,5.71,5.71V332.09A5.71,5.71,0,0,1,237,337.8ZM43.91,55.2a5.46,5.46,0,0,0-5.45,5.46V332.09a5.46,5.46,0,0,0,5.45,5.46H237a5.47,5.47,0,0,0,5.46-5.46V60.66A5.47,5.47,0,0,0,237,55.2Z" style="fill:#ebebeb"></path><path d="M453.31,337.8H260.21a5.72,5.72,0,0,1-5.71-5.71V60.66A5.72,5.72,0,0,1,260.21,55h193.1A5.71,5.71,0,0,1,459,60.66V332.09A5.71,5.71,0,0,1,453.31,337.8ZM260.21,55.2a5.47,5.47,0,0,0-5.46,5.46V332.09a5.47,5.47,0,0,0,5.46,5.46h193.1a5.47,5.47,0,0,0,5.46-5.46V60.66a5.47,5.47,0,0,0-5.46-5.46Z" style="fill:#ebebeb"></path><path d="M410.85,366.47c.22-2.62-.14-6-3.19-7-5.18-1.7-8.25-5.71-8.08-10.25s-5.28-8.95-9.37-4.7-3.54-3.27-9-5.09-10.07,2.6-8.58,6.65-3.89,6.59-10.33,3.14-13.53,2.82-12.16,7.73.24,5.45-3.83,3.81c-3.29-1.32-8.68,1.46-9.28,5.73Z" style="fill:#e0e0e0"></path><path d="M135.5,366.47c.25-2.07.14-5.1-2.43-5.94-4-1.33-6.41-4.44-6.27-8s-4.1-6.95-7.27-3.65-2.75-2.54-7-4-7.82,2-6.66,5.17-3,5.11-8,2.44-10.5,2.19-9.44,6,.19,4.23-3,3c-2.68-1.08-7.13,1.35-7.23,4.94Z" style="fill:#e0e0e0"></path><path d="M142.16,366.47h94.11c1.32-4.41-2.1-9.71-5.83-10.46-4.58-.91-9.18-9-9.4-14.11s-8.46-20.91-21.29-11.16-8.93,1.43-18.21-1.31-15.13,5.14-11.06,11.05c0,0-9.32-2.33-13.16,6.37s0,14.11,0,14.11S145.53,360.62,142.16,366.47Z" style="fill:#e0e0e0"></path><path d="M290.18,119.48a4.45,4.45,0,0,1,5.7-4.24,10,10,0,0,1-.1-1.35,9.38,9.38,0,0,1,9.37-9.38,9.85,9.85,0,0,1,1.73.16,8.19,8.19,0,0,1,15.19,4.15h.14a7.55,7.55,0,1,1,0,15.1H294.49A4.43,4.43,0,0,1,290.18,119.48Z" style="fill:#f5f5f5"></path><path d="M134.22,145.58a4.41,4.41,0,0,1,5.69-4.24,10.24,10.24,0,0,1-.1-1.36,9.37,9.37,0,0,1,9.38-9.37,8.88,8.88,0,0,1,1.72.16,8.19,8.19,0,0,1,15.19,4.14h.14a7.55,7.55,0,0,1,0,15.1H138.52A4.42,4.42,0,0,1,134.22,145.58Z" style="fill:#f5f5f5"></path><path d="M234.65,132.74A2.75,2.75,0,0,1,237.4,130a2.56,2.56,0,0,1,.79.12,6,6,0,0,1-.06-.85,5.82,5.82,0,0,1,5.83-5.82,5.39,5.39,0,0,1,1.07.1,5.1,5.1,0,0,1,9.45,2.57h.08a4.69,4.69,0,0,1,0,9.38H237.33A2.75,2.75,0,0,1,234.65,132.74Z" style="fill:#f5f5f5"></path><path d="M82.67,127.37a2.76,2.76,0,0,1,2.75-2.76,3,3,0,0,1,.79.12,5.93,5.93,0,0,1-.06-.84A5.82,5.82,0,0,1,92,118.06a5.49,5.49,0,0,1,1.08.1,5.09,5.09,0,0,1,9.44,2.57h.08a4.7,4.7,0,1,1,0,9.39H85.34A2.74,2.74,0,0,1,82.67,127.37Z" style="fill:#f5f5f5"></path><path d="M389.44,144a2.76,2.76,0,0,1,2.76-2.75,2.61,2.61,0,0,1,.79.12,6,6,0,0,1-.07-.85,5.83,5.83,0,0,1,5.83-5.82,5.32,5.32,0,0,1,1.07.1,5.1,5.1,0,0,1,9.45,2.57h.08a4.7,4.7,0,1,1,0,9.39H392.12A2.75,2.75,0,0,1,389.44,144Z" style="fill:#f5f5f5"></path><path d="M151.39,222.45a8.42,8.42,0,0,1-.26-1.72c-.21-3.56-3.61-3-6.51-3.48-2.27-.38,3.73-6.1-.84-7.95a4,4,0,0,1-2.2-1.53,2.61,2.61,0,0,1,1-3.17,6.2,6.2,0,0,1,3.47-.87c.74-.9.14-2.26-.58-3.19s-1.6-2-1.33-3.11c.41-1.73,2.82-1.79,4.55-1.45.65-1,.63-2.34.95-3.52s1.25-2.43,2.46-2.28,1.84,1.43,3,1.7c1.3.3,2.43-.85,3.45-1.71s2.81-1.41,3.51-.27c.42.68.17,1.63.61,2.3.76,1.16,2.56.44,3.67-.38s2.9-1.57,3.68-.43a4.92,4.92,0,0,1,.44,1.2c.52,1.52,2.17,2.28,3.45,3.26s2.3,2.92,1.22,4.11c-.54.59-1.48.83-1.75,1.58-.33.94.63,1.78,1.39,2.42,1.26,1.07,1.49,4.28-.18,5.16-.7.37-1.73.48-1.9,1.26s.55,1.22,1,1.76a3.31,3.31,0,0,1-1,4.93c-.4.19-.89.35-1,.77a1.58,1.58,0,0,0,.09.93,4.71,4.71,0,0,1,.16,1.79.81.81,0,0,1-.21.56.87.87,0,0,1-.53.15c-2.41.1-3.57-.75-5,1.35a1.69,1.69,0,0,1-.5.53,1.55,1.55,0,0,1-.67.17c-1.65.13-2.74-.9-4.25-1.09-2.1-.27-2.54.81-4.39,1.68C153.35,225.28,151.94,224.44,151.39,222.45Z" style="fill:#ebebeb"></path><path d="M179.13,219.46a8.64,8.64,0,0,1-.26-1.72c-.21-3.57-3.62-3-6.52-3.49-2.26-.38,3.73-6.1-.83-7.94a4,4,0,0,1-2.2-1.54,2.57,2.57,0,0,1,1-3.16,6.12,6.12,0,0,1,3.47-.87c.74-.91.13-2.27-.59-3.19s-1.6-2-1.33-3.12c.42-1.72,2.82-1.78,4.56-1.45.64-1,.63-2.34.94-3.52s1.25-2.42,2.47-2.28,1.84,1.43,3,1.7c1.3.3,2.43-.85,3.45-1.71s2.8-1.4,3.51-.26c.42.68.17,1.63.6,2.3.76,1.16,2.56.44,3.68-.39s2.89-1.57,3.68-.42a4.83,4.83,0,0,1,.43,1.19c.53,1.52,2.18,2.28,3.46,3.26s2.3,2.92,1.21,4.12c-.53.58-1.47.82-1.74,1.57-.33.94.62,1.78,1.38,2.42,1.26,1.08,1.49,4.29-.18,5.17-.7.36-1.72.48-1.89,1.25s.54,1.23,1,1.76a3.3,3.3,0,0,1-1,4.93c-.4.2-.89.35-1,.77a1.58,1.58,0,0,0,.1.93,4.91,4.91,0,0,1,.16,1.79.79.79,0,0,1-.22.56.87.87,0,0,1-.53.15c-2.4.11-3.57-.74-5,1.35a1.69,1.69,0,0,1-.5.53,1.5,1.5,0,0,1-.66.17c-1.66.14-2.74-.9-4.25-1.09-2.1-.27-2.55.81-4.4,1.68C181.09,222.28,179.68,221.44,179.13,219.46Z" style="fill:#ebebeb"></path><path d="M181.8,201.79a8.42,8.42,0,0,1-.26-1.72c-.21-3.56-3.62-3-6.51-3.48-2.27-.38,3.73-6.1-.84-8a4,4,0,0,1-2.2-1.53,2.61,2.61,0,0,1,1-3.17,6.2,6.2,0,0,1,3.47-.87c.74-.9.14-2.26-.58-3.19s-1.61-2-1.33-3.11c.41-1.72,2.81-1.79,4.55-1.45.64-1,.63-2.34.94-3.52s1.26-2.43,2.47-2.28,1.84,1.43,3,1.7c1.3.3,2.43-.85,3.45-1.71s2.81-1.41,3.51-.27c.42.68.17,1.63.61,2.3.76,1.16,2.55.44,3.67-.38s2.9-1.57,3.68-.43a4.76,4.76,0,0,1,.43,1.2c.53,1.52,2.18,2.28,3.46,3.26s2.3,2.92,1.22,4.11c-.54.59-1.48.83-1.75,1.58-.33.94.63,1.78,1.39,2.42,1.26,1.07,1.49,4.28-.18,5.16-.7.37-1.73.48-1.9,1.26s.55,1.22,1,1.76a3.31,3.31,0,0,1-1,4.93c-.4.19-.9.35-1,.77a1.58,1.58,0,0,0,.09.93,4.91,4.91,0,0,1,.16,1.79.86.86,0,0,1-.21.56.91.91,0,0,1-.53.15c-2.41.1-3.57-.75-5,1.35a1.69,1.69,0,0,1-.5.53,1.55,1.55,0,0,1-.67.17c-1.65.13-2.74-.9-4.25-1.09-2.1-.27-2.54.81-4.39,1.68C183.76,204.62,182.35,203.78,181.8,201.79Z" style="fill:#ebebeb"></path><path d="M200.07,210.59a8.42,8.42,0,0,1-.26-1.72c-.21-3.57-3.62-3-6.51-3.49-2.27-.37,3.73-6.09-.84-7.94a4,4,0,0,1-2.2-1.53,2.61,2.61,0,0,1,1-3.17,6.12,6.12,0,0,1,3.47-.87c.74-.9.14-2.27-.58-3.19s-1.61-2-1.33-3.12c.41-1.72,2.81-1.78,4.55-1.44.64-1,.63-2.34.94-3.53s1.26-2.42,2.47-2.27,1.84,1.43,3,1.69c1.3.31,2.43-.84,3.45-1.71s2.81-1.4,3.51-.26c.42.68.17,1.63.61,2.3.76,1.16,2.55.44,3.67-.38s2.9-1.57,3.68-.43a4.83,4.83,0,0,1,.43,1.19c.53,1.53,2.18,2.29,3.46,3.27s2.3,2.92,1.22,4.11c-.54.59-1.48.83-1.75,1.58-.33.93.63,1.77,1.39,2.42,1.26,1.07,1.49,4.28-.18,5.16-.7.37-1.73.48-1.9,1.25s.55,1.23,1,1.76a3.32,3.32,0,0,1-1,4.94c-.4.19-.89.35-1,.77a1.58,1.58,0,0,0,.09.93,4.91,4.91,0,0,1,.16,1.79.86.86,0,0,1-.21.56.83.83,0,0,1-.53.14c-2.41.11-3.57-.74-5,1.36a1.81,1.81,0,0,1-.5.53,1.69,1.69,0,0,1-.67.16c-1.65.14-2.74-.89-4.25-1.09-2.1-.26-2.54.82-4.39,1.69C202,213.42,200.62,212.57,200.07,210.59Z" style="fill:#ebebeb"></path><path d="M218.54,206.53a8,8,0,0,1-.26-1.72c-.21-3.57-3.62-3-6.52-3.49-2.26-.38,3.73-6.1-.83-7.94a4,4,0,0,1-2.21-1.54,2.59,2.59,0,0,1,1-3.16,6.08,6.08,0,0,1,3.46-.87c.75-.91.14-2.27-.58-3.19s-1.6-2-1.33-3.12c.41-1.72,2.82-1.78,4.56-1.45.64-1,.63-2.34.94-3.52s1.25-2.42,2.46-2.27,1.85,1.43,3,1.69c1.3.31,2.42-.85,3.45-1.71s2.8-1.4,3.51-.26c.42.68.16,1.63.6,2.3.76,1.16,2.56.44,3.68-.39s2.89-1.57,3.68-.42a4.83,4.83,0,0,1,.43,1.19c.53,1.53,2.17,2.28,3.46,3.26s2.3,2.92,1.21,4.12c-.53.59-1.48.82-1.74,1.57-.33.94.62,1.78,1.38,2.43,1.26,1.07,1.49,4.28-.18,5.16-.7.36-1.72.48-1.9,1.25s.55,1.23,1,1.76a3.32,3.32,0,0,1-1,4.94c-.4.19-.89.34-1,.76a1.58,1.58,0,0,0,.1.93,5.14,5.14,0,0,1,.16,1.79.79.79,0,0,1-.22.56.87.87,0,0,1-.53.15c-2.41.11-3.57-.74-5,1.35a1.69,1.69,0,0,1-.5.53,1.5,1.5,0,0,1-.66.17c-1.66.14-2.74-.9-4.25-1.09-2.1-.27-2.55.82-4.4,1.68C220.49,209.35,219.08,208.51,218.54,206.53Z" style="fill:#ebebeb"></path><path d="M218.78,226.28a6.59,6.59,0,0,1-.21-1.35c-.16-2.81-2.85-2.37-5.13-2.75-1.78-.3,2.94-4.8-.65-6.25a3.18,3.18,0,0,1-1.74-1.21,2.06,2.06,0,0,1,.78-2.5,4.85,4.85,0,0,1,2.73-.68c.59-.71.11-1.79-.46-2.51s-1.26-1.56-1-2.46c.32-1.35,2.22-1.4,3.58-1.14a9.87,9.87,0,0,0,.75-2.77c.24-.93,1-1.91,1.94-1.79s1.45,1.12,2.33,1.33,1.91-.66,2.72-1.34,2.21-1.11,2.76-.21c.33.54.13,1.28.48,1.81.59.92,2,.35,2.89-.3s2.28-1.24,2.9-.34a3.91,3.91,0,0,1,.34.94c.41,1.2,1.71,1.8,2.72,2.57s1.81,2.3,1,3.24c-.42.46-1.17.65-1.38,1.24-.26.74.5,1.4,1.09,1.91,1,.84,1.18,3.37-.14,4.06-.55.29-1.36.38-1.49,1s.43,1,.8,1.39a2.61,2.61,0,0,1-.8,3.88c-.32.15-.71.28-.82.61a1.16,1.16,0,0,0,.07.73,4,4,0,0,1,.13,1.41.69.69,0,0,1-.17.44.74.74,0,0,1-.42.12c-1.89.08-2.81-.59-4,1.06a1.31,1.31,0,0,1-.39.42,1.33,1.33,0,0,1-.53.13c-1.3.11-2.15-.71-3.34-.86-1.65-.21-2,.64-3.46,1.33C220.32,228.5,219.21,227.84,218.78,226.28Z" style="fill:#ebebeb"></path><path d="M229.12,219.46a9.43,9.43,0,0,1-.26-1.72c-.21-3.57-3.61-3-6.51-3.49-2.27-.38,3.73-6.1-.84-7.94a4,4,0,0,1-2.2-1.54,2.59,2.59,0,0,1,1-3.16,6.06,6.06,0,0,1,3.46-.87c.75-.91.14-2.27-.58-3.19s-1.6-2-1.33-3.12c.41-1.72,2.82-1.78,4.56-1.45.64-1,.62-2.34.94-3.52s1.25-2.42,2.46-2.28,1.84,1.43,3,1.7c1.3.3,2.43-.85,3.45-1.71s2.81-1.4,3.51-.26c.42.68.17,1.63.61,2.3.76,1.16,2.56.44,3.67-.39s2.9-1.57,3.68-.42a4.85,4.85,0,0,1,.44,1.19c.52,1.52,2.17,2.28,3.46,3.26s2.3,2.92,1.21,4.12c-.54.58-1.48.82-1.74,1.57-.34.94.62,1.78,1.38,2.42,1.26,1.08,1.49,4.29-.18,5.17-.7.36-1.73.48-1.9,1.25s.55,1.23,1,1.76a3.31,3.31,0,0,1-1,4.93c-.4.2-.89.35-1,.77a1.57,1.57,0,0,0,.09.93,4.92,4.92,0,0,1,.17,1.79.83.83,0,0,1-.22.56.87.87,0,0,1-.53.15c-2.41.11-3.57-.74-5,1.35a1.69,1.69,0,0,1-.5.53,1.55,1.55,0,0,1-.67.17c-1.65.14-2.73-.9-4.25-1.09-2.1-.27-2.54.81-4.39,1.68C231.08,222.28,229.67,221.44,229.12,219.46Z" style="fill:#ebebeb"></path><path d="M200.07,188.87a8.63,8.63,0,0,1-.26-1.73c-.21-3.56-3.62-3-6.51-3.48-2.27-.38,3.73-6.1-.84-7.94a4.06,4.06,0,0,1-2.2-1.54,2.61,2.61,0,0,1,1-3.17,6.19,6.19,0,0,1,3.47-.86c.74-.91.14-2.27-.58-3.2s-1.61-2-1.33-3.11c.41-1.72,2.81-1.79,4.55-1.45.64-1,.63-2.34.94-3.52s1.26-2.43,2.47-2.28,1.84,1.43,3,1.7c1.3.3,2.43-.85,3.45-1.71s2.81-1.4,3.51-.27c.42.68.17,1.63.61,2.3.76,1.17,2.55.44,3.67-.38s2.9-1.57,3.68-.43a4.9,4.9,0,0,1,.43,1.2c.53,1.52,2.18,2.28,3.46,3.26s2.3,2.92,1.22,4.11c-.54.59-1.48.83-1.75,1.58-.33.94.63,1.78,1.39,2.42,1.26,1.08,1.49,4.29-.18,5.16-.7.37-1.73.49-1.9,1.26s.55,1.23,1,1.76a3.31,3.31,0,0,1-1,4.93c-.4.19-.89.35-1,.77a1.57,1.57,0,0,0,.09.93,4.91,4.91,0,0,1,.16,1.79.84.84,0,0,1-.21.56.91.91,0,0,1-.53.15c-2.41.11-3.57-.75-5,1.35a1.69,1.69,0,0,1-.5.53,1.55,1.55,0,0,1-.67.17c-1.65.13-2.74-.9-4.25-1.09-2.1-.27-2.54.81-4.39,1.68C202,191.69,200.62,190.85,200.07,188.87Z" style="fill:#ebebeb"></path><path d="M176.35,190.08a8.64,8.64,0,0,1-.26-1.72c-.21-3.57-3.62-3-6.52-3.49-2.26-.38,3.74-6.1-.83-7.94a4,4,0,0,1-2.2-1.54,2.58,2.58,0,0,1,1-3.16,6.12,6.12,0,0,1,3.47-.87c.74-.91.14-2.27-.58-3.19s-1.61-2-1.33-3.12c.41-1.72,2.81-1.78,4.55-1.45.64-1,.63-2.34.94-3.52s1.25-2.42,2.47-2.27,1.84,1.43,3,1.69c1.3.31,2.43-.84,3.45-1.71s2.81-1.4,3.51-.26c.42.68.17,1.63.61,2.3.75,1.16,2.55.44,3.67-.39s2.89-1.57,3.68-.42a4.83,4.83,0,0,1,.43,1.19c.53,1.53,2.18,2.28,3.46,3.26s2.3,2.92,1.22,4.12c-.54.59-1.48.82-1.75,1.57-.33.94.63,1.78,1.38,2.43,1.27,1.07,1.49,4.28-.17,5.16-.7.36-1.73.48-1.9,1.25s.55,1.23,1,1.76a3.32,3.32,0,0,1-1,4.94c-.4.19-.9.34-1,.76a1.57,1.57,0,0,0,.09.93,4.91,4.91,0,0,1,.16,1.79.79.79,0,0,1-.22.56.86.86,0,0,1-.52.15c-2.41.11-3.57-.74-5,1.35a1.72,1.72,0,0,1-.51.53,1.47,1.47,0,0,1-.66.17c-1.66.14-2.74-.9-4.25-1.09-2.1-.27-2.54.82-4.39,1.68C178.31,192.9,176.9,192.06,176.35,190.08Z" style="fill:#ebebeb"></path><path d="M161.94,199.79a8.64,8.64,0,0,1-.26-1.72c-.21-3.57-3.62-3-6.51-3.49-2.27-.38,3.73-6.1-.84-7.94a4,4,0,0,1-2.2-1.54,2.6,2.6,0,0,1,1-3.16,6.12,6.12,0,0,1,3.47-.87c.74-.91.14-2.27-.58-3.2s-1.61-2-1.33-3.11c.41-1.72,2.81-1.78,4.55-1.45.65-1,.63-2.34.94-3.52s1.26-2.42,2.47-2.28,1.84,1.43,3,1.7c1.3.3,2.43-.85,3.45-1.71s2.81-1.4,3.51-.27c.42.69.17,1.63.61,2.3.76,1.17,2.55.45,3.67-.38s2.9-1.57,3.68-.42a4.83,4.83,0,0,1,.43,1.19c.53,1.52,2.18,2.28,3.46,3.26s2.3,2.92,1.22,4.11c-.54.59-1.48.83-1.75,1.58-.33.94.63,1.78,1.39,2.42,1.26,1.08,1.49,4.29-.18,5.16-.7.37-1.73.49-1.9,1.26s.55,1.23,1,1.76a3.31,3.31,0,0,1-1,4.93c-.4.19-.89.35-1,.77a1.57,1.57,0,0,0,.09.93,4.71,4.71,0,0,1,.16,1.79.84.84,0,0,1-.21.56.91.91,0,0,1-.53.15c-2.41.11-3.57-.75-5,1.35a1.69,1.69,0,0,1-.5.53,1.55,1.55,0,0,1-.67.17c-1.65.13-2.74-.9-4.25-1.09-2.1-.27-2.54.81-4.39,1.68C163.9,202.61,162.49,201.77,161.94,199.79Z" style="fill:#ebebeb"></path><path d="M166.31,212.06s6,8.51,8.1,11.22,12.47,19.53,13.89,30.66c.15,1.19.29,2.21.44,3.1-4.47,29.5-3.77,83.47-3.61,92.7h14.16c.13-10.41,1.33-105.65,1.77-108.55.47-3.08,6.39-14.8,15.53-19.61s17-20.75,17-20.75h-2.92s-5.4,9.77-13.09,15.17a27.59,27.59,0,0,1-3.46,2.05,49.07,49.07,0,0,0-3-17.22l-1.58,1.46c2.13,8.7,1.85,14.27,1.21,17.47a31.53,31.53,0,0,0-7.95,5.32c-8-10.37-12.46-34.09-12.46-34.09l-2,1.12a120.49,120.49,0,0,0,2.63,14.54c1.5,6.14,5.89,17.7,7.94,22.95a54.37,54.37,0,0,0-6,11.3,5.29,5.29,0,0,0-.77-.92c-5.2-4.7-15-26.89-15-26.89-2.37-5.15,1.24-18.7,1.24-18.7h-2.72l-1.23,11.85-6.85-7.48-1.25,1,7.27,9.35L177.32,221l-9.76-10.8Z" style="fill:#e6e6e6"></path><path d="M408.93,254.23a6.32,6.32,0,0,0,.2-1.32c.16-2.74,2.78-2.31,5-2.68,1.74-.29-2.86-4.68.64-6.09a3.1,3.1,0,0,0,1.69-1.18,2,2,0,0,0-.76-2.43,4.78,4.78,0,0,0-2.66-.67c-.57-.69-.11-1.74.44-2.44s1.23-1.52,1-2.4c-.31-1.32-2.16-1.36-3.49-1.11a9.6,9.6,0,0,1-.72-2.7c-.24-.91-1-1.86-1.89-1.74s-1.42,1.09-2.28,1.3-1.86-.65-2.64-1.32-2.16-1.07-2.7-.2c-.32.52-.13,1.25-.46,1.77-.58.89-2,.33-2.82-.3s-2.22-1.2-2.82-.32a3.42,3.42,0,0,0-.34.91c-.4,1.17-1.67,1.75-2.65,2.5s-1.77,2.25-.93,3.16c.41.45,1.13.63,1.34,1.21s-.48,1.36-1.06,1.86c-1,.82-1.15,3.28.13,4,.54.28,1.33.37,1.46,1s-.42.94-.78,1.35a2.55,2.55,0,0,0,.78,3.79c.31.14.68.27.8.59a1.17,1.17,0,0,1-.08.71,4,4,0,0,0-.12,1.37.64.64,0,0,0,.17.43.63.63,0,0,0,.4.12c1.85.08,2.74-.57,3.87,1a1.18,1.18,0,0,0,.39.41,1.24,1.24,0,0,0,.51.13c1.27.1,2.1-.69,3.26-.84,1.61-.2,1.95.63,3.37,1.3C407.43,256.39,408.51,255.75,408.93,254.23Z" style="fill:#ebebeb"></path><path d="M387.65,251.93a6.32,6.32,0,0,0,.2-1.32c.16-2.74,2.78-2.31,5-2.68,1.74-.29-2.86-4.68.64-6.09a3,3,0,0,0,1.69-1.18,2,2,0,0,0-.76-2.43,4.69,4.69,0,0,0-2.66-.66c-.57-.7-.11-1.74.44-2.45s1.23-1.52,1-2.39c-.31-1.33-2.16-1.37-3.49-1.12a9.6,9.6,0,0,1-.72-2.7c-.24-.91-1-1.86-1.89-1.74s-1.42,1.09-2.28,1.3-1.86-.65-2.64-1.31-2.16-1.08-2.7-.21c-.32.52-.13,1.25-.46,1.77-.58.89-2,.34-2.82-.3s-2.22-1.2-2.82-.32a3.42,3.42,0,0,0-.34.91c-.4,1.17-1.67,1.75-2.65,2.5s-1.77,2.25-.93,3.16c.41.45,1.13.64,1.34,1.21.25.72-.48,1.36-1.07,1.86-1,.82-1.14,3.29.14,4,.54.28,1.33.37,1.46,1s-.42.94-.78,1.35a2.55,2.55,0,0,0,.78,3.79c.31.14.68.27.8.59a1.17,1.17,0,0,1-.08.71,4,4,0,0,0-.12,1.37.64.64,0,0,0,.17.43.63.63,0,0,0,.4.12c1.85.08,2.74-.57,3.87,1a1.18,1.18,0,0,0,.39.41,1.24,1.24,0,0,0,.51.13c1.27.1,2.1-.69,3.26-.84,1.61-.2,1.95.63,3.37,1.3C386.15,254.09,387.23,253.45,387.65,251.93Z" style="fill:#ebebeb"></path><path d="M385.6,238.38a6.42,6.42,0,0,0,.2-1.32c.16-2.74,2.78-2.31,5-2.68,1.74-.29-2.86-4.68.64-6.09a3.1,3.1,0,0,0,1.69-1.18,2,2,0,0,0-.76-2.43,4.72,4.72,0,0,0-2.66-.67c-.57-.69-.11-1.74.44-2.45s1.23-1.51,1-2.39c-.31-1.32-2.16-1.37-3.49-1.11a9.69,9.69,0,0,1-.72-2.7c-.24-.91-1-1.86-1.89-1.75s-1.42,1.1-2.28,1.3-1.86-.64-2.64-1.31-2.16-1.07-2.7-.2c-.32.52-.13,1.25-.46,1.77-.58.89-2,.33-2.82-.3s-2.22-1.2-2.83-.33a4,4,0,0,0-.33.92c-.4,1.17-1.67,1.75-2.65,2.5s-1.77,2.24-.93,3.16c.41.45,1.13.63,1.34,1.21s-.48,1.36-1.07,1.86c-1,.82-1.14,3.28.14,4,.54.28,1.33.37,1.46,1s-.42.94-.78,1.35a2.55,2.55,0,0,0,.78,3.79c.31.14.68.26.8.58a1.21,1.21,0,0,1-.08.72,3.94,3.94,0,0,0-.12,1.37.64.64,0,0,0,.17.43.7.7,0,0,0,.4.12c1.85.08,2.74-.58,3.87,1a1.25,1.25,0,0,0,.38.41,1.33,1.33,0,0,0,.51.13c1.27.1,2.11-.69,3.27-.84,1.61-.2,1.95.63,3.37,1.29C384.1,240.54,385.18,239.9,385.6,238.38Z" style="fill:#ebebeb"></path><path d="M371.58,245.13a6.42,6.42,0,0,0,.2-1.32c.16-2.74,2.78-2.31,5-2.68,1.74-.29-2.86-4.68.64-6.09a3.1,3.1,0,0,0,1.69-1.18,2,2,0,0,0-.76-2.43,4.7,4.7,0,0,0-2.66-.67c-.57-.69-.11-1.74.45-2.45s1.22-1.51,1-2.39c-.32-1.32-2.17-1.36-3.5-1.11a9.69,9.69,0,0,1-.72-2.7c-.24-.91-1-1.86-1.89-1.75s-1.42,1.1-2.28,1.3-1.86-.64-2.64-1.31-2.16-1.07-2.7-.2c-.32.52-.13,1.25-.46,1.77-.58.89-2,.33-2.82-.3s-2.22-1.2-2.82-.33a3.62,3.62,0,0,0-.34.92c-.4,1.17-1.67,1.75-2.65,2.5s-1.76,2.24-.93,3.16c.41.45,1.13.63,1.34,1.21s-.48,1.36-1.06,1.86c-1,.82-1.15,3.28.13,4,.54.28,1.33.37,1.46,1s-.42.94-.78,1.35a2.55,2.55,0,0,0,.78,3.79c.31.14.69.26.8.58a1.28,1.28,0,0,1-.07.72,3.72,3.72,0,0,0-.13,1.37.64.64,0,0,0,.17.43.7.7,0,0,0,.4.12c1.85.08,2.74-.58,3.87,1a1.18,1.18,0,0,0,.39.41,1.24,1.24,0,0,0,.51.13c1.27.1,2.1-.69,3.26-.84,1.61-.2,1.95.63,3.37,1.29C370.08,247.29,371.16,246.65,371.58,245.13Z" style="fill:#ebebeb"></path><path d="M357.41,242a6.32,6.32,0,0,0,.2-1.32c.17-2.74,2.78-2.31,5-2.68,1.74-.29-2.86-4.68.64-6.09a3,3,0,0,0,1.69-1.18,2,2,0,0,0-.76-2.43,4.69,4.69,0,0,0-2.66-.66c-.57-.7-.11-1.74.45-2.45s1.23-1.52,1-2.39c-.32-1.33-2.16-1.37-3.5-1.12a9.6,9.6,0,0,1-.72-2.7c-.24-.91-1-1.86-1.89-1.74s-1.41,1.09-2.27,1.3-1.87-.65-2.65-1.31-2.15-1.08-2.69-.21c-.33.52-.13,1.25-.47,1.77-.58.89-2,.34-2.82-.3s-2.22-1.2-2.82-.32a3.2,3.2,0,0,0-.33.91c-.41,1.17-1.67,1.75-2.66,2.5s-1.76,2.25-.93,3.16c.41.45,1.13.64,1.34,1.21s-.48,1.36-1.06,1.86c-1,.82-1.14,3.29.13,4,.54.28,1.33.37,1.46,1s-.42.94-.78,1.35a2.55,2.55,0,0,0,.78,3.79c.31.15.69.27.8.59a1.24,1.24,0,0,1-.07.71,3.74,3.74,0,0,0-.13,1.37.51.51,0,0,0,.58.55c1.84.08,2.74-.57,3.86,1a1.28,1.28,0,0,0,.39.41,1.1,1.1,0,0,0,.51.13c1.27.1,2.1-.69,3.26-.84,1.61-.2,1.95.63,3.37,1.3C355.91,244.18,357,243.53,357.41,242Z" style="fill:#ebebeb"></path><path d="M357.23,257.16a5.84,5.84,0,0,0,.16-1c.12-2.15,2.18-1.81,3.93-2.1,1.37-.23-2.25-3.69.51-4.8a2.42,2.42,0,0,0,1.33-.93,1.58,1.58,0,0,0-.6-1.91,3.8,3.8,0,0,0-2.1-.53c-.45-.54-.08-1.37.35-1.92s1-1.2.81-1.89c-.25-1-1.7-1.07-2.75-.87a7.62,7.62,0,0,1-.57-2.13c-.19-.71-.76-1.46-1.49-1.37s-1.11.86-1.79,1-1.47-.51-2.09-1-1.69-.85-2.12-.16c-.25.41-.1,1-.36,1.39-.46.7-1.55.26-2.22-.23s-1.75-.95-2.23-.26a3.42,3.42,0,0,0-.26.72c-.32.92-1.31,1.38-2.09,2s-1.39,1.76-.73,2.49c.32.35.89.49,1.05.95s-.37,1.07-.83,1.46c-.76.65-.9,2.59.11,3.12.42.22,1,.29,1.14.76s-.33.74-.61,1.06a2,2,0,0,0,.61,3c.25.12.54.21.63.46a.87.87,0,0,1-.06.57,3,3,0,0,0-.09,1.08.47.47,0,0,0,.13.34.57.57,0,0,0,.32.09c1.45.06,2.15-.45,3,.81a1.05,1.05,0,0,0,.31.32.91.91,0,0,0,.4.1c1,.09,1.65-.54,2.57-.65,1.26-.17,1.53.49,2.65,1C356.05,258.87,356.9,258.36,357.23,257.16Z" style="fill:#ebebeb"></path><path d="M349.29,251.93a6.32,6.32,0,0,0,.2-1.32c.16-2.74,2.78-2.31,5-2.68,1.74-.29-2.86-4.68.64-6.09a3,3,0,0,0,1.69-1.18,2,2,0,0,0-.76-2.43,4.69,4.69,0,0,0-2.66-.66c-.57-.7-.11-1.74.44-2.45s1.23-1.52,1-2.39c-.31-1.33-2.16-1.37-3.49-1.12a9.6,9.6,0,0,1-.72-2.7c-.24-.91-1-1.86-1.89-1.74s-1.42,1.09-2.28,1.3-1.86-.65-2.64-1.31-2.16-1.08-2.7-.21c-.32.52-.13,1.25-.46,1.77-.58.89-2,.34-2.82-.3s-2.22-1.2-2.82-.32a3.42,3.42,0,0,0-.34.91c-.4,1.17-1.67,1.75-2.65,2.5s-1.77,2.25-.93,3.16c.41.45,1.13.64,1.34,1.21.25.72-.48,1.36-1.06,1.86-1,.82-1.15,3.29.13,4,.54.28,1.33.37,1.46,1s-.42.94-.78,1.35a2.55,2.55,0,0,0,.78,3.79c.31.14.68.27.8.59a1.17,1.17,0,0,1-.08.71,4,4,0,0,0-.12,1.37.64.64,0,0,0,.17.43.63.63,0,0,0,.4.12c1.85.08,2.74-.57,3.87,1a1.18,1.18,0,0,0,.39.41,1.24,1.24,0,0,0,.51.13c1.27.1,2.1-.69,3.26-.84,1.61-.2,1.95.63,3.37,1.3C347.79,254.09,348.87,253.45,349.29,251.93Z" style="fill:#ebebeb"></path><path d="M371.58,228.46a6.42,6.42,0,0,0,.2-1.32c.16-2.74,2.78-2.31,5-2.68,1.74-.29-2.86-4.68.64-6.09a3.1,3.1,0,0,0,1.69-1.18,2,2,0,0,0-.76-2.43,4.7,4.7,0,0,0-2.66-.67c-.57-.69-.11-1.74.45-2.45s1.22-1.51,1-2.39c-.32-1.32-2.17-1.36-3.5-1.11a9.69,9.69,0,0,1-.72-2.7c-.24-.91-1-1.86-1.89-1.75s-1.42,1.1-2.28,1.3-1.86-.64-2.64-1.31-2.16-1.07-2.7-.2c-.32.52-.13,1.25-.46,1.77-.58.89-2,.33-2.82-.3s-2.22-1.2-2.82-.33a3.62,3.62,0,0,0-.34.92c-.4,1.17-1.67,1.75-2.65,2.5s-1.76,2.24-.93,3.16c.41.45,1.13.63,1.34,1.21s-.48,1.36-1.06,1.86c-1,.82-1.15,3.28.13,4,.54.28,1.33.37,1.46,1s-.42.94-.78,1.35a2.55,2.55,0,0,0,.78,3.79c.31.14.69.26.8.58a1.28,1.28,0,0,1-.07.72,3.72,3.72,0,0,0-.13,1.37.64.64,0,0,0,.17.43.7.7,0,0,0,.4.12c1.85.08,2.74-.58,3.87,1a1.18,1.18,0,0,0,.39.41,1.24,1.24,0,0,0,.51.13c1.27.1,2.1-.69,3.26-.84,1.61-.2,1.95.63,3.37,1.29C370.08,230.62,371.16,230,371.58,228.46Z" style="fill:#ebebeb"></path><path d="M389.78,229.39a6.32,6.32,0,0,0,.2-1.32c.16-2.74,2.78-2.31,5-2.68,1.74-.29-2.86-4.68.64-6.09a3.1,3.1,0,0,0,1.69-1.18,2,2,0,0,0-.76-2.43,4.7,4.7,0,0,0-2.66-.67c-.57-.69-.11-1.74.45-2.45s1.23-1.51,1-2.39c-.32-1.32-2.17-1.36-3.5-1.11a9.69,9.69,0,0,1-.72-2.7c-.24-.91-1-1.86-1.89-1.75s-1.42,1.1-2.28,1.3-1.86-.64-2.64-1.31-2.16-1.07-2.7-.2c-.32.52-.12,1.25-.46,1.77-.58.89-2,.33-2.82-.3s-2.22-1.2-2.82-.33a3.62,3.62,0,0,0-.34.92c-.4,1.17-1.66,1.75-2.65,2.5s-1.76,2.24-.93,3.16c.41.45,1.13.63,1.34,1.21s-.48,1.36-1.06,1.86c-1,.82-1.15,3.28.13,4,.54.28,1.33.37,1.46,1s-.42.94-.78,1.35a2.55,2.55,0,0,0,.78,3.79c.31.14.69.26.8.59a1.24,1.24,0,0,1-.07.71,3.72,3.72,0,0,0-.13,1.37.51.51,0,0,0,.58.55c1.84.08,2.73-.58,3.86,1a1.18,1.18,0,0,0,.39.41,1.24,1.24,0,0,0,.51.13c1.27.1,2.1-.69,3.26-.84,1.61-.2,1.95.63,3.37,1.29C388.28,231.55,389.36,230.91,389.78,229.39Z" style="fill:#ebebeb"></path><path d="M400.84,236.83a6.93,6.93,0,0,0,.2-1.32c.16-2.73,2.77-2.3,5-2.67,1.73-.29-2.87-4.68.64-6.09a3.14,3.14,0,0,0,1.69-1.18,2,2,0,0,0-.77-2.43,4.68,4.68,0,0,0-2.66-.67c-.57-.69-.1-1.74.45-2.45s1.23-1.51,1-2.39c-.32-1.32-2.16-1.37-3.49-1.11a9.37,9.37,0,0,1-.73-2.7c-.24-.91-1-1.86-1.89-1.75s-1.41,1.1-2.27,1.3-1.86-.64-2.65-1.31-2.15-1.07-2.69-.2c-.32.52-.13,1.25-.47,1.76-.58.9-2,.34-2.81-.29s-2.23-1.2-2.83-.33a4,4,0,0,0-.33.92c-.41,1.17-1.67,1.75-2.65,2.5s-1.77,2.24-.94,3.16c.42.45,1.14.63,1.34,1.21s-.48,1.36-1.06,1.86c-1,.82-1.14,3.28.14,4,.54.28,1.32.37,1.45,1s-.42.94-.77,1.35a2.53,2.53,0,0,0,.78,3.78c.3.15.68.27.79.59a1.13,1.13,0,0,1-.07.72,3.72,3.72,0,0,0-.12,1.37.63.63,0,0,0,.16.43.65.65,0,0,0,.41.11c1.85.09,2.74-.57,3.87,1a1.36,1.36,0,0,0,.38.41,1.28,1.28,0,0,0,.51.13c1.27.1,2.1-.69,3.26-.84,1.61-.2,2,.63,3.37,1.29C399.34,239,400.42,238.36,400.84,236.83Z" style="fill:#ebebeb"></path><path d="M397.49,246.25s-4.63,6.54-6.22,8.61-9.57,15-10.65,23.53c-.12.91-.23,1.69-.34,2.38,3.42,22.63,2.89,64,2.77,71.12H372.18c-.1-8-1-81.06-1.36-83.29s-4.9-11.35-11.92-15-13.07-15.92-13.07-15.92h2.23s4.15,7.49,10.05,11.64a22.23,22.23,0,0,0,2.65,1.57,37.65,37.65,0,0,1,2.35-13.21l1.2,1.12c-1.63,6.67-1.41,10.94-.92,13.4a24.14,24.14,0,0,1,6.1,4.08c6.12-8,9.56-26.15,9.56-26.15l1.57.85a91.88,91.88,0,0,1-2,11.16c-1.14,4.71-4.52,13.58-6.09,17.61a41.77,41.77,0,0,1,4.63,8.67,3.32,3.32,0,0,1,.59-.7c4-3.61,11.48-20.63,11.48-20.63,1.81-4-1-14.35-1-14.35h2.09l.94,9.08,5.26-5.73,1,.79L391.91,244,389,253.11l7.49-8.3Z" style="fill:#e6e6e6"></path><rect x="121.56" y="145.48" width="6.91" height="222.66" transform="translate(250.02 513.62) rotate(180)" style="fill:#e6e6e6"></rect><polygon points="132.93 173.33 117.1 173.33 114.1 142.03 135.93 142.03 132.93 173.33" style="fill:#ebebeb"></polygon><polygon points="135.21 139.17 126.67 129.93 125.01 128.13 123.36 129.93 114.82 139.17 110 139.17 112.87 144.99 123.36 144.99 126.67 144.99 137.15 144.99 140.03 139.17 135.21 139.17" style="fill:#e0e0e0"></polygon><rect x="115.74" y="171.34" width="18.55" height="3.56" style="fill:#e0e0e0"></rect><path d="M65.85,368.23v12.94H430.41V368.23a3.86,3.86,0,0,0-3.81-4.06H69.66A3.85,3.85,0,0,0,65.85,368.23Z" style="fill:#e0e0e0"></path><rect x="386.97" y="364.17" width="22.67" height="17" style="fill:#f5f5f5"></rect><rect x="344.47" y="364.17" width="21.72" height="17" style="fill:#f5f5f5"></rect><rect x="301.02" y="364.17" width="22.67" height="17" style="fill:#f5f5f5"></rect><rect x="258.52" y="364.17" width="21.72" height="17" style="fill:#f5f5f5"></rect><rect x="216.02" y="364.17" width="21.72" height="17" style="fill:#f5f5f5"></rect><rect x="172.57" y="364.17" width="22.67" height="17" style="fill:#f5f5f5"></rect><rect x="130.07" y="364.17" width="21.72" height="17" style="fill:#f5f5f5"></rect><rect x="86.62" y="364.17" width="22.67" height="17" style="fill:#f5f5f5"></rect></g><g id="freepik--Shadow--inject-13"><ellipse id="freepik--path--inject-13" cx="250" cy="416.24" rx="193.89" ry="11.32" style="fill:#f5f5f5"></ellipse></g><g id="freepik--character-2--inject-13"><path d="M297.55,274.87s-3,8.08-1.84,14.83,17.83,0,17.83,0l-1.23-8.59s-8.53,4.83-10.51,4.71-.4-10.75-.4-10.75Z" style="fill:#ebb376"></path><path d="M350.08,289.35s7.49,7.82,9.83,8.24,5.26-11.15,5.26-11.15l2.12-2.83s3.16,14.13-2.4,19.45-18-3.23-18-3.23Z" style="fill:#ebb376"></path><path d="M282.15,328.11a.48.48,0,0,1-.19-.65c.81-1.51,1.6-3,2.37-4.55a.47.47,0,1,1,.84.43q-1.17,2.3-2.38,4.57A.48.48,0,0,1,282.15,328.11Z"></path><path d="M283.78,325c-1-.54-1.24-2.13-.48-3.63s2.16-2.26,3.2-1.75,1.28,2.12.51,3.64S284.82,325.56,283.78,325Zm2.3-4.52c-.49-.24-1.4.24-1.95,1.32s-.39,2.1.09,2.35,1.4-.23,1.95-1.32S286.56,320.75,286.08,320.5Z"></path><path d="M285.48,321.7a.48.48,0,0,1-.21-.64q1.16-2.3,2.27-4.6a.47.47,0,1,1,.84.41q-1.11,2.31-2.27,4.61A.47.47,0,0,1,285.48,321.7Z"></path><path d="M287,318.57c-1-.51-1.29-2.1-.57-3.61s2.11-2.31,3.17-1.82,1.33,2.09.59,3.62S288.08,319.09,287,318.57Zm2.19-4.56c-.49-.23-1.39.28-1.91,1.36s-.34,2.1.14,2.34,1.4-.26,1.93-1.35S289.71,314.24,289.22,314Z"></path><path d="M288.65,315.22a.49.49,0,0,1-.22-.64q1.1-2.31,2.16-4.64a.47.47,0,1,1,.86.39c-.71,1.55-1.43,3.11-2.17,4.66A.47.47,0,0,1,288.65,315.22Z"></path><path d="M290.13,312.06c-1.06-.49-1.34-2.07-.65-3.59s2-2.36,3.13-1.89,1.37,2.05.67,3.6S291.19,312.55,290.13,312.06Zm2.09-4.61c-.5-.21-1.39.31-1.88,1.41s-.3,2.11.19,2.33,1.4-.29,1.89-1.39S292.71,307.67,292.22,307.45Z"></path><path d="M291.68,308.67a.47.47,0,0,1-.24-.63q1.05-2.34,2.05-4.69a.47.47,0,0,1,.62-.25.46.46,0,0,1,.24.62c-.67,1.58-1.35,3.14-2.05,4.71A.47.47,0,0,1,291.68,308.67Z"></path><path d="M293.08,305.49c-1.07-.47-1.38-2-.73-3.58s2-2.4,3.08-2,1.42,2,.76,3.59S294.15,306,293.08,305.49Zm2-4.65c-.5-.21-1.38.33-1.85,1.44s-.24,2.11.25,2.33,1.39-.32,1.86-1.44S295.56,301,295.06,300.84Z"></path><path d="M294.55,302.07a.48.48,0,0,1-.25-.63c.66-1.57,1.3-3.15,1.94-4.73a.47.47,0,0,1,.61-.27.48.48,0,0,1,.26.62c-.64,1.59-1.28,3.17-1.94,4.75A.48.48,0,0,1,294.55,302.07Z"></path><path d="M295.88,298.85c-1.08-.44-1.44-2-.82-3.56s1.94-2.44,3-2,1.47,2,.85,3.56S297,299.29,295.88,298.85Zm1.87-4.69c-.51-.2-1.37.37-1.81,1.48s-.2,2.12.3,2.32,1.38-.35,1.82-1.47S298.25,294.36,297.75,294.16Z"></path><path d="M297.26,295.4a.48.48,0,0,1-.26-.62c.62-1.58,1.23-3.18,1.83-4.77a.46.46,0,0,1,.61-.28.47.47,0,0,1,.27.61c-.6,1.6-1.21,3.19-1.83,4.79A.49.49,0,0,1,297.26,295.4Z"></path><path d="M298.52,292.16c-1.09-.42-1.48-2-.9-3.54s1.89-2.49,3-2.09,1.51,2,.92,3.54S299.61,292.57,298.52,292.16Zm1.76-4.73c-.51-.19-1.36.4-1.77,1.52s-.16,2.12.35,2.31,1.37-.38,1.79-1.52S300.79,287.61,300.28,287.43Z"></path><path d="M299.82,288.68a.48.48,0,0,1-.27-.62c.58-1.59,1.16-3.2,1.72-4.81a.46.46,0,0,1,.6-.29.48.48,0,0,1,.29.6c-.57,1.62-1.14,3.22-1.73,4.83A.48.48,0,0,1,299.82,288.68Z"></path><path d="M301,285.41c-1.1-.39-1.52-1.94-1-3.52s1.83-2.53,2.94-2.16,1.55,1.92,1,3.52S302.11,285.8,301,285.41Zm1.65-4.77c-.51-.17-1.35.43-1.74,1.56s-.1,2.13.41,2.31,1.36-.42,1.75-1.56S303.17,280.81,302.66,280.64Z"></path><path d="M302.23,281.9a.49.49,0,0,1-.29-.61q.82-2.42,1.61-4.84a.47.47,0,1,1,.9.29q-.79,2.43-1.62,4.86A.47.47,0,0,1,302.23,281.9Z"></path><path d="M303.34,278.61c-1.11-.37-1.57-1.9-1.06-3.49s1.77-2.57,2.89-2.23,1.6,1.88,1.08,3.5S304.45,279,303.34,278.61Zm1.54-4.81c-.51-.16-1.34.46-1.7,1.6s-.06,2.13.46,2.3,1.35-.45,1.72-1.6S305.4,274,304.88,273.8Z"></path><path d="M304.48,275.07a.48.48,0,0,1-.3-.6q.76-2.43,1.5-4.88a.46.46,0,0,1,.58-.32.48.48,0,0,1,.32.59q-.74,2.46-1.5,4.9A.48.48,0,0,1,304.48,275.07Z"></path><path d="M305.52,271.75c-1.12-.34-1.61-1.86-1.14-3.46s1.71-2.61,2.83-2.29,1.65,1.84,1.17,3.47S306.63,272.09,305.52,271.75Zm1.43-4.83c-.52-.15-1.33.48-1.67,1.64s0,2.12.51,2.28,1.34-.48,1.69-1.64S307.47,267.06,307,266.92Z"></path><path d="M306.58,268.19a.47.47,0,0,1-.32-.59q.72-2.44,1.39-4.91a.47.47,0,1,1,.9.25c-.45,1.64-.91,3.29-1.38,4.93A.47.47,0,0,1,306.58,268.19Z"></path><path d="M307.54,264.85c-1.13-.31-1.66-1.82-1.22-3.43s1.65-2.65,2.78-2.36,1.69,1.81,1.24,3.44S308.66,265.17,307.54,264.85Zm1.32-4.86c-.52-.14-1.32.52-1.63,1.67s0,2.13.56,2.27,1.33-.5,1.65-1.67S309.38,260.12,308.86,260Z"></path><path d="M308.52,261.27a.47.47,0,0,1-.33-.58c.43-1.65.86-3.29,1.27-4.95a.47.47,0,1,1,.91.23c-.41,1.66-.84,3.31-1.27,5A.47.47,0,0,1,308.52,261.27Z"></path><path d="M309.4,257.91c-1.14-.29-1.7-1.79-1.3-3.41s1.59-2.69,2.73-2.42,1.73,1.77,1.32,3.42S310.53,258.2,309.4,257.91Zm1.21-4.9c-.53-.12-1.31.55-1.59,1.72s.09,2.12.61,2.25,1.32-.53,1.61-1.71S311.13,253.14,310.61,253Z"></path><path d="M310.3,254.31a.48.48,0,0,1-.35-.58q.6-2.47,1.16-5a.49.49,0,0,1,.57-.37.47.47,0,0,1,.35.57q-.55,2.5-1.16,5A.48.48,0,0,1,310.3,254.31Z"></path><path d="M311.1,250.92c-1.14-.26-1.73-1.74-1.37-3.37s1.53-2.73,2.67-2.49,1.77,1.73,1.4,3.39S312.24,251.19,311.1,250.92Zm1.1-4.92c-.53-.11-1.29.58-1.55,1.75s.14,2.12.66,2.24,1.31-.56,1.57-1.75S312.73,246.11,312.2,246Z"></path><path d="M311.92,247.3a.47.47,0,0,1-.36-.57q.54-2.49,1.05-5a.47.47,0,0,1,.55-.38.48.48,0,0,1,.37.57q-.51,2.51-1,5A.47.47,0,0,1,311.92,247.3Z"></path><path d="M312.64,243.9c-1.14-.24-1.77-1.71-1.44-3.35s1.46-2.76,2.61-2.54,1.81,1.69,1.48,3.35S313.79,244.14,312.64,243.9Zm1-5c-.53-.1-1.28.61-1.51,1.78s.19,2.12.72,2.23,1.29-.59,1.52-1.78S314.16,239.05,313.63,239Z"></path><path d="M313.38,240.26a.48.48,0,0,1-.37-.56c.32-1.68.63-3.35.93-5a.47.47,0,1,1,.93.16c-.3,1.69-.61,3.37-.94,5A.47.47,0,0,1,313.38,240.26Z"></path><path d="M314,236.84c-1.15-.21-1.81-1.67-1.53-3.32s1.41-2.79,2.56-2.6,1.84,1.65,1.55,3.32S315.18,237.05,314,236.84Zm.87-5c-.53-.08-1.26.64-1.47,1.82s.24,2.12.77,2.22,1.28-.63,1.48-1.82S315.44,232,314.9,231.86Z"></path><path d="M314.68,233.18a.47.47,0,0,1-.38-.55c.28-1.68.56-3.37.82-5a.47.47,0,0,1,.53-.41.48.48,0,0,1,.4.55c-.26,1.69-.54,3.38-.82,5.06A.48.48,0,0,1,314.68,233.18Z"></path><path d="M315.25,229.74c-1.15-.18-1.85-1.62-1.6-3.28s1.34-2.82,2.5-2.66,1.88,1.6,1.63,3.28S316.4,229.93,315.25,229.74Zm.76-5c-.53-.08-1.25.66-1.43,1.85s.29,2.11.82,2.2,1.26-.66,1.44-1.86S316.55,224.82,316,224.75Z"></path><path d="M315.82,226.07a.49.49,0,0,1-.4-.55c.25-1.68.49-3.37.71-5.07a.47.47,0,1,1,.93.12c-.22,1.7-.46,3.4-.7,5.09A.49.49,0,0,1,315.82,226.07Z"></path><path d="M316.31,222.62c-1.16-.16-1.88-1.59-1.67-3.25s1.27-2.86,2.43-2.72,1.92,1.56,1.71,3.25S317.47,222.78,316.31,222.62Zm.65-5c-.54-.06-1.23.7-1.39,1.89s.34,2.11.87,2.18,1.25-.69,1.4-1.89S317.5,217.67,317,217.6Z"></path><path d="M316.8,218.93a.49.49,0,0,1-.41-.54c.21-1.69.41-3.39.59-5.09a.49.49,0,0,1,.52-.43.47.47,0,0,1,.41.53c-.18,1.71-.38,3.41-.59,5.11A.47.47,0,0,1,316.8,218.93Z"></path><path d="M317.21,215.46c-1.16-.13-1.92-1.54-1.75-3.21s1.21-2.89,2.38-2.78,2,1.52,1.77,3.22S318.37,215.6,317.21,215.46Zm.53-5c-.53-.05-1.21.72-1.34,1.92s.38,2.1.92,2.16,1.23-.71,1.36-1.92S318.28,210.48,317.74,210.43Z"></path><path d="M317.61,211.76a.48.48,0,0,1-.42-.53c.17-1.7.33-3.4.47-5.1a.47.47,0,1,1,.94.08c-.14,1.7-.3,3.41-.47,5.12A.49.49,0,0,1,317.61,211.76Z"></path><path d="M318,208.29c-1.17-.11-2-1.51-1.82-3.18s1.14-2.92,2.31-2.84,2,1.48,1.84,3.18S319.11,208.39,318,208.29Zm.42-5.06c-.54,0-1.21.76-1.3,2s.42,2.09,1,2.14,1.22-.74,1.32-2S318.9,203.27,318.37,203.23Z"></path><path d="M318.26,204.57a.47.47,0,0,1-.43-.52c.13-1.71.25-3.41.36-5.12a.47.47,0,0,1,.5-.45.47.47,0,0,1,.44.51q-.17,2.56-.36,5.13A.48.48,0,0,1,318.26,204.57Z"></path><path d="M318.52,201.08c-1.17-.08-2-1.45-1.89-3.13s1.07-2.95,2.24-2.89,2,1.43,1.92,3.13S319.68,201.17,318.52,201.08Zm.3-5.06c-.54,0-1.18.78-1.25,2s.47,2.09,1,2.12,1.2-.77,1.27-2S319.36,196,318.82,196Z"></path><path d="M318.75,197.35a.46.46,0,0,1-.44-.5c.09-1.71.17-3.43.23-5.14a.48.48,0,1,1,.95,0c-.07,1.72-.15,3.43-.24,5.15A.48.48,0,0,1,318.75,197.35Z"></path><path d="M318.93,193.86c-1.17-.05-2-1.41-2-3.09s1-3,2.18-3,2.05,1.39,2,3.09S320.09,193.91,318.93,193.86Zm.18-5.08c-.54,0-1.16.81-1.21,2s.53,2.07,1.07,2.1,1.18-.8,1.22-2S319.65,188.8,319.11,188.78Z"></path><path d="M319.07,190.12a.47.47,0,0,1-.45-.49c.05-1.72.09-3.43.12-5.15a.47.47,0,0,1,.47-.48.49.49,0,0,1,.47.49c0,1.72-.07,3.45-.12,5.16A.48.48,0,0,1,319.07,190.12Z"></path><path d="M337.15,343.93c-1-.61-1.09-2.21-.22-3.66s2.31-2.12,3.32-1.53,1.13,2.2.26,3.67S338.15,344.54,337.15,343.93Zm2.62-4.36c-.47-.28-1.42.15-2,1.18s-.54,2.08-.08,2.36,1.42-.14,2.05-1.18S340.23,339.84,339.77,339.57Z"></path><path d="M339.08,340.72a.48.48,0,0,1-.16-.65q1.32-2.22,2.59-4.45a.47.47,0,0,1,.64-.19.48.48,0,0,1,.18.65c-.86,1.5-1.72,3-2.6,4.47A.47.47,0,0,1,339.08,340.72Z"></path><path d="M340.85,337.7c-1-.59-1.14-2.18-.31-3.65s2.27-2.17,3.29-1.61,1.18,2.18.34,3.66S341.87,338.29,340.85,337.7Zm2.51-4.42c-.47-.26-1.4.18-2,1.23s-.49,2.09,0,2.36,1.41-.17,2-1.23S343.84,333.55,343.36,333.28Z"></path><path d="M342.71,334.45a.48.48,0,0,1-.18-.65q1.26-2.24,2.48-4.5a.48.48,0,0,1,.64-.2.47.47,0,0,1,.19.65c-.82,1.51-1.64,3-2.48,4.51A.47.47,0,0,1,342.71,334.45Z"></path><path d="M344.41,331.4c-1-.57-1.19-2.16-.4-3.64s2.21-2.22,3.25-1.68,1.23,2.14.42,3.65S345.43,332,344.41,331.4Zm2.4-4.47c-.48-.25-1.4.21-2,1.27s-.45,2.09,0,2.35,1.41-.2,2-1.27S347.29,327.18,346.81,326.93Z"></path><path d="M346.19,328.11a.47.47,0,0,1-.19-.65c.8-1.51,1.59-3,2.37-4.55a.47.47,0,1,1,.83.43q-1.17,2.3-2.37,4.57A.48.48,0,0,1,346.19,328.11Z"></path><path d="M347.81,325c-1-.54-1.24-2.13-.48-3.63s2.16-2.26,3.21-1.75,1.28,2.12.51,3.64S348.85,325.56,347.81,325Zm2.3-4.52c-.48-.24-1.4.24-1.94,1.32s-.4,2.1.08,2.35,1.41-.23,2-1.32S350.59,320.75,350.11,320.5Z"></path><path d="M349.51,321.7a.48.48,0,0,1-.2-.64c.76-1.53,1.52-3.06,2.26-4.6a.47.47,0,1,1,.85.41c-.75,1.54-1.5,3.08-2.27,4.61A.49.49,0,0,1,349.51,321.7Z"></path><path d="M351.06,318.57c-1.05-.51-1.29-2.1-.56-3.61s2.1-2.31,3.16-1.82,1.33,2.09.6,3.62S352.11,319.09,351.06,318.57Zm2.2-4.56c-.49-.23-1.4.28-1.91,1.36s-.35,2.1.14,2.34,1.39-.26,1.92-1.35S353.74,314.24,353.26,314Z"></path><path d="M352.68,315.22a.48.48,0,0,1-.21-.64q1.09-2.31,2.15-4.64a.47.47,0,1,1,.86.39c-.71,1.55-1.43,3.11-2.16,4.66A.49.49,0,0,1,352.68,315.22Z"></path><path d="M354.16,312.06c-1.06-.49-1.33-2.07-.65-3.59s2.06-2.36,3.13-1.89,1.37,2.05.68,3.6S355.23,312.55,354.16,312.06Zm2.09-4.61c-.49-.21-1.38.31-1.88,1.41s-.3,2.11.2,2.33,1.39-.29,1.89-1.39S356.74,307.67,356.25,307.45Z"></path><path d="M355.71,308.67a.48.48,0,0,1-.24-.63q1-2.34,2-4.69a.47.47,0,0,1,.87.37c-.67,1.58-1.36,3.14-2.06,4.71A.46.46,0,0,1,355.71,308.67Z"></path><path d="M357.11,305.49c-1.07-.47-1.38-2-.73-3.58s2-2.4,3.08-2,1.42,2,.76,3.59S358.19,306,357.11,305.49Zm2-4.65c-.5-.21-1.37.33-1.84,1.44s-.25,2.11.24,2.33,1.39-.32,1.86-1.44S359.59,301,359.09,300.84Z"></path><path d="M358.58,302.07a.49.49,0,0,1-.25-.63c.66-1.57,1.3-3.15,1.94-4.73a.47.47,0,1,1,.87.35q-.94,2.38-1.94,4.75A.48.48,0,0,1,358.58,302.07Z"></path><path d="M359.91,298.85c-1.08-.44-1.43-2-.82-3.56s2-2.44,3-2,1.47,2,.84,3.56S361,299.29,359.91,298.85Zm1.87-4.69c-.5-.2-1.37.37-1.81,1.48s-.2,2.12.3,2.32,1.38-.35,1.82-1.47S362.28,294.36,361.78,294.16Z"></path><path d="M361.29,295.4a.48.48,0,0,1-.26-.62c.62-1.58,1.23-3.18,1.83-4.77a.47.47,0,1,1,.88.33c-.6,1.6-1.21,3.19-1.83,4.79A.49.49,0,0,1,361.29,295.4Z"></path><path d="M362.55,292.16c-1.09-.42-1.48-2-.9-3.54s1.89-2.49,3-2.09,1.51,2,.92,3.54S363.64,292.57,362.55,292.16Zm1.76-4.73c-.5-.19-1.36.4-1.77,1.52s-.15,2.12.35,2.31,1.37-.38,1.79-1.52S364.82,287.61,364.31,287.43Z"></path><path d="M363.86,288.68a.48.48,0,0,1-.28-.62c.59-1.59,1.16-3.2,1.72-4.81a.47.47,0,1,1,.89.31c-.56,1.62-1.14,3.22-1.73,4.83A.47.47,0,0,1,363.86,288.68Z"></path><path d="M365,285.41c-1.1-.39-1.52-1.94-1-3.52s1.83-2.53,2.94-2.16,1.56,1.92,1,3.52S366.14,285.8,365,285.41Zm1.65-4.77c-.51-.17-1.35.43-1.74,1.56s-.1,2.13.41,2.31,1.36-.42,1.75-1.56S367.2,280.81,366.69,280.64Z"></path><path d="M366.26,281.9a.49.49,0,0,1-.29-.61q.82-2.42,1.61-4.84a.47.47,0,1,1,.9.29c-.53,1.62-1.06,3.24-1.62,4.86A.47.47,0,0,1,366.26,281.9Z"></path><path d="M367.37,278.61c-1.11-.37-1.56-1.9-1.06-3.49s1.77-2.57,2.89-2.23,1.6,1.88,1.09,3.5S368.48,279,367.37,278.61Zm1.55-4.81c-.52-.16-1.34.46-1.71,1.6s0,2.13.46,2.3,1.35-.45,1.72-1.6S369.43,274,368.92,273.8Z"></path><path d="M368.52,275.07a.47.47,0,0,1-.31-.6q.77-2.43,1.5-4.88a.47.47,0,0,1,.59-.32.46.46,0,0,1,.31.59q-.74,2.46-1.5,4.9A.47.47,0,0,1,368.52,275.07Z"></path><path d="M369.55,271.75c-1.12-.34-1.61-1.86-1.14-3.46s1.71-2.61,2.84-2.29,1.64,1.84,1.16,3.47S370.67,272.09,369.55,271.75Zm1.43-4.83c-.52-.15-1.33.48-1.67,1.64s0,2.12.52,2.28,1.34-.48,1.68-1.64S371.5,267.06,371,266.92Z"></path><path d="M370.61,268.19a.47.47,0,0,1-.32-.59q.72-2.44,1.39-4.91a.47.47,0,1,1,.91.25c-.45,1.64-.92,3.29-1.39,4.93A.47.47,0,0,1,370.61,268.19Z"></path><path d="M371.57,264.85c-1.13-.31-1.65-1.82-1.22-3.43s1.65-2.65,2.78-2.36,1.69,1.81,1.25,3.44S372.69,265.17,371.57,264.85Zm1.32-4.86c-.52-.14-1.32.52-1.63,1.67s0,2.13.56,2.27,1.33-.5,1.65-1.67S373.41,260.12,372.89,260Z"></path><path d="M372.55,261.27a.47.47,0,0,1-.33-.58c.44-1.65.86-3.29,1.27-4.95a.48.48,0,0,1,.57-.35.47.47,0,0,1,.34.58q-.61,2.49-1.27,5A.47.47,0,0,1,372.55,261.27Z"></path><path d="M373.43,257.91c-1.13-.29-1.69-1.79-1.29-3.41s1.58-2.69,2.72-2.42,1.73,1.77,1.32,3.42S374.56,258.2,373.43,257.91Zm1.21-4.9c-.52-.12-1.3.55-1.59,1.72s.09,2.12.62,2.25,1.31-.53,1.6-1.71S375.17,253.14,374.64,253Z"></path><path d="M374.33,254.31a.49.49,0,0,1-.35-.58q.6-2.47,1.16-5a.49.49,0,0,1,.57-.37.47.47,0,0,1,.35.57q-.56,2.5-1.16,5A.48.48,0,0,1,374.33,254.31Z"></path><path d="M375.13,250.92c-1.14-.26-1.73-1.74-1.37-3.37s1.53-2.73,2.67-2.49,1.77,1.73,1.4,3.39S376.27,251.19,375.13,250.92Zm1.1-4.92c-.53-.11-1.29.58-1.55,1.75s.14,2.12.67,2.24,1.3-.56,1.56-1.75S376.76,246.11,376.23,246Z"></path><path d="M376,247.3a.48.48,0,0,1-.36-.57q.54-2.49,1.05-5a.47.47,0,0,1,.55-.38.48.48,0,0,1,.37.57q-.49,2.51-1.05,5A.47.47,0,0,1,376,247.3Z"></path><path d="M376.68,243.9c-1.15-.24-1.78-1.71-1.45-3.35s1.46-2.76,2.61-2.54,1.81,1.69,1.48,3.35S377.82,244.14,376.68,243.9Zm1-5c-.53-.1-1.28.61-1.51,1.78s.19,2.12.72,2.23,1.29-.59,1.53-1.78S378.2,239.05,377.66,239Z"></path><path d="M377.41,240.26a.48.48,0,0,1-.37-.56c.33-1.68.64-3.35.93-5a.48.48,0,0,1,.55-.39.47.47,0,0,1,.38.55c-.3,1.69-.61,3.37-.93,5A.48.48,0,0,1,377.41,240.26Z"></path><path d="M378.06,236.84c-1.15-.21-1.81-1.67-1.52-3.32s1.4-2.79,2.55-2.6,1.85,1.65,1.55,3.32S379.21,237.05,378.06,236.84Zm.88-5c-.54-.08-1.27.64-1.48,1.82s.24,2.12.77,2.22,1.28-.63,1.49-1.82S379.47,232,378.94,231.86Z"></path><path d="M378.71,233.18a.48.48,0,0,1-.38-.55c.29-1.68.56-3.37.82-5a.47.47,0,0,1,.54-.41.48.48,0,0,1,.39.55c-.26,1.69-.54,3.38-.82,5.06A.48.48,0,0,1,378.71,233.18Z"></path><path d="M379.28,229.74c-1.15-.18-1.84-1.62-1.6-3.28s1.34-2.82,2.5-2.66,1.88,1.6,1.63,3.28S380.44,229.93,379.28,229.74Zm.77-5c-.54-.08-1.26.66-1.43,1.85s.28,2.11.81,2.2,1.27-.66,1.45-1.86S380.58,224.82,380.05,224.75Z"></path><path d="M379.85,226.07a.48.48,0,0,1-.39-.55c.24-1.68.48-3.37.7-5.07a.47.47,0,0,1,.53-.41.46.46,0,0,1,.4.53c-.22,1.7-.45,3.4-.7,5.09A.49.49,0,0,1,379.85,226.07Z"></path><path d="M380.34,222.62c-1.15-.16-1.88-1.59-1.67-3.25s1.27-2.86,2.44-2.72,1.91,1.56,1.7,3.25S381.5,222.78,380.34,222.62Zm.65-5c-.53-.06-1.23.7-1.38,1.89s.33,2.11.86,2.18,1.25-.69,1.4-1.89S381.53,217.67,381,217.6Z"></path><path d="M380.83,218.93a.49.49,0,0,1-.41-.54c.21-1.69.41-3.39.59-5.09a.47.47,0,1,1,.94.1c-.19,1.71-.38,3.41-.59,5.11A.49.49,0,0,1,380.83,218.93Z"></path><path d="M381.24,215.46c-1.16-.13-1.92-1.54-1.74-3.21s1.21-2.89,2.37-2.78,1.95,1.52,1.77,3.22S382.41,215.6,381.24,215.46Zm.54-5c-.54-.05-1.22.72-1.35,1.92s.38,2.1.92,2.16,1.23-.71,1.36-1.92S382.32,210.48,381.78,210.43Z"></path><path d="M381.64,211.76a.49.49,0,0,1-.42-.53c.18-1.7.33-3.4.48-5.1a.47.47,0,0,1,.51-.44.47.47,0,0,1,.42.52c-.14,1.7-.3,3.41-.47,5.12A.49.49,0,0,1,381.64,211.76Z"></path><path d="M382,208.29c-1.17-.11-2-1.51-1.82-3.18s1.14-2.92,2.31-2.84,2,1.48,1.85,3.18S383.14,208.39,382,208.29Zm.42-5.06c-.54,0-1.2.76-1.3,2s.43,2.09,1,2.14,1.21-.74,1.31-2S382.94,203.27,382.4,203.23Z"></path><path d="M382.3,204.57a.48.48,0,0,1-.44-.52c.14-1.71.25-3.41.36-5.12a.47.47,0,1,1,.94.06q-.17,2.56-.36,5.13A.48.48,0,0,1,382.3,204.57Z"></path><path d="M382.55,201.08c-1.17-.08-2-1.45-1.89-3.13s1.07-2.95,2.24-2.89,2,1.43,1.92,3.13S383.72,201.17,382.55,201.08Zm.3-5.06c-.54,0-1.18.78-1.25,2s.48,2.09,1,2.12,1.19-.77,1.26-2S383.39,196,382.85,196Z"></path><path d="M382.78,197.35a.46.46,0,0,1-.44-.5c.09-1.71.17-3.43.24-5.14a.48.48,0,0,1,.49-.46.47.47,0,0,1,.45.5c-.07,1.72-.15,3.43-.24,5.15A.48.48,0,0,1,382.78,197.35Z"></path><path d="M383,193.86c-1.17-.05-2-1.41-2-3.09s1-3,2.17-3,2.05,1.39,2,3.09S384.13,193.91,383,193.86Zm.19-5.08c-.55,0-1.17.81-1.21,2s.52,2.07,1.06,2.1,1.18-.8,1.22-2S383.69,188.8,383.15,188.78Z"></path><path d="M383.1,190.12a.47.47,0,0,1-.45-.49c.05-1.72.09-3.43.12-5.15a.47.47,0,1,1,.94,0c0,1.72-.07,3.45-.12,5.16A.48.48,0,0,1,383.1,190.12Z"></path><g style="opacity:0.5;isolation:isolate"><path d="M282.15,328.11a.48.48,0,0,1-.19-.65c.81-1.51,1.6-3,2.37-4.55a.47.47,0,1,1,.84.43q-1.17,2.3-2.38,4.57A.48.48,0,0,1,282.15,328.11Z" style="fill:#fff"></path><path d="M283.78,325c-1-.54-1.24-2.13-.48-3.63s2.16-2.26,3.2-1.75,1.28,2.12.51,3.64S284.82,325.56,283.78,325Zm2.3-4.52c-.49-.24-1.4.24-1.95,1.32s-.39,2.1.09,2.35,1.4-.23,1.95-1.32S286.56,320.75,286.08,320.5Z" style="fill:#fff"></path><path d="M285.48,321.7a.48.48,0,0,1-.21-.64q1.16-2.3,2.27-4.6a.47.47,0,1,1,.84.41q-1.11,2.31-2.27,4.61A.47.47,0,0,1,285.48,321.7Z" style="fill:#fff"></path><path d="M287,318.57c-1-.51-1.29-2.1-.57-3.61s2.11-2.31,3.17-1.82,1.33,2.09.59,3.62S288.08,319.09,287,318.57Zm2.19-4.56c-.49-.23-1.39.28-1.91,1.36s-.34,2.1.14,2.34,1.4-.26,1.93-1.35S289.71,314.24,289.22,314Z" style="fill:#fff"></path><path d="M288.65,315.22a.49.49,0,0,1-.22-.64q1.1-2.31,2.16-4.64a.47.47,0,1,1,.86.39c-.71,1.55-1.43,3.11-2.17,4.66A.47.47,0,0,1,288.65,315.22Z" style="fill:#fff"></path><path d="M290.13,312.06c-1.06-.49-1.34-2.07-.65-3.59s2-2.36,3.13-1.89,1.37,2.05.67,3.6S291.19,312.55,290.13,312.06Zm2.09-4.61c-.5-.21-1.39.31-1.88,1.41s-.3,2.11.19,2.33,1.4-.29,1.89-1.39S292.71,307.67,292.22,307.45Z" style="fill:#fff"></path><path d="M291.68,308.67a.47.47,0,0,1-.24-.63q1.05-2.34,2.05-4.69a.47.47,0,0,1,.62-.25.46.46,0,0,1,.24.62c-.67,1.58-1.35,3.14-2.05,4.71A.47.47,0,0,1,291.68,308.67Z" style="fill:#fff"></path><path d="M293.08,305.49c-1.07-.47-1.38-2-.73-3.58s2-2.4,3.08-2,1.42,2,.76,3.59S294.15,306,293.08,305.49Zm2-4.65c-.5-.21-1.38.33-1.85,1.44s-.24,2.11.25,2.33,1.39-.32,1.86-1.44S295.56,301,295.06,300.84Z" style="fill:#fff"></path><path d="M294.55,302.07a.48.48,0,0,1-.25-.63c.66-1.57,1.3-3.15,1.94-4.73a.47.47,0,0,1,.61-.27.48.48,0,0,1,.26.62c-.64,1.59-1.28,3.17-1.94,4.75A.48.48,0,0,1,294.55,302.07Z" style="fill:#fff"></path><path d="M295.88,298.85c-1.08-.44-1.44-2-.82-3.56s1.94-2.44,3-2,1.47,2,.85,3.56S297,299.29,295.88,298.85Zm1.87-4.69c-.51-.2-1.37.37-1.81,1.48s-.2,2.12.3,2.32,1.38-.35,1.82-1.47S298.25,294.36,297.75,294.16Z" style="fill:#fff"></path><path d="M297.26,295.4a.48.48,0,0,1-.26-.62c.62-1.58,1.23-3.18,1.83-4.77a.46.46,0,0,1,.61-.28.47.47,0,0,1,.27.61c-.6,1.6-1.21,3.19-1.83,4.79A.49.49,0,0,1,297.26,295.4Z" style="fill:#fff"></path><path d="M298.52,292.16c-1.09-.42-1.48-2-.9-3.54s1.89-2.49,3-2.09,1.51,2,.92,3.54S299.61,292.57,298.52,292.16Zm1.76-4.73c-.51-.19-1.36.4-1.77,1.52s-.16,2.12.35,2.31,1.37-.38,1.79-1.52S300.79,287.61,300.28,287.43Z" style="fill:#fff"></path><path d="M299.82,288.68a.48.48,0,0,1-.27-.62c.58-1.59,1.16-3.2,1.72-4.81a.46.46,0,0,1,.6-.29.48.48,0,0,1,.29.6c-.57,1.62-1.14,3.22-1.73,4.83A.48.48,0,0,1,299.82,288.68Z" style="fill:#fff"></path><path d="M301,285.41c-1.1-.39-1.52-1.94-1-3.52s1.83-2.53,2.94-2.16,1.55,1.92,1,3.52S302.11,285.8,301,285.41Zm1.65-4.77c-.51-.17-1.35.43-1.74,1.56s-.1,2.13.41,2.31,1.36-.42,1.75-1.56S303.17,280.81,302.66,280.64Z" style="fill:#fff"></path><path d="M302.23,281.9a.49.49,0,0,1-.29-.61q.82-2.42,1.61-4.84a.47.47,0,1,1,.9.29q-.79,2.43-1.62,4.86A.47.47,0,0,1,302.23,281.9Z" style="fill:#fff"></path><path d="M303.34,278.61c-1.11-.37-1.57-1.9-1.06-3.49s1.77-2.57,2.89-2.23,1.6,1.88,1.08,3.5S304.45,279,303.34,278.61Zm1.54-4.81c-.51-.16-1.34.46-1.7,1.6s-.06,2.13.46,2.3,1.35-.45,1.72-1.6S305.4,274,304.88,273.8Z" style="fill:#fff"></path><path d="M304.48,275.07a.48.48,0,0,1-.3-.6q.76-2.43,1.5-4.88a.46.46,0,0,1,.58-.32.48.48,0,0,1,.32.59q-.74,2.46-1.5,4.9A.48.48,0,0,1,304.48,275.07Z" style="fill:#fff"></path><path d="M305.52,271.75c-1.12-.34-1.61-1.86-1.14-3.46s1.71-2.61,2.83-2.29,1.65,1.84,1.17,3.47S306.63,272.09,305.52,271.75Zm1.43-4.83c-.52-.15-1.33.48-1.67,1.64s0,2.12.51,2.28,1.34-.48,1.69-1.64S307.47,267.06,307,266.92Z" style="fill:#fff"></path><path d="M306.58,268.19a.47.47,0,0,1-.32-.59q.72-2.44,1.39-4.91a.47.47,0,1,1,.9.25c-.45,1.64-.91,3.29-1.38,4.93A.47.47,0,0,1,306.58,268.19Z" style="fill:#fff"></path><path d="M307.54,264.85c-1.13-.31-1.66-1.82-1.22-3.43s1.65-2.65,2.78-2.36,1.69,1.81,1.24,3.44S308.66,265.17,307.54,264.85Zm1.32-4.86c-.52-.14-1.32.52-1.63,1.67s0,2.13.56,2.27,1.33-.5,1.65-1.67S309.38,260.12,308.86,260Z" style="fill:#fff"></path><path d="M308.52,261.27a.47.47,0,0,1-.33-.58c.43-1.65.86-3.29,1.27-4.95a.47.47,0,1,1,.91.23c-.41,1.66-.84,3.31-1.27,5A.47.47,0,0,1,308.52,261.27Z" style="fill:#fff"></path><path d="M309.4,257.91c-1.14-.29-1.7-1.79-1.3-3.41s1.59-2.69,2.73-2.42,1.73,1.77,1.32,3.42S310.53,258.2,309.4,257.91Zm1.21-4.9c-.53-.12-1.31.55-1.59,1.72s.09,2.12.61,2.25,1.32-.53,1.61-1.71S311.13,253.14,310.61,253Z" style="fill:#fff"></path><path d="M310.3,254.31a.48.48,0,0,1-.35-.58q.6-2.47,1.16-5a.49.49,0,0,1,.57-.37.47.47,0,0,1,.35.57q-.55,2.5-1.16,5A.48.48,0,0,1,310.3,254.31Z" style="fill:#fff"></path><path d="M311.1,250.92c-1.14-.26-1.73-1.74-1.37-3.37s1.53-2.73,2.67-2.49,1.77,1.73,1.4,3.39S312.24,251.19,311.1,250.92Zm1.1-4.92c-.53-.11-1.29.58-1.55,1.75s.14,2.12.66,2.24,1.31-.56,1.57-1.75S312.73,246.11,312.2,246Z" style="fill:#fff"></path><path d="M311.92,247.3a.47.47,0,0,1-.36-.57q.54-2.49,1.05-5a.47.47,0,0,1,.55-.38.48.48,0,0,1,.37.57q-.51,2.51-1,5A.47.47,0,0,1,311.92,247.3Z" style="fill:#fff"></path><path d="M312.64,243.9c-1.14-.24-1.77-1.71-1.44-3.35s1.46-2.76,2.61-2.54,1.81,1.69,1.48,3.35S313.79,244.14,312.64,243.9Zm1-5c-.53-.1-1.28.61-1.51,1.78s.19,2.12.72,2.23,1.29-.59,1.52-1.78S314.16,239.05,313.63,239Z" style="fill:#fff"></path><path d="M313.38,240.26a.48.48,0,0,1-.37-.56c.32-1.68.63-3.35.93-5a.47.47,0,1,1,.93.16c-.3,1.69-.61,3.37-.94,5A.47.47,0,0,1,313.38,240.26Z" style="fill:#fff"></path><path d="M314,236.84c-1.15-.21-1.81-1.67-1.53-3.32s1.41-2.79,2.56-2.6,1.84,1.65,1.55,3.32S315.18,237.05,314,236.84Zm.87-5c-.53-.08-1.26.64-1.47,1.82s.24,2.12.77,2.22,1.28-.63,1.48-1.82S315.44,232,314.9,231.86Z" style="fill:#fff"></path><path d="M314.68,233.18a.47.47,0,0,1-.38-.55c.28-1.68.56-3.37.82-5a.47.47,0,0,1,.53-.41.48.48,0,0,1,.4.55c-.26,1.69-.54,3.38-.82,5.06A.48.48,0,0,1,314.68,233.18Z" style="fill:#fff"></path><path d="M315.25,229.74c-1.15-.18-1.85-1.62-1.6-3.28s1.34-2.82,2.5-2.66,1.88,1.6,1.63,3.28S316.4,229.93,315.25,229.74Zm.76-5c-.53-.08-1.25.66-1.43,1.85s.29,2.11.82,2.2,1.26-.66,1.44-1.86S316.55,224.82,316,224.75Z" style="fill:#fff"></path><path d="M315.82,226.07a.49.49,0,0,1-.4-.55c.25-1.68.49-3.37.71-5.07a.47.47,0,1,1,.93.12c-.22,1.7-.46,3.4-.7,5.09A.49.49,0,0,1,315.82,226.07Z" style="fill:#fff"></path><path d="M316.31,222.62c-1.16-.16-1.88-1.59-1.67-3.25s1.27-2.86,2.43-2.72,1.92,1.56,1.71,3.25S317.47,222.78,316.31,222.62Zm.65-5c-.54-.06-1.23.7-1.39,1.89s.34,2.11.87,2.18,1.25-.69,1.4-1.89S317.5,217.67,317,217.6Z" style="fill:#fff"></path><path d="M316.8,218.93a.49.49,0,0,1-.41-.54c.21-1.69.41-3.39.59-5.09a.49.49,0,0,1,.52-.43.47.47,0,0,1,.41.53c-.18,1.71-.38,3.41-.59,5.11A.47.47,0,0,1,316.8,218.93Z" style="fill:#fff"></path><path d="M317.21,215.46c-1.16-.13-1.92-1.54-1.75-3.21s1.21-2.89,2.38-2.78,2,1.52,1.77,3.22S318.37,215.6,317.21,215.46Zm.53-5c-.53-.05-1.21.72-1.34,1.92s.38,2.1.92,2.16,1.23-.71,1.36-1.92S318.28,210.48,317.74,210.43Z" style="fill:#fff"></path><path d="M317.61,211.76a.48.48,0,0,1-.42-.53c.17-1.7.33-3.4.47-5.1a.47.47,0,1,1,.94.08c-.14,1.7-.3,3.41-.47,5.12A.49.49,0,0,1,317.61,211.76Z" style="fill:#fff"></path><path d="M318,208.29c-1.17-.11-2-1.51-1.82-3.18s1.14-2.92,2.31-2.84,2,1.48,1.84,3.18S319.11,208.39,318,208.29Zm.42-5.06c-.54,0-1.21.76-1.3,2s.42,2.09,1,2.14,1.22-.74,1.32-2S318.9,203.27,318.37,203.23Z" style="fill:#fff"></path><path d="M318.26,204.57a.47.47,0,0,1-.43-.52c.13-1.71.25-3.41.36-5.12a.47.47,0,0,1,.5-.45.47.47,0,0,1,.44.51q-.17,2.56-.36,5.13A.48.48,0,0,1,318.26,204.57Z" style="fill:#fff"></path><path d="M318.52,201.08c-1.17-.08-2-1.45-1.89-3.13s1.07-2.95,2.24-2.89,2,1.43,1.92,3.13S319.68,201.17,318.52,201.08Zm.3-5.06c-.54,0-1.18.78-1.25,2s.47,2.09,1,2.12,1.2-.77,1.27-2S319.36,196,318.82,196Z" style="fill:#fff"></path><path d="M318.75,197.35a.46.46,0,0,1-.44-.5c.09-1.71.17-3.43.23-5.14a.48.48,0,1,1,.95,0c-.07,1.72-.15,3.43-.24,5.15A.48.48,0,0,1,318.75,197.35Z" style="fill:#fff"></path><path d="M318.93,193.86c-1.17-.05-2-1.41-2-3.09s1-3,2.18-3,2.05,1.39,2,3.09S320.09,193.91,318.93,193.86Zm.18-5.08c-.54,0-1.16.81-1.21,2s.53,2.07,1.07,2.1,1.18-.8,1.22-2S319.65,188.8,319.11,188.78Z" style="fill:#fff"></path><path d="M319.07,190.12a.47.47,0,0,1-.45-.49c.05-1.72.09-3.43.12-5.15a.47.47,0,0,1,.47-.48.49.49,0,0,1,.47.49c0,1.72-.07,3.45-.12,5.16A.48.48,0,0,1,319.07,190.12Z" style="fill:#fff"></path></g><g style="opacity:0.5;isolation:isolate"><path d="M337.15,343.93c-1-.61-1.09-2.21-.22-3.66s2.31-2.12,3.32-1.53,1.13,2.2.26,3.67S338.15,344.54,337.15,343.93Zm2.62-4.36c-.47-.28-1.42.15-2,1.18s-.54,2.08-.08,2.36,1.42-.14,2.05-1.18S340.23,339.84,339.77,339.57Z" style="fill:#fff"></path><path d="M339.08,340.72a.48.48,0,0,1-.16-.65q1.32-2.22,2.59-4.45a.47.47,0,0,1,.64-.19.48.48,0,0,1,.18.65c-.86,1.5-1.72,3-2.6,4.47A.47.47,0,0,1,339.08,340.72Z" style="fill:#fff"></path><path d="M340.85,337.7c-1-.59-1.14-2.18-.31-3.65s2.27-2.17,3.29-1.61,1.18,2.18.34,3.66S341.87,338.29,340.85,337.7Zm2.51-4.42c-.47-.26-1.4.18-2,1.23s-.49,2.09,0,2.36,1.41-.17,2-1.23S343.84,333.55,343.36,333.28Z" style="fill:#fff"></path><path d="M342.71,334.45a.48.48,0,0,1-.18-.65q1.26-2.24,2.48-4.5a.48.48,0,0,1,.64-.2.47.47,0,0,1,.19.65c-.82,1.51-1.64,3-2.48,4.51A.47.47,0,0,1,342.71,334.45Z" style="fill:#fff"></path><path d="M344.41,331.4c-1-.57-1.19-2.16-.4-3.64s2.21-2.22,3.25-1.68,1.23,2.14.42,3.65S345.43,332,344.41,331.4Zm2.4-4.47c-.48-.25-1.4.21-2,1.27s-.45,2.09,0,2.35,1.41-.2,2-1.27S347.29,327.18,346.81,326.93Z" style="fill:#fff"></path><path d="M346.19,328.11a.47.47,0,0,1-.19-.65c.8-1.51,1.59-3,2.37-4.55a.47.47,0,1,1,.83.43q-1.17,2.3-2.37,4.57A.48.48,0,0,1,346.19,328.11Z" style="fill:#fff"></path><path d="M347.81,325c-1-.54-1.24-2.13-.48-3.63s2.16-2.26,3.21-1.75,1.28,2.12.51,3.64S348.85,325.56,347.81,325Zm2.3-4.52c-.48-.24-1.4.24-1.94,1.32s-.4,2.1.08,2.35,1.41-.23,2-1.32S350.59,320.75,350.11,320.5Z" style="fill:#fff"></path><path d="M349.51,321.7a.48.48,0,0,1-.2-.64c.76-1.53,1.52-3.06,2.26-4.6a.47.47,0,1,1,.85.41c-.75,1.54-1.5,3.08-2.27,4.61A.49.49,0,0,1,349.51,321.7Z" style="fill:#fff"></path><path d="M351.06,318.57c-1.05-.51-1.29-2.1-.56-3.61s2.1-2.31,3.16-1.82,1.33,2.09.6,3.62S352.11,319.09,351.06,318.57Zm2.2-4.56c-.49-.23-1.4.28-1.91,1.36s-.35,2.1.14,2.34,1.39-.26,1.92-1.35S353.74,314.24,353.26,314Z" style="fill:#fff"></path><path d="M352.68,315.22a.48.48,0,0,1-.21-.64q1.09-2.31,2.15-4.64a.47.47,0,1,1,.86.39c-.71,1.55-1.43,3.11-2.16,4.66A.49.49,0,0,1,352.68,315.22Z" style="fill:#fff"></path><path d="M354.16,312.06c-1.06-.49-1.33-2.07-.65-3.59s2.06-2.36,3.13-1.89,1.37,2.05.68,3.6S355.23,312.55,354.16,312.06Zm2.09-4.61c-.49-.21-1.38.31-1.88,1.41s-.3,2.11.2,2.33,1.39-.29,1.89-1.39S356.74,307.67,356.25,307.45Z" style="fill:#fff"></path><path d="M355.71,308.67a.48.48,0,0,1-.24-.63q1-2.34,2-4.69a.47.47,0,0,1,.87.37c-.67,1.58-1.36,3.14-2.06,4.71A.46.46,0,0,1,355.71,308.67Z" style="fill:#fff"></path><path d="M357.11,305.49c-1.07-.47-1.38-2-.73-3.58s2-2.4,3.08-2,1.42,2,.76,3.59S358.19,306,357.11,305.49Zm2-4.65c-.5-.21-1.37.33-1.84,1.44s-.25,2.11.24,2.33,1.39-.32,1.86-1.44S359.59,301,359.09,300.84Z" style="fill:#fff"></path><path d="M358.58,302.07a.49.49,0,0,1-.25-.63c.66-1.57,1.3-3.15,1.94-4.73a.47.47,0,1,1,.87.35q-.94,2.38-1.94,4.75A.48.48,0,0,1,358.58,302.07Z" style="fill:#fff"></path><path d="M359.91,298.85c-1.08-.44-1.43-2-.82-3.56s2-2.44,3-2,1.47,2,.84,3.56S361,299.29,359.91,298.85Zm1.87-4.69c-.5-.2-1.37.37-1.81,1.48s-.2,2.12.3,2.32,1.38-.35,1.82-1.47S362.28,294.36,361.78,294.16Z" style="fill:#fff"></path><path d="M361.29,295.4a.48.48,0,0,1-.26-.62c.62-1.58,1.23-3.18,1.83-4.77a.47.47,0,1,1,.88.33c-.6,1.6-1.21,3.19-1.83,4.79A.49.49,0,0,1,361.29,295.4Z" style="fill:#fff"></path><path d="M362.55,292.16c-1.09-.42-1.48-2-.9-3.54s1.89-2.49,3-2.09,1.51,2,.92,3.54S363.64,292.57,362.55,292.16Zm1.76-4.73c-.5-.19-1.36.4-1.77,1.52s-.15,2.12.35,2.31,1.37-.38,1.79-1.52S364.82,287.61,364.31,287.43Z" style="fill:#fff"></path><path d="M363.86,288.68a.48.48,0,0,1-.28-.62c.59-1.59,1.16-3.2,1.72-4.81a.47.47,0,1,1,.89.31c-.56,1.62-1.14,3.22-1.73,4.83A.47.47,0,0,1,363.86,288.68Z" style="fill:#fff"></path><path d="M365,285.41c-1.1-.39-1.52-1.94-1-3.52s1.83-2.53,2.94-2.16,1.56,1.92,1,3.52S366.14,285.8,365,285.41Zm1.65-4.77c-.51-.17-1.35.43-1.74,1.56s-.1,2.13.41,2.31,1.36-.42,1.75-1.56S367.2,280.81,366.69,280.64Z" style="fill:#fff"></path><path d="M366.26,281.9a.49.49,0,0,1-.29-.61q.82-2.42,1.61-4.84a.47.47,0,1,1,.9.29c-.53,1.62-1.06,3.24-1.62,4.86A.47.47,0,0,1,366.26,281.9Z" style="fill:#fff"></path><path d="M367.37,278.61c-1.11-.37-1.56-1.9-1.06-3.49s1.77-2.57,2.89-2.23,1.6,1.88,1.09,3.5S368.48,279,367.37,278.61Zm1.55-4.81c-.52-.16-1.34.46-1.71,1.6s0,2.13.46,2.3,1.35-.45,1.72-1.6S369.43,274,368.92,273.8Z" style="fill:#fff"></path><path d="M368.52,275.07a.47.47,0,0,1-.31-.6q.77-2.43,1.5-4.88a.47.47,0,0,1,.59-.32.46.46,0,0,1,.31.59q-.74,2.46-1.5,4.9A.47.47,0,0,1,368.52,275.07Z" style="fill:#fff"></path><path d="M369.55,271.75c-1.12-.34-1.61-1.86-1.14-3.46s1.71-2.61,2.84-2.29,1.64,1.84,1.16,3.47S370.67,272.09,369.55,271.75Zm1.43-4.83c-.52-.15-1.33.48-1.67,1.64s0,2.12.52,2.28,1.34-.48,1.68-1.64S371.5,267.06,371,266.92Z" style="fill:#fff"></path><path d="M370.61,268.19a.47.47,0,0,1-.32-.59q.72-2.44,1.39-4.91a.47.47,0,1,1,.91.25c-.45,1.64-.92,3.29-1.39,4.93A.47.47,0,0,1,370.61,268.19Z" style="fill:#fff"></path><path d="M371.57,264.85c-1.13-.31-1.65-1.82-1.22-3.43s1.65-2.65,2.78-2.36,1.69,1.81,1.25,3.44S372.69,265.17,371.57,264.85Zm1.32-4.86c-.52-.14-1.32.52-1.63,1.67s0,2.13.56,2.27,1.33-.5,1.65-1.67S373.41,260.12,372.89,260Z" style="fill:#fff"></path><path d="M372.55,261.27a.47.47,0,0,1-.33-.58c.44-1.65.86-3.29,1.27-4.95a.48.48,0,0,1,.57-.35.47.47,0,0,1,.34.58q-.61,2.49-1.27,5A.47.47,0,0,1,372.55,261.27Z" style="fill:#fff"></path><path d="M373.43,257.91c-1.13-.29-1.69-1.79-1.29-3.41s1.58-2.69,2.72-2.42,1.73,1.77,1.32,3.42S374.56,258.2,373.43,257.91Zm1.21-4.9c-.52-.12-1.3.55-1.59,1.72s.09,2.12.62,2.25,1.31-.53,1.6-1.71S375.17,253.14,374.64,253Z" style="fill:#fff"></path><path d="M374.33,254.31a.49.49,0,0,1-.35-.58q.6-2.47,1.16-5a.49.49,0,0,1,.57-.37.47.47,0,0,1,.35.57q-.56,2.5-1.16,5A.48.48,0,0,1,374.33,254.31Z" style="fill:#fff"></path><path d="M375.13,250.92c-1.14-.26-1.73-1.74-1.37-3.37s1.53-2.73,2.67-2.49,1.77,1.73,1.4,3.39S376.27,251.19,375.13,250.92Zm1.1-4.92c-.53-.11-1.29.58-1.55,1.75s.14,2.12.67,2.24,1.3-.56,1.56-1.75S376.76,246.11,376.23,246Z" style="fill:#fff"></path><path d="M376,247.3a.48.48,0,0,1-.36-.57q.54-2.49,1.05-5a.47.47,0,0,1,.55-.38.48.48,0,0,1,.37.57q-.49,2.51-1.05,5A.47.47,0,0,1,376,247.3Z" style="fill:#fff"></path><path d="M376.68,243.9c-1.15-.24-1.78-1.71-1.45-3.35s1.46-2.76,2.61-2.54,1.81,1.69,1.48,3.35S377.82,244.14,376.68,243.9Zm1-5c-.53-.1-1.28.61-1.51,1.78s.19,2.12.72,2.23,1.29-.59,1.53-1.78S378.2,239.05,377.66,239Z" style="fill:#fff"></path><path d="M377.41,240.26a.48.48,0,0,1-.37-.56c.33-1.68.64-3.35.93-5a.48.48,0,0,1,.55-.39.47.47,0,0,1,.38.55c-.3,1.69-.61,3.37-.93,5A.48.48,0,0,1,377.41,240.26Z" style="fill:#fff"></path><path d="M378.06,236.84c-1.15-.21-1.81-1.67-1.52-3.32s1.4-2.79,2.55-2.6,1.85,1.65,1.55,3.32S379.21,237.05,378.06,236.84Zm.88-5c-.54-.08-1.27.64-1.48,1.82s.24,2.12.77,2.22,1.28-.63,1.49-1.82S379.47,232,378.94,231.86Z" style="fill:#fff"></path><path d="M378.71,233.18a.48.48,0,0,1-.38-.55c.29-1.68.56-3.37.82-5a.47.47,0,0,1,.54-.41.48.48,0,0,1,.39.55c-.26,1.69-.54,3.38-.82,5.06A.48.48,0,0,1,378.71,233.18Z" style="fill:#fff"></path><path d="M379.28,229.74c-1.15-.18-1.84-1.62-1.6-3.28s1.34-2.82,2.5-2.66,1.88,1.6,1.63,3.28S380.44,229.93,379.28,229.74Zm.77-5c-.54-.08-1.26.66-1.43,1.85s.28,2.11.81,2.2,1.27-.66,1.45-1.86S380.58,224.82,380.05,224.75Z" style="fill:#fff"></path><path d="M379.85,226.07a.48.48,0,0,1-.39-.55c.24-1.68.48-3.37.7-5.07a.47.47,0,0,1,.53-.41.46.46,0,0,1,.4.53c-.22,1.7-.45,3.4-.7,5.09A.49.49,0,0,1,379.85,226.07Z" style="fill:#fff"></path><path d="M380.34,222.62c-1.15-.16-1.88-1.59-1.67-3.25s1.27-2.86,2.44-2.72,1.91,1.56,1.7,3.25S381.5,222.78,380.34,222.62Zm.65-5c-.53-.06-1.23.7-1.38,1.89s.33,2.11.86,2.18,1.25-.69,1.4-1.89S381.53,217.67,381,217.6Z" style="fill:#fff"></path><path d="M380.83,218.93a.49.49,0,0,1-.41-.54c.21-1.69.41-3.39.59-5.09a.47.47,0,1,1,.94.1c-.19,1.71-.38,3.41-.59,5.11A.49.49,0,0,1,380.83,218.93Z" style="fill:#fff"></path><path d="M381.24,215.46c-1.16-.13-1.92-1.54-1.74-3.21s1.21-2.89,2.37-2.78,1.95,1.52,1.77,3.22S382.41,215.6,381.24,215.46Zm.54-5c-.54-.05-1.22.72-1.35,1.92s.38,2.1.92,2.16,1.23-.71,1.36-1.92S382.32,210.48,381.78,210.43Z" style="fill:#fff"></path><path d="M381.64,211.76a.49.49,0,0,1-.42-.53c.18-1.7.33-3.4.48-5.1a.47.47,0,0,1,.51-.44.47.47,0,0,1,.42.52c-.14,1.7-.3,3.41-.47,5.12A.49.49,0,0,1,381.64,211.76Z" style="fill:#fff"></path><path d="M382,208.29c-1.17-.11-2-1.51-1.82-3.18s1.14-2.92,2.31-2.84,2,1.48,1.85,3.18S383.14,208.39,382,208.29Zm.42-5.06c-.54,0-1.2.76-1.3,2s.43,2.09,1,2.14,1.21-.74,1.31-2S382.94,203.27,382.4,203.23Z" style="fill:#fff"></path><path d="M382.3,204.57a.48.48,0,0,1-.44-.52c.14-1.71.25-3.41.36-5.12a.47.47,0,1,1,.94.06q-.17,2.56-.36,5.13A.48.48,0,0,1,382.3,204.57Z" style="fill:#fff"></path><path d="M382.55,201.08c-1.17-.08-2-1.45-1.89-3.13s1.07-2.95,2.24-2.89,2,1.43,1.92,3.13S383.72,201.17,382.55,201.08Zm.3-5.06c-.54,0-1.18.78-1.25,2s.48,2.09,1,2.12,1.19-.77,1.26-2S383.39,196,382.85,196Z" style="fill:#fff"></path><path d="M382.78,197.35a.46.46,0,0,1-.44-.5c.09-1.71.17-3.43.24-5.14a.48.48,0,0,1,.49-.46.47.47,0,0,1,.45.5c-.07,1.72-.15,3.43-.24,5.15A.48.48,0,0,1,382.78,197.35Z" style="fill:#fff"></path><path d="M383,193.86c-1.17-.05-2-1.41-2-3.09s1-3,2.17-3,2.05,1.39,2,3.09S384.13,193.91,383,193.86Zm.19-5.08c-.55,0-1.17.81-1.21,2s.52,2.07,1.06,2.1,1.18-.8,1.22-2S383.69,188.8,383.15,188.78Z" style="fill:#fff"></path><path d="M383.1,190.12a.47.47,0,0,1-.45-.49c.05-1.72.09-3.43.12-5.15a.47.47,0,1,1,.94,0c0,1.72-.07,3.45-.12,5.16A.48.48,0,0,1,383.1,190.12Z" style="fill:#fff"></path></g><path d="M426.24,416.41h-7.53V186.66H278.94V416.41h-7.53V182.89a3.76,3.76,0,0,1,3.76-3.76H422.48a3.76,3.76,0,0,1,3.76,3.76Z" style="fill:#263238"></path><g style="opacity:0.6000000000000001"><path d="M426.24,416.41h-7.53V186.66H278.94V416.41h-7.53V182.89a3.76,3.76,0,0,1,3.76-3.76H422.48a3.76,3.76,0,0,1,3.76,3.76Z" style="fill:#fff"></path></g><path d="M424.88,416.41s-7.48-14.61-5.6-16,5.6,12.21,5.6,11.15-.21-19.64,3.25-18.9,0,17.84,0,17.84,4.66-8.74,6.48-8.08-5.38,11.05-5.38,11.05,4.3-2.6,5.38-2.4-5.38,5.38-5.38,5.38Z" style="fill:#0F1322"></path><path d="M271.81,416.41s8.51-7.49,6-8.75-5.65,5.65-6,4.61,1.66-10.55-3.06-9.89,0,9.89,0,9.89-3.5-3.78-4.73-3.19,3.73,7.33,3.73,7.33Z" style="fill:#0F1322"></path><g style="opacity:0.4"><path d="M424.88,416.41s-7.48-14.61-5.6-16,5.6,12.21,5.6,11.15-.21-19.64,3.25-18.9,0,17.84,0,17.84,4.66-8.74,6.48-8.08-5.38,11.05-5.38,11.05,4.3-2.6,5.38-2.4-5.38,5.38-5.38,5.38Z" style="fill:#fff"></path><path d="M271.81,416.41s8.51-7.49,6-8.75-5.65,5.65-6,4.61,1.66-10.55-3.06-9.89,0,9.89,0,9.89-3.5-3.78-4.73-3.19,3.73,7.33,3.73,7.33Z" style="fill:#fff"></path></g><path d="M408.62,416.37h16.26s-3.83-4.79-8.13-5.5S408.62,416.37,408.62,416.37Z" style="fill:#263238"></path><path d="M273.88,416.37h11.69s-2.61-5.48-5.84-5.65S273.88,416.37,273.88,416.37Z" style="fill:#263238"></path><path d="M408.62,416.37h16.26s-3.83-4.79-8.13-5.5S408.62,416.37,408.62,416.37Z" style="fill:#fff;opacity:0.4"></path><path d="M273.88,416.37h11.69s-2.61-5.48-5.84-5.65S273.88,416.37,273.88,416.37Z" style="fill:#fff;opacity:0.4"></path><g id="freepik--group--inject-13"><path d="M316.41,278.9l-2.23,12.19-.27,1.48-7.57.92-1,.12-1.21-9.28S310.62,279.61,316.41,278.9Z" style="fill:#0F1322"></path><path d="M314.18,291.09l-.27,1.48-7.57.92c1.37-4.32,6.52-7.05,6.52-7.05A7.68,7.68,0,0,1,314.18,291.09Z" style="opacity:0.2;isolation:isolate"></path><polygon points="353.27 342.74 350.38 352.82 324.66 345.45 274.73 331.15 277.6 321.09 327.53 335.37 353.27 342.74" style="fill:#0F1322"></polygon><polygon points="353.27 342.74 350.38 352.82 324.66 345.45 327.53 335.37 353.27 342.74" style="opacity:0.2;isolation:isolate"></polygon><path d="M344.33,300c-.25,3.76-.64,8-1.21,12.38-.61,4.78-1.43,9.8-2.54,14.72l-40.24-6.27s9.12-22.52,10.26-35.71a6.81,6.81,0,0,1,5.81-6.17,41.73,41.73,0,0,1,10.91.08c12.3,1.5,17.58,5.26,17.58,5.26S345,290.76,344.33,300Z" style="fill:#0F1322"></path><path d="M325.44,276.23a5.61,5.61,0,0,1-.81,4.25c-.14.21-.3.42-.47.63a8.21,8.21,0,0,1-.89.87h0a7,7,0,0,0,7.81,2.45l4.72-1.58,1-.35a10.44,10.44,0,0,1-1.21-8.44,14,14,0,0,1,1.85-4.08l-9.39,1.83-4.26.83A9.37,9.37,0,0,1,325.44,276.23Z" style="fill:#ebb376"></path><path d="M325.44,276.23a5.61,5.61,0,0,1-.81,4.25c-.14.21-.3.42-.47.63,5.14-.07,9.3-4.3,11.47-7.05a14,14,0,0,1,1.85-4.08l-9.39,1.83-4.26.83A9.37,9.37,0,0,1,325.44,276.23Z" style="opacity:0.2;isolation:isolate"></path><path d="M322.76,245.91s-10.54,6.93-.7,16.72C333.17,273.69,322.76,245.91,322.76,245.91Z" style="fill:#263238"></path><path d="M344.82,261.64c-1.34,7.41-6.44,15.24-12.76,15.69-11.6.83-15.81-1.83-16.16-10.4-.35-7.73,3.64-19.45,13.28-20.66S346.68,251.35,344.82,261.64Z" style="fill:#ebb376"></path><path d="M321.09,250.77a20.83,20.83,0,0,0,11,1.85s4.47,1.23,2.93,6.25,4.11,8.45,3.61,15.25c0,0,7.17-.09,9.87-14.84,2-10.74-7-15.94-16.66-16.79C323.69,241.78,317.36,247,321.09,250.77Z" style="fill:#263238"></path><path d="M327.52,262c-.14.95-.76,1.65-1.38,1.55s-1-.94-.87-1.88.76-1.64,1.38-1.55S327.65,261,327.52,262Z" style="fill:#263238"></path><path d="M320,260.46c-.14.91-.73,1.58-1.32,1.48s-1-.9-.83-1.8.72-1.56,1.32-1.48S320.14,259.56,320,260.46Z" style="fill:#263238"></path><path d="M325.5,256.8a.46.46,0,0,1-.12-.24.44.44,0,0,1,.42-.45,4.22,4.22,0,0,1,3.59,1.58.42.42,0,0,1-.1.6h0a.44.44,0,0,1-.6-.1h0a3.37,3.37,0,0,0-2.89-1.2A.46.46,0,0,1,325.5,256.8Z" style="fill:#263238"></path><path d="M318.1,256.1a.5.5,0,0,1-.22-.16.44.44,0,0,1,.15-.59A4.23,4.23,0,0,1,322,255a.43.43,0,0,1,.2.57h0a.45.45,0,0,1-.58.2h0a3.37,3.37,0,0,0-3.11.32A.5.5,0,0,1,318.1,256.1Z" style="fill:#263238"></path><path d="M321.82,262l-.68,4.12a5.15,5.15,0,0,1-2.74-1.35A12,12,0,0,0,321.82,262Z" style="fill:#d58745"></path><path d="M335.91,265.26s2.55-4.34,4.73-2.6.76,9.34-2.76,8.9S334,267.53,335.91,265.26Z" style="fill:#ebb376"></path><path d="M320.44,268.11a23.06,23.06,0,0,1,1.27,3.23q.3,0,.6-.09c2.74-.41,3.88-1.5,4.31-2.59a3.63,3.63,0,0,0,.19-1.68,3.82,3.82,0,0,0-.22-1c-1.33,1.09-3.85,1.67-5.21,1.92C320.81,268.06,320.44,268.11,320.44,268.11Z" style="fill:#263238"></path><path d="M321.38,268l.39.95c2.58-.4,4.35-1,5-1.92a3.82,3.82,0,0,0-.22-1C325.26,267.12,322.74,267.7,321.38,268Z" style="fill:#fff"></path><path d="M322.31,271.25c2.74-.41,3.88-1.5,4.31-2.59a8.81,8.81,0,0,0-3,1.06A3.38,3.38,0,0,0,322.31,271.25Z" style="fill:#de5753"></path><path d="M350.07,257.49c-.29,1.77-3.84,9.36-3.84,9.36s-2.81-6.67-5.91-10.09c-12.74-14-20.33-8-20.72-7.66.18-.44,3.21-7.45,4.55-8.35s10.62-1.07,16.7,2.45l.19.1C347.11,246.92,350.35,255.71,350.07,257.49Z" style="fill:#0F1322"></path><path d="M340.32,256.76c-12.74-14-20.33-8-20.72-7.66.18-.44,3.21-7.45,4.55-8.35s10.62-1.07,16.7,2.45a11.3,11.3,0,0,1,1.93,3.74C343.19,248.27,340.32,256.76,340.32,256.76Z" style="fill:#fff;opacity:0.6000000000000001"></path><path d="M319.38,249.15s-5.52-9.51-1.75-12.19,17.5,2.64,19.76,6.33,2.93,13.47,2.93,13.47S328.34,245.06,319.38,249.15Z" style="fill:#0F1322"></path><path d="M319.38,249.15s-5.52-9.51-1.75-12.19,17.5,2.64,19.76,6.33,2.93,13.47,2.93,13.47S328.34,245.06,319.38,249.15Z" style="opacity:0.2;isolation:isolate"></path><path d="M344.33,300c-.25,3.76-.64,8-1.21,12.38-4.5-3.2-3.72-18.73-3.72-18.73C340.26,297,343.51,299.41,344.33,300Z" style="opacity:0.2;isolation:isolate"></path><path d="M342.31,318l-37.26-10.16-.72,1.12-9.63.45s-4.51,15.34,3,20.87a17.9,17.9,0,0,0,10.43,3.12A58.67,58.67,0,0,0,318.48,337C345.1,343.77,342.31,318,342.31,318Z" style="fill:#263238"></path><path d="M303.75,330s-8.51-1.54-13.19-2.18a15.87,15.87,0,0,0-2.91-.26c-1.27.25-9.54,32.58-9.54,32.58l-6.45-1.51s.46-46.65,11.33-48.66c6.37-1.18,12-.15,19.45,1.47a20.89,20.89,0,0,1,1.19,2.23C305.3,317.2,307.72,324.36,303.75,330Z" style="fill:#ebb376"></path><path d="M267.4,355.22a.85.85,0,0,1,0-.92.64.64,0,0,1,.48-.34c.89-.09,2.42,1.69,2.59,1.9a.15.15,0,0,1,0,.17.15.15,0,0,1-.15.09,8.06,8.06,0,0,1-1.83-.24A1.85,1.85,0,0,1,267.4,355.22Zm.54-.91a.27.27,0,0,0-.23.17.6.6,0,0,0,0,.58c.23.39,1.09.66,2.34.75-.64-.7-1.59-1.55-2.07-1.5Z" style="fill:#0F1322"></path><path d="M269.22,353.45A.82.82,0,0,1,270,353a.59.59,0,0,1,.56.19c.59.67,0,3,0,3.21a.18.18,0,0,1-.13.12.16.16,0,0,1-.16-.07,8,8,0,0,1-.86-1.63A1.81,1.81,0,0,1,269.22,353.45Zm1-.08a.28.28,0,0,0-.27-.09.58.58,0,0,0-.5.3c-.18.42.1,1.27.75,2.34.2-.92.34-2.19,0-2.55Z" style="fill:#0F1322"></path><path d="M271.2,355.39l7.43,2a.48.48,0,0,1,.37.58h0l-1.23,6a1.23,1.23,0,0,1-1.48.86c-2.58-.75-3.77-1.23-7-2.14a64.32,64.32,0,0,1-8.65-2.63c-2.62-1.18-1.38-3.74-.16-3.47a18.91,18.91,0,0,0,9.51-1.13A1.89,1.89,0,0,1,271.2,355.39Z" style="fill:#263238"></path><path d="M303.75,330s-8.51-1.54-13.19-2.18c-.89-3.93-1.46-7.55-1-9.09,1.12-3.54,11.24-4.78,14-5.06C305.3,317.2,307.72,324.36,303.75,330Z" style="opacity:0.2;isolation:isolate"></path><path d="M292.11,363s.74-45.49,11.32-48.66c6.63-2,12.45.21,24.34,3.71,0,0,1.71,9.82-3.8,17.59,0,0-14.6-3.95-15.88-3.7s-9.53,32.58-9.53,32.58Z" style="fill:#ebb376"></path><path d="M287.84,359.61a.86.86,0,0,1,.05-.91.59.59,0,0,1,.47-.34c.9-.1,2.43,1.69,2.6,1.89a.19.19,0,0,1,0,.18.14.14,0,0,1-.15.08,8.06,8.06,0,0,1-1.83-.24A1.83,1.83,0,0,1,287.84,359.61Zm.55-.91a.29.29,0,0,0-.23.17.57.57,0,0,0,0,.58c.23.39,1.09.66,2.33.75-.63-.7-1.58-1.55-2.06-1.5Z" style="fill:#0F1322"></path><path d="M289.66,357.84a.85.85,0,0,1,.77-.49.61.61,0,0,1,.56.19c.59.68,0,3,0,3.22a.16.16,0,0,1-.14.11.13.13,0,0,1-.15-.07,8.51,8.51,0,0,1-.87-1.63A1.91,1.91,0,0,1,289.66,357.84Zm1.06-.08a.3.3,0,0,0-.27-.09.59.59,0,0,0-.5.31c-.18.41.1,1.27.75,2.33.2-.92.34-2.19,0-2.55Z" style="fill:#0F1322"></path><path d="M291.65,359.78l7.43,2a.48.48,0,0,1,.37.58h0l-1.23,6a1.22,1.22,0,0,1-1.48.85c-2.58-.74-3.77-1.23-7-2.14a63.22,63.22,0,0,1-8.64-2.63c-2.62-1.18-1.38-3.74-.17-3.47a18.82,18.82,0,0,0,9.52-1.13A2,2,0,0,1,291.65,359.78Z" style="fill:#263238"></path><path d="M344.9,284.25a40.2,40.2,0,0,1,9.77,7.37l-5.95,11.2s-7-2.66-9.32-9.21S342.27,283,344.9,284.25Z" style="fill:#0F1322"></path></g><path d="M363.27,290c-1-1.89-1.53-2.37-.93-5.26a25.06,25.06,0,0,1,3.38-7.31s4.64,3.15,5.2,5.83-4.36,8.09-4.36,8.09Z" style="fill:#ebb376"></path><path d="M300.54,276.16c1.9-.51,2.52-.5,4-2.73a22.76,22.76,0,0,0,2.63-6.87s-5-1-7.13.31-2.52,8-2.52,8Z" style="fill:#ebb376"></path></g><g id="freepik--Backpack--inject-13"><path d="M410.29,374.51S419.88,387.7,422,396.7s4.15,15.37,1,16.29-14.64-2.74-14.64-2.74l1-1.06s9.2,2.64,10.58,2.64,2.57-1.52,2-2.64S411.21,385,411.21,385Z" style="fill:#263238"></path><path d="M410.29,374.51S419.88,387.7,422,396.7s4.15,15.37,1,16.29-14.64-2.74-14.64-2.74l1-1.06s9.2,2.64,10.58,2.64,2.57-1.52,2-2.64S411.21,385,411.21,385Z" style="fill:#fff;opacity:0.2"></path><path d="M410.29,373.16s2.08-2.28,0-3.46-8.13-.85-9,.68a3.21,3.21,0,0,0-.3,2.78h1.19a2.84,2.84,0,0,1,.49-2.09c.69-.68,6.93-1,6.73,0a11.54,11.54,0,0,1-.69,2.09Z" style="fill:#263238"></path><path d="M410.29,373.16s2.08-2.28,0-3.46-8.13-.85-9,.68a3.21,3.21,0,0,0-.3,2.78h1.19a2.84,2.84,0,0,1,.49-2.09c.69-.68,6.93-1,6.73,0a11.54,11.54,0,0,1-.69,2.09Z" style="fill:#fff;opacity:0.2"></path><path d="M412.5,414a3.34,3.34,0,0,1-3.22,2.41H382.05a6.49,6.49,0,0,1-6-3.95,52.52,52.52,0,0,1-2.26-6.06,4.26,4.26,0,0,1-.15-1c0-2,7-13.36,9-14.59,2.37-7.51,5-14.33,6.9-15.8a10.19,10.19,0,0,1,1.64-1h0a26.59,26.59,0,0,1,10.91-2.16h.07a29.9,29.9,0,0,1,13.12,2.65C422.34,378,414.94,405.58,412.5,414Z" style="fill:#263238"></path><path d="M383.75,391s11.27-.79,16,1,4.66,1.65,4.85,2.16-3.81,12.3-3.81,12.3-20.23,2.7-27-.05a4.26,4.26,0,0,1-.15-1c0-2,7-13.36,9-14.59,2.37-7.51,5-14.33,6.9-15.8a10.19,10.19,0,0,1,1.64-1h0a32.69,32.69,0,0,1,7.48-.86c7.22,0,13,2.08,13.1,2.77s-4.2,17-4.2,17-5.93-3.37-11.62-4.06S383.75,391,383.75,391Z" style="fill:#fff;opacity:0.2"></path><path d="M381.47,393.82c1.19-.38,16.48-.54,19.34,1.67l-.45.82s-10.78-2-18.89-1.78Z" style="fill:#263238"></path><polygon points="396.7 377.52 399.77 381.67 394.82 384.83 391.68 381.18 396.7 377.52" style="fill:#263238"></polygon></g><g id="freepik--character-1--inject-13"><polygon points="82.05 416.19 77.44 416.19 86.86 363.04 91.46 363.04 82.05 416.19" style="fill:#263238"></polygon><polygon points="205.17 416.19 200.56 416.19 209.98 363.04 214.59 363.04 205.17 416.19" style="fill:#263238"></polygon><polygon points="82.05 416.19 77.44 416.19 86.86 363.04 91.46 363.04 82.05 416.19" style="fill:#fff;opacity:0.30000000000000004"></polygon><polygon points="205.17 416.19 200.56 416.19 209.98 363.04 214.59 363.04 205.17 416.19" style="fill:#fff;opacity:0.30000000000000004"></polygon><rect x="84.45" y="389.62" width="160.78" height="4.66" style="fill:#263238"></rect><rect x="84.45" y="389.62" width="160.78" height="4.66" style="fill:#fff;opacity:0.5"></rect><polygon points="124.52 416.19 129.13 416.19 119.71 363.04 115.11 363.04 124.52 416.19" style="fill:#263238"></polygon><polygon points="247.64 416.19 252.25 416.19 242.83 363.04 238.23 363.04 247.64 416.19" style="fill:#263238"></polygon><polygon points="124.52 416.19 129.13 416.19 119.71 363.04 115.11 363.04 124.52 416.19" style="fill:#fff;opacity:0.30000000000000004"></polygon><polygon points="247.64 416.19 252.25 416.19 242.83 363.04 238.23 363.04 247.64 416.19" style="fill:#fff;opacity:0.30000000000000004"></polygon><polygon points="205.88 360.98 201.29 360.98 193.62 318.33 198.2 318.33 205.88 360.98" style="fill:#263238"></polygon><polygon points="205.88 360.98 201.29 360.98 193.62 318.33 198.2 318.33 205.88 360.98" style="fill:#fff;opacity:0.30000000000000004"></polygon><polygon points="92.99 360.98 88.4 360.98 80.73 318.33 85.31 318.33 92.99 360.98" style="fill:#263238"></polygon><polygon points="149.43 360.98 144.85 360.98 137.18 318.33 141.76 318.33 149.43 360.98" style="fill:#263238"></polygon><polygon points="92.99 360.98 88.4 360.98 80.73 318.33 85.31 318.33 92.99 360.98" style="fill:#fff;opacity:0.30000000000000004"></polygon><polygon points="149.43 360.98 144.85 360.98 137.18 318.33 141.76 318.33 149.43 360.98" style="fill:#fff;opacity:0.30000000000000004"></polygon><polygon points="213.79 321.24 71.55 321.24 70.11 313.26 212.35 313.26 213.79 321.24" style="fill:#263238"></polygon><polygon points="216.39 335.68 74.14 335.68 72.71 327.7 214.95 327.7 216.39 335.68" style="fill:#263238"></polygon><polygon points="218.99 350.12 76.74 350.12 75.31 342.14 217.55 342.14 218.99 350.12" style="fill:#263238"></polygon><rect x="77.93" y="359.72" width="175.28" height="5.52" style="fill:#263238"></rect><polygon points="213.79 321.24 71.55 321.24 70.11 313.26 212.35 313.26 213.79 321.24" style="fill:#fff;opacity:0.5"></polygon><polygon points="216.39 335.68 74.14 335.68 72.71 327.7 214.95 327.7 216.39 335.68" style="fill:#fff;opacity:0.5"></polygon><polygon points="218.99 350.12 76.74 350.12 75.31 342.14 217.55 342.14 218.99 350.12" style="fill:#fff;opacity:0.5"></polygon><rect x="77.93" y="359.72" width="175.28" height="5.52" style="fill:#fff;opacity:0.5"></rect><rect x="115.6" y="359.72" width="137.61" height="5.52" style="fill:#fff;opacity:0.2"></rect><g id="freepik--group--inject-13"><path d="M148.67,280.83s2.13,15,0,26.91-4.15,19.29-3.08,24.52l-3.44.92a16.32,16.32,0,0,1-1.31-5.87s-.48,4.36,0,5.87,0,.58,0,.58-14.64,1.36-22.74-.58-.81-45.05-.81-45.05S137.92,278.51,148.67,280.83Z" style="fill:#263238"></path><path d="M142.56,311.53c2.84,1.83,4.12,19.24,4.12,19.24l10.47,12.46-4.5,4.78s-10.24-8.6-11.46-10.55-4.7-11.44-4.7-11.44Z" style="fill:#0F1322"></path><path d="M157.15,343.23l-4.5,4.78s-5.32-4.47-8.75-7.69a21.7,21.7,0,0,1-2.72-2.86C140,335.52,136.49,326,136.49,326l3.19-7.61,2.88-6.88c2.84,1.83,4.12,19.24,4.12,19.24Z" style="fill:#fff;opacity:0.4"></path><path d="M153.3,339l-9.4,1.3a21.7,21.7,0,0,1-2.72-2.86C140,335.52,136.49,326,136.49,326l3.19-7.61a43.3,43.3,0,0,1,3.9,14.39Z" style="opacity:0.2;isolation:isolate"></path><path d="M139.38,341a54.9,54.9,0,0,1-.12-9.47,91.57,91.57,0,0,1,3.3-20s-3.67-4-16-5.06-18.27,1.61-18.27,1.61-.85,4.08-1.79,10.35a217.75,217.75,0,0,0-2.24,23.68Z" style="fill:#0F1322"></path><path d="M139.38,341l-35.14,1.08c.12-3.89.39-7.72.74-11.33.28-3.07.63-6,1-8.64.17-1.3.35-2.54.52-3.71.94-6.27,1.79-10.35,1.79-10.35s5.94-2.62,18.27-1.61,16,5.06,16,5.06a91,91,0,0,0-3.3,20A54.9,54.9,0,0,0,139.38,341Z" style="fill:#fff;opacity:0.4"></path><path d="M154.55,364.87a6.71,6.71,0,0,1-2.77,1.7L143.27,375l-5.09-2-4.78,4.06-3.69-5-3.7,2.75-11.21-8.54c-5.13-.93-9.11-2.11-10.56-3.33-5.33-4.48,0-21.89,0-21.89l35.14-.12.83,1.55.07.14a107.74,107.74,0,0,1,12.66,3.67,12.63,12.63,0,0,1,3.25,1.67h0C156.33,348.43,160,358.44,154.55,364.87Z" style="fill:#0F1322"></path><path d="M154.55,364.87a6.71,6.71,0,0,1-2.77,1.7L143.27,375l-5.09-2-4.78,4.06-3.69-5-3.7,2.75,5.94-7-3-1.45,8.5-5.49v-8l6.1-.92,5.19-4.62,3.88,1.31,3.54-.73h0C156.33,348.43,160,358.44,154.55,364.87Z" style="opacity:0.2;isolation:isolate"></path><path d="M160.29,369.8c-6.73,12.31-18.67,27.59-18.67,27.59L135,394.22s16.69-25.86,15.44-29-6.73-6.74-6.73-6.74-.26-5.91,3.88-9.73a10.71,10.71,0,0,1,2.78-1.86s10.07,1.74,14,9C165.7,358.32,163.64,363.7,160.29,369.8Z" style="fill:#ebb376"></path><path d="M144.82,398.56a8.88,8.88,0,0,1-1.5-1.37.16.16,0,0,1,0-.18.19.19,0,0,1,.16-.11c.29,0,2.88,0,3.44.84a.69.69,0,0,1,.05.64.94.94,0,0,1-.74.68A2,2,0,0,1,144.82,398.56Zm1.75-.6c-.3-.44-1.69-.63-2.73-.67,1,1,1.8,1.51,2.29,1.43a.66.66,0,0,0,.46-.44.33.33,0,0,0,0-.32Z" style="fill:#0F1322"></path><path d="M145.18,397.11a8.94,8.94,0,0,1-2,.43.18.18,0,0,1-.17-.08.19.19,0,0,1,0-.19c.17-.24,1.68-2.34,2.67-2.32a.69.69,0,0,1,.56.34.94.94,0,0,1,.13,1A2,2,0,0,1,145.18,397.11Zm.53-1.77c-.53,0-1.5,1-2.13,1.82,1.36-.21,2.27-.58,2.49-1a.65.65,0,0,0-.09-.63.32.32,0,0,0-.27-.16Z" style="fill:#0F1322"></path><path d="M143.35,396l-7-4.81a.53.53,0,0,0-.75.1h0l-4.16,5.27a1.33,1.33,0,0,0,.33,1.84c2.45,1.65,3.71,2.31,6.78,4.4a69.43,69.43,0,0,0,8.33,5.4c2.86,1.37,4.13-1.49,3-2.32-2.57-2-5-6.21-5.79-8.79A2.2,2.2,0,0,0,143.35,396Z" style="fill:#263238"></path><path d="M119,308.46s7.23,3.59,9.83,3.46c1-.06,3.63-1.73,3.63-1.73a6.43,6.43,0,0,1-1.09-1.71c-1.82-4.06,2.08-7.59,2.08-7.59l-4.07-1.52L120.44,296C123.82,303.79,119,308.46,119,308.46Z" style="fill:#ebb376"></path><path d="M121.68,299.37s3.56,8.42,9.7,9.11c-1.82-4.06,2.08-7.59,2.08-7.59l-4.07-1.52Z" style="opacity:0.2;isolation:isolate"></path><path d="M148.06,279.32s5.85,11.18-7.5,14.95C125.47,298.54,148.06,279.32,148.06,279.32Z" style="fill:#263238"></path><path d="M121.14,282.35c-2.43,7.13-1.77,16.45,3.54,19.92,9.73,6.36,14.71,6.08,19.17-1.25,4.06-6.58,6.27-18.77-1.58-24.5S124.51,272.45,121.14,282.35Z" style="fill:#ebb376"></path><path d="M147.16,284.37a20.85,20.85,0,0,1-10.48-3.69s-8.78-.16-9.87,5-3.41,4.45-6.28,10.64c0,0-6.22-3.56-1.42-17.76,3.5-10.34,13.86-10.55,22.72-6.59C149.25,275.25,152.26,282.88,147.16,284.37Z" style="fill:#263238"></path><path d="M136.11,291c-.34.89-.14,1.81.46,2s1.33-.33,1.67-1.23.13-1.79-.46-2S136.45,290.13,136.11,291Z" style="fill:#263238"></path><path d="M143.4,293.37c-.32.86-.13,1.73.44,1.94s1.27-.32,1.59-1.18.13-1.71-.43-1.93S143.73,292.52,143.4,293.37Z" style="fill:#263238"></path><path d="M140.38,287.5a.48.48,0,0,0,.22-.15.43.43,0,0,0-.15-.59,4.24,4.24,0,0,0-3.91-.37.43.43,0,0,0-.2.58h0a.45.45,0,0,0,.57.2h0a3.37,3.37,0,0,1,3.11.35A.41.41,0,0,0,140.38,287.5Z" style="fill:#263238"></path><path d="M147.19,290.48a.46.46,0,0,0,.26,0,.44.44,0,0,0,.16-.6,4.21,4.21,0,0,0-3.27-2.18.42.42,0,0,0-.45.4h0a.46.46,0,0,0,.41.46h0a3.34,3.34,0,0,1,2.56,1.79A.46.46,0,0,0,147.19,290.48Z" style="fill:#263238"></path><path d="M116.65,289s-2.82,4.6-2.89,12.27,4,14.39,4.58,18.52-.47,5.35-.47,5.35l4.3-.95s1.34-5.89-1.37-9.76a11.65,11.65,0,0,1,2.61,5.36s1.08-2.77-1.13-10-3.51-12.69-.19-16.35S116.65,289,116.65,289Z" style="fill:#263238"></path><path d="M141.61,293.88l-2.36,3.45a5.15,5.15,0,0,0,2.9.92A12.27,12.27,0,0,1,141.61,293.88Z" style="fill:#d58745"></path><path d="M127.17,289.85s-.12-5-2.88-4.57-5.19,7.79-1.9,9.11S127.73,292.75,127.17,289.85Z" style="fill:#ebb376"></path><path d="M138.19,300.44a23.73,23.73,0,0,0-2.85,2c-.15-.14-.31-.27-.45-.41-2-1.87-2.39-3.41-2.14-4.55a3.59,3.59,0,0,1,.77-1.51,3.67,3.67,0,0,1,.71-.66c.5,1.64,2.28,3.53,3.27,4.49C137.91,300.2,138.19,300.44,138.19,300.44Z" style="fill:#263238"></path><path d="M137.5,299.79l-.86.57c-1.92-1.76-3-3.26-3.12-4.4a3.67,3.67,0,0,1,.71-.66C134.73,296.94,136.51,298.83,137.5,299.79Z" style="fill:#fff"></path><path d="M134.89,302c-2-1.87-2.39-3.41-2.14-4.55a9,9,0,0,1,1.87,2.52A3.35,3.35,0,0,1,134.89,302Z" style="fill:#de5753"></path><path d="M149.46,279.61s1.59,4.22-5,7.2l-2.87-1.48,1-1-5.39.92h-3.36l3.36-2.32s-5.73,1.44-7.23,5.13h-3.7l.29-1.3s-3.78,4.55-6.74,6.34-3.14-4.11-3.14-4.11,8-13.48,18.29-13.48S149.46,279.61,149.46,279.61Z" style="fill:#263238"></path><path d="M160.29,369.8c-6.73,12.31-18.67,27.59-18.67,27.59L135,394.22s16.69-25.86,15.44-29-6.73-6.74-6.73-6.74-.26-5.91,3.88-9.73c3,1.43,9.73,5.2,11.63,10.93C159.83,361.6,160.16,365.31,160.29,369.8Z" style="opacity:0.2;isolation:isolate"></path><path d="M132.93,347.48s12.13.87,18.71,5.87-6.42,46.95-6.42,46.95l-7.35-.19s4.68-30.42,2.28-32.73-8.89-3.41-8.89-3.41S127.86,353.35,132.93,347.48Z" style="fill:#ebb376"></path><path d="M148.62,400.06a8.92,8.92,0,0,1-1.93-.64.15.15,0,0,1-.1-.15.21.21,0,0,1,.1-.17c.26-.12,2.63-1.15,3.48-.63a.63.63,0,0,1,.3.56.94.94,0,0,1-.39.93A2,2,0,0,1,148.62,400.06ZM150,398.8c-.45-.28-1.8.11-2.77.49,1.28.51,2.26.65,2.68.38a.66.66,0,0,0,.23-.59.3.3,0,0,0-.14-.28Z" style="fill:#0F1322"></path><path d="M148.36,398.59a9.21,9.21,0,0,1-1.64,1.2.15.15,0,0,1-.18,0,.18.18,0,0,1-.08-.18c.06-.29.59-2.82,1.5-3.2a.67.67,0,0,1,.64.07.93.93,0,0,1,.52.86A2,2,0,0,1,148.36,398.59Zm-.24-1.84c-.49.21-1,1.53-1.2,2.54,1.16-.74,1.84-1.46,1.86-2a.68.68,0,0,0-.35-.54.34.34,0,0,0-.31,0Z" style="fill:#0F1322"></path><path d="M146.23,398.31l-8.32-1.56a.53.53,0,0,0-.64.4h0l-1.64,6.5a1.34,1.34,0,0,0,1.05,1.56c2.91.49,4.32.59,8,1.24a68.59,68.59,0,0,0,9.81,1.53c3.16.09,3.16-3,1.83-3.35-3.16-.76-7.1-3.64-8.89-5.67A2.06,2.06,0,0,0,146.23,398.31Z" style="fill:#263238"></path><path d="M156.19,348.06l-3.54.73-3.88-1.31-5.19,4.62-6.1.92v8l-8.5,5.49,3,1.45-5.94,7-11.21-8.54s-.54-11.29,7.32-19.44c4.27-4.43,11.16-5.34,18.09-4.35a46.16,46.16,0,0,1,12.73,3.81C154.09,346.91,155.18,347.48,156.19,348.06Z" style="fill:#0F1322"></path><polygon points="137.48 360.98 118.56 355.92 135.61 358.45 137.48 360.98" style="opacity:0.2;isolation:isolate"></polygon><path d="M148.77,347.48l-15.37-5.26s15,2.47,19.25,6.57Z" style="opacity:0.2;isolation:isolate"></path><polygon points="143.58 352.1 122.12 348.01 142.56 350.65 143.58 352.1" style="opacity:0.2;isolation:isolate"></polygon><path d="M114.8,366.37s-7.65-3.73-6.46-4.05,12.13,5.21,12.13,5.21Z" style="opacity:0.2;isolation:isolate"></path><polygon points="118.56 335.68 144.42 335.68 164.78 341.03 162.01 351.04 136.29 352.1 117.29 345.5 118.56 335.68" style="fill:#263238"></polygon><polygon points="138.18 342.34 136.29 352.1 162.01 351.04 164.78 341.03 138.18 342.34" style="fill:#fff;opacity:0.4"></polygon><polygon points="118.56 335.68 138.18 342.34 136.29 352.1 117.29 345.5 118.56 335.68" style="fill:#fff;opacity:0.2"></polygon><polygon points="139.02 302.02 135.91 303.26 133.22 317.12 148.14 317.12 151.08 315.34 139.02 302.02" style="fill:#0F1322"></polygon><polygon points="136.49 314.79 139.02 302.02 151.08 315.34 136.49 314.79" style="fill:#fff;opacity:0.6000000000000001"></polygon><polygon points="133.22 317.12 136.49 314.79 139.02 302.02 135.91 303.26 133.22 317.12" style="fill:#fff;opacity:0.7000000000000001"></polygon><path d="M135,315.34l2.63-12.76a4.9,4.9,0,0,0-.67.26c-.2.11-.11.2-.11.41a1.26,1.26,0,0,1-.18.71,1.48,1.48,0,0,0-.19.35c-.07.27.12.54.12.82,0,.44-.45.76-.55,1.19,0,.14,0,.3,0,.44s-.17.43-.21.65-.08.45-.11.68a3.28,3.28,0,0,0-.14,1.31,1.39,1.39,0,0,1,.12.38.68.68,0,0,1-.08.34,3.15,3.15,0,0,1-.31.57,1.19,1.19,0,0,0-.32.69,1.31,1.31,0,0,0,.15.46.6.6,0,0,1,0,.47,3.36,3.36,0,0,1-.24.29.87.87,0,0,0,0,.74,1.39,1.39,0,0,1,.15.74,2.32,2.32,0,0,1-.13.37.44.44,0,0,0,0,.39" style="fill:#0F1322"></path><path d="M134.82,324.18S122.35,339.57,113,339c-4.86-.29-7-4.36-8-8.23.28-3.07.63-6,1-8.64,2.71-2.53,7.74-7.08,8.4-6.8.9.39,2.06,6.92,3.34,7.43S132,320.88,132,320.88Z" style="opacity:0.2;isolation:isolate"></path><path d="M130.76,317.25l7.72-6s3.45,9.18,2.56,10.38-7.21,3.86-7.9,3.46l-3,2-2.57-2.93,3.58-3.4S130.08,317.77,130.76,317.25Z" style="fill:#ebb376"></path><path d="M108.27,308.08c-3.13,2.51-2.82,12.11,0,21.6s7.44,8.68,12.58,6c5.44-2.83,11.37-8.73,11.37-8.73l-2.46-5.54s-11.35,5.5-12.42,4.91-2.45-9.69-3-12.56S108.27,308.08,108.27,308.08Z" style="fill:#0F1322"></path><path d="M108.27,308.08c-3.13,2.51-2.82,12.11,0,21.6s7.44,8.68,12.58,6c5.44-2.83,11.37-8.73,11.37-8.73l-2.46-5.54s-11.35,5.5-12.42,4.91-2.45-9.69-3-12.56S108.27,308.08,108.27,308.08Z" style="fill:#fff;opacity:0.4"></path></g><path d="M179.81,321.24s-9.59,13.19-11.67,22.19-4.15,15.37-1,16.29S181.79,357,181.79,357l-1-1.06s-9.19,2.65-10.58,2.64-2.57-1.52-2-2.64,10.65-24.23,10.65-24.23Z" style="fill:#0F1322"></path><path d="M179.81,319.89s-2.07-2.27,0-3.46,8.13-.85,9,.69a3.19,3.19,0,0,1,.3,2.77h-1.19a2.85,2.85,0,0,0-.49-2.09c-.69-.68-6.92-1-6.73,0a11.19,11.19,0,0,0,.7,2.09Z" style="fill:#0F1322"></path><path d="M207.46,337.55h0c-2.37-7.5-5-14.32-6.9-15.8-2.52-1.92-7.35-3.1-12.57-3.16h-.07a29.9,29.9,0,0,0-13.12,2.65c-8.32,4.08,2.77,38.48,2.77,38.48l6.73.11,26.93.44,2.56,0c2.43,0,3.21-.59,3.2-2.53S209.48,338.78,207.46,337.55Z" style="fill:#0F1322"></path><path d="M178.49,331.69c.53,7.28,5.91,28,5.91,28l-.1.12-6.73-.11s-11.09-34.4-2.77-38.48a29.9,29.9,0,0,1,13.12-2.65C177.78,318.89,178,324.43,178.49,331.69Z" style="opacity:0.2;isolation:isolate"></path><path d="M186.5,357.58s-3.36-12.16-1.57-16.37,13.48-3.59,20.44-3,9.89,7.41,11.4,13.72-.38,6.68-.38,6.68S197.62,359.9,186.5,357.58Z" style="fill:#0F1322"></path><path d="M186.5,357.58s-3.36-12.16-1.57-16.37,13.48-3.59,20.44-3,9.89,7.41,11.4,13.72-.38,6.68-.38,6.68S197.62,359.9,186.5,357.58Z" style="fill:#fff;opacity:0.2"></path><path d="M186.84,344.62a136,136,0,0,1,27.74.88v1.07s-11.13-2.52-27.74-1.15Z" style="opacity:0.2;isolation:isolate"></path><path d="M183.18,333.54c-1-.88-.32-8.15,1.22-9.37s11.24-1.74,14,0,5.34,9.75,5.24,10.05S184.07,334.33,183.18,333.54Z" style="fill:#fff;opacity:0.2"></path></g></svg>