<svg width="650" height="650" viewBox="0 0 650 650" fill="none" xmlns="http://www.w3.org/2000/svg">
<path d="M429.12 543.698L438.99 549.628L428.97 555.568L418.95 561.518L419.1 549.648L419.26 537.778L429.12 543.698Z" fill="#E0E0E0"/>
<path d="M40.96 602.788V648.948H108.46H182.92V602.788H40.96Z" fill="#F5F5F5"/>
<path d="M35 589.878V602.788H187.88V589.878H108.46H35Z" fill="#E0E0E0"/>
<path d="M111.44 648.948H182.92V602.788H187.88V589.878H108.46V601.588L111.44 648.948Z" fill="#E0E0E0"/>
<path d="M89.6 610.228H60.81V617.178H89.6V610.228Z" fill="#E0E0E0"/>
<path d="M94.08 625.868H57.11V640.538H94.08V625.868Z" fill="white"/>
<path d="M62.8 543.778V589.938H130.3H204.76V543.778H62.8Z" fill="#F5F5F5"/>
<path d="M56.84 530.868V543.778H209.72V530.868H130.3H56.84Z" fill="#E0E0E0"/>
<path d="M133.28 589.938H204.76V543.778H209.72V530.868H130.3V542.588L133.28 589.938Z" fill="#E0E0E0"/>
<path d="M111.44 551.218H82.65V558.168H111.44V551.218Z" fill="#E0E0E0"/>
<path d="M115.92 566.858H78.95V581.528H115.92V566.858Z" fill="white"/>
<path d="M608.19 375.908H441.02C436.674 375.908 433.15 379.431 433.15 383.778V481.398C433.15 485.744 436.674 489.268 441.02 489.268H608.19C612.537 489.268 616.06 485.744 616.06 481.398V383.778C616.06 379.431 612.537 375.908 608.19 375.908Z" fill="#E0E0E0"/>
<path d="M524.6 448.058C532.293 448.058 538.53 441.821 538.53 434.128C538.53 426.434 532.293 420.198 524.6 420.198C516.907 420.198 510.67 426.434 510.67 434.128C510.67 441.821 516.907 448.058 524.6 448.058Z" fill="#EBEBEB"/>
<path d="M521.25 438.198V429.978C521.25 429.886 521.274 429.797 521.32 429.718C521.365 429.639 521.431 429.573 521.51 429.528C521.589 429.482 521.679 429.458 521.77 429.458C521.861 429.458 521.951 429.482 522.03 429.528L529.37 433.668C529.451 433.713 529.519 433.779 529.566 433.859C529.613 433.939 529.638 434.03 529.638 434.123C529.638 434.216 529.613 434.307 529.566 434.387C529.519 434.467 529.451 434.533 529.37 434.578L522.02 438.658C521.94 438.701 521.851 438.723 521.76 438.722C521.67 438.72 521.581 438.695 521.503 438.648C521.425 438.602 521.361 438.536 521.317 438.457C521.272 438.378 521.249 438.288 521.25 438.198Z" fill="white"/>
<path d="M443.61 476.248V476.538H442.23V476.308L442.97 475.598C443.033 475.553 443.084 475.495 443.121 475.427C443.157 475.359 443.177 475.284 443.18 475.208C443.18 475.038 443.07 474.948 442.84 474.948C442.757 474.942 442.674 474.957 442.597 474.99C442.521 475.023 442.453 475.074 442.4 475.138L442.16 474.948C442.246 474.845 442.355 474.763 442.479 474.709C442.602 474.655 442.736 474.631 442.87 474.638C443.27 474.638 443.53 474.848 443.53 475.178C443.528 475.293 443.499 475.407 443.445 475.509C443.391 475.612 443.314 475.7 443.22 475.768L442.72 476.248H443.61Z" fill="white"/>
<path d="M443.79 475.318C443.79 475.274 443.803 475.232 443.827 475.195C443.851 475.159 443.886 475.131 443.926 475.114C443.966 475.098 444.01 475.093 444.053 475.102C444.096 475.11 444.135 475.131 444.166 475.162C444.196 475.193 444.217 475.232 444.226 475.275C444.234 475.317 444.23 475.362 444.213 475.402C444.197 475.442 444.168 475.476 444.132 475.501C444.096 475.525 444.054 475.538 444.01 475.538C443.952 475.538 443.896 475.514 443.854 475.473C443.813 475.432 443.79 475.376 443.79 475.318ZM443.79 476.318C443.79 476.259 443.813 476.203 443.854 476.162C443.896 476.121 443.952 476.098 444.01 476.098C444.068 476.098 444.124 476.121 444.166 476.162C444.207 476.203 444.23 476.259 444.23 476.318C444.23 476.376 444.207 476.432 444.166 476.473C444.124 476.514 444.068 476.538 444.01 476.538C443.952 476.538 443.896 476.514 443.854 476.473C443.813 476.432 443.79 476.376 443.79 476.318Z" fill="white"/>
<path d="M445.1 474.668V476.538H444.75V474.958H444.36V474.668H445.1Z" fill="white"/>
<path d="M447.13 476.108H446.8V476.538H446.48V476.108H445.48V475.898L446.4 474.698H446.77L445.91 475.848H446.48V475.468H446.8V475.848H447.13V476.108Z" fill="white"/>
<path d="M591.84 475.318H450.18V476.068H591.84V475.318Z" fill="white"/>
<path d="M494.35 474.528H450.08V476.528H494.35V474.528Z" fill="#EBEBEB"/>
<path d="M495.77 475.688C495.772 476.116 495.647 476.535 495.41 476.891C495.174 477.248 494.836 477.527 494.441 477.691C494.046 477.856 493.611 477.9 493.191 477.817C492.771 477.734 492.385 477.528 492.083 477.225C491.78 476.922 491.574 476.536 491.491 476.117C491.408 475.697 491.452 475.261 491.616 474.866C491.781 474.471 492.06 474.134 492.416 473.897C492.773 473.661 493.192 473.536 493.62 473.538C494.189 473.54 494.735 473.768 495.137 474.17C495.54 474.573 495.767 475.118 495.77 475.688Z" fill="#EBEBEB"/>
<path d="M595.41 475.668C595.409 475.753 595.39 475.838 595.355 475.916C595.319 475.995 595.268 476.065 595.204 476.122C595.14 476.179 595.065 476.223 594.983 476.25C594.902 476.276 594.815 476.286 594.73 476.278C594.22 476.278 593.92 475.948 593.92 475.348C593.904 475.22 593.916 475.091 593.955 474.968C593.994 474.846 594.058 474.733 594.145 474.638C594.231 474.543 594.337 474.468 594.456 474.418C594.574 474.368 594.702 474.344 594.83 474.348C595.001 474.341 595.171 474.382 595.32 474.468L595.2 474.738C595.091 474.673 594.966 474.641 594.84 474.648C594.49 474.648 594.27 474.858 594.27 475.288C594.334 475.221 594.412 475.17 594.499 475.137C594.585 475.104 594.678 475.091 594.77 475.098C594.85 475.089 594.931 475.098 595.008 475.122C595.085 475.147 595.156 475.188 595.216 475.241C595.276 475.295 595.324 475.361 595.358 475.434C595.391 475.507 595.409 475.587 595.41 475.668ZM595.07 475.668C595.07 475.468 594.93 475.348 594.7 475.348C594.47 475.348 594.32 475.478 594.32 475.668C594.32 475.858 594.46 475.978 594.71 475.978C594.753 475.983 594.796 475.98 594.838 475.968C594.879 475.957 594.918 475.937 594.952 475.909C594.986 475.882 595.013 475.849 595.034 475.811C595.054 475.772 595.066 475.731 595.07 475.688V475.668Z" fill="white"/>
<path d="M595.58 475.028C595.579 474.998 595.583 474.969 595.594 474.942C595.604 474.914 595.621 474.89 595.641 474.869C595.662 474.848 595.687 474.832 595.714 474.821C595.741 474.811 595.771 474.806 595.8 474.808C595.858 474.808 595.914 474.831 595.956 474.872C595.997 474.913 596.02 474.969 596.02 475.028C596.02 475.086 595.997 475.142 595.956 475.183C595.914 475.224 595.858 475.248 595.8 475.248C595.771 475.249 595.741 475.244 595.714 475.234C595.687 475.223 595.662 475.207 595.641 475.186C595.621 475.166 595.604 475.141 595.594 475.113C595.583 475.086 595.579 475.057 595.58 475.028ZM595.58 476.028C595.577 475.998 595.58 475.968 595.59 475.94C595.6 475.912 595.616 475.886 595.637 475.865C595.659 475.844 595.684 475.828 595.712 475.818C595.74 475.808 595.77 475.804 595.8 475.808C595.829 475.806 595.858 475.811 595.885 475.821C595.911 475.832 595.936 475.848 595.956 475.869C595.976 475.89 595.991 475.915 596 475.942C596.01 475.97 596.013 475.999 596.01 476.028C596.017 476.06 596.017 476.093 596.009 476.125C596.001 476.157 595.987 476.187 595.966 476.212C595.946 476.238 595.92 476.259 595.89 476.273C595.86 476.287 595.828 476.294 595.795 476.294C595.762 476.294 595.73 476.287 595.7 476.273C595.67 476.259 595.644 476.238 595.624 476.212C595.603 476.187 595.588 476.157 595.581 476.125C595.573 476.093 595.573 476.06 595.58 476.028Z" fill="white"/>
<path d="M596.24 475.318C596.24 474.698 596.57 474.318 597.02 474.318C597.47 474.318 597.8 474.668 597.8 475.318C597.8 475.968 597.46 476.318 597.02 476.318C596.58 476.318 596.24 475.898 596.24 475.318ZM597.45 475.318C597.45 474.858 597.27 474.658 597.02 474.658C596.77 474.658 596.59 474.858 596.59 475.318C596.59 475.778 596.76 475.968 597.02 475.968C597.28 475.968 597.48 475.768 597.48 475.318H597.45Z" fill="white"/>
<path d="M598.03 475.318C598.03 474.698 598.37 474.318 598.81 474.318C599.25 474.318 599.59 474.668 599.59 475.318C599.59 475.968 599.26 476.318 598.81 476.318C598.36 476.318 598.03 475.898 598.03 475.318ZM599.24 475.318C599.24 474.858 599.07 474.658 598.81 474.658C598.55 474.658 598.38 474.858 598.38 475.318C598.38 475.778 598.56 475.968 598.81 475.968C599.06 475.968 599.24 475.768 599.24 475.318Z" fill="white"/>
<path d="M602.66 475.198H601.91V473.288H603.82V474.038H602.66V475.198Z" fill="white"/>
<path d="M603.82 477.678H601.91V475.768H602.66V476.928H603.82V477.678Z" fill="white"/>
<path d="M606.84 477.678H604.93V476.928H606.09V475.768H606.84V477.678Z" fill="white"/>
<path d="M606.84 475.198H606.09V474.038H604.93V473.288H606.84V475.198Z" fill="white"/>
<path d="M582.68 386.898C583.957 386.739 585.243 386.669 586.53 386.688H586.74V386.898C586.74 388.358 586.74 390.008 586.74 391.788V392.418L586.29 391.968C586.13 391.808 585.95 391.638 585.78 391.458C585.33 391.008 584.9 390.568 584.47 390.148H584.82L582.82 391.948L582.44 392.288V391.778C582.44 390.268 582.52 389.008 582.56 388.158C582.551 387.732 582.588 387.306 582.67 386.888C582.747 387.357 582.784 387.832 582.78 388.308C582.83 389.168 582.88 390.368 582.9 391.778L582.52 391.608L584.52 389.768L584.7 389.608L584.87 389.778L586.19 391.078L586.7 391.598L586.26 391.778C586.26 389.998 586.26 388.348 586.31 386.888L586.51 387.098C584.3 387.078 582.75 386.968 582.68 386.898Z" fill="white"/>
<path d="M596.85 387.538C596.85 387.538 596.55 387.938 595.92 388.728C595.29 389.518 594.34 390.678 593.18 391.988L592.75 392.468V391.818C592.75 391.048 592.75 390.238 592.75 389.388V389.158L592.83 389.338L591.12 387.678L590.68 387.248H591.29C592.99 387.248 594.44 387.358 595.41 387.418C595.895 387.422 596.38 387.458 596.86 387.528C596.86 387.528 596.18 387.528 595.18 387.618C594.18 387.708 592.84 387.738 591.29 387.738L591.46 387.318L593.19 388.958L593.27 389.028V389.378C593.27 390.228 593.27 391.038 593.27 391.808L592.83 391.638C593.91 390.458 594.89 389.488 595.63 388.748C596.37 388.008 596.8 387.558 596.85 387.538Z" fill="white"/>
<path d="M596.85 387.538C596.91 387.668 596.09 388.138 595.02 388.588C594.406 388.929 593.722 389.124 593.02 389.158C592.96 389.018 593.78 388.548 594.84 388.158C595.9 387.768 596.79 387.398 596.85 387.538Z" fill="white"/>
<path d="M603.76 386.898C603.76 386.898 604 386.808 604.45 386.898C605.091 387.028 605.666 387.383 606.07 387.898C606.378 388.283 606.583 388.74 606.666 389.227C606.748 389.713 606.705 390.213 606.54 390.678C606.317 391.234 605.933 391.711 605.436 392.047C604.94 392.383 604.354 392.562 603.755 392.562C603.156 392.562 602.57 392.383 602.074 392.047C601.577 391.711 601.193 391.234 600.97 390.678C600.811 390.209 600.774 389.708 600.863 389.221C600.953 388.735 601.165 388.279 601.48 387.898C601.887 387.381 602.465 387.026 603.11 386.898C603.55 386.828 603.8 386.898 603.8 386.898C603.59 386.969 603.376 387.029 603.16 387.078C602.602 387.254 602.115 387.604 601.77 388.078C601.528 388.419 601.373 388.814 601.319 389.229C601.265 389.644 601.313 390.066 601.46 390.458C601.592 390.784 601.792 391.079 602.047 391.323C602.301 391.567 602.604 391.754 602.936 391.873C603.268 391.991 603.621 392.038 603.972 392.011C604.324 391.983 604.665 391.881 604.975 391.713C605.284 391.544 605.554 391.311 605.767 391.031C605.98 390.75 606.132 390.428 606.212 390.084C606.292 389.741 606.298 389.385 606.23 389.039C606.163 388.693 606.023 388.366 605.82 388.078C605.477 387.607 604.994 387.257 604.44 387.078C604.21 387.033 603.982 386.972 603.76 386.898Z" fill="white"/>
<path d="M604.69 390.818C604.58 390.918 603.98 390.478 603.34 389.818L603.26 389.738V389.628C603.26 388.708 603.38 387.968 603.52 387.968C603.66 387.968 603.78 388.708 603.78 389.628L603.71 389.448C604.35 390.108 604.79 390.718 604.69 390.818Z" fill="white"/>
<path d="M537.48 390.638C537.48 390.778 518.68 390.898 495.48 390.898C472.28 390.898 453.48 390.778 453.48 390.638C453.48 390.498 472.27 390.378 495.48 390.378C518.69 390.378 537.48 390.488 537.48 390.638Z" fill="white"/>
<path d="M449.58 390.638C449.582 391.295 449.389 391.938 449.025 392.486C448.661 393.033 448.142 393.46 447.535 393.713C446.928 393.965 446.26 394.032 445.615 393.904C444.97 393.776 444.377 393.46 443.912 392.995C443.448 392.53 443.131 391.938 443.003 391.293C442.876 390.648 442.942 389.98 443.195 389.372C443.447 388.765 443.874 388.247 444.422 387.883C444.969 387.519 445.613 387.326 446.27 387.328C447.148 387.328 447.99 387.676 448.611 388.297C449.231 388.918 449.58 389.76 449.58 390.638Z" fill="white"/>
<path d="M530 559.048C529.91 559.158 529.13 558.688 528.26 558.048C527.39 557.408 526.75 556.688 526.85 556.568C526.95 556.448 527.72 556.918 528.6 557.618C529.48 558.318 530.1 558.898 530 559.048Z" fill="#263238"/>
<path d="M553.77 523.518C553.92 520.198 554.01 516.788 552.96 513.638C551.91 510.488 549.48 507.588 546.23 506.918C542.52 506.148 538.71 508.488 536.63 511.658C534.55 514.828 533.84 518.658 533.22 522.418C528.986 548.225 527.424 574.4 528.56 600.528L543.76 602.658C550.48 575.398 552.56 551.558 553.77 523.518Z" fill="#455A64"/>
<path d="M544.12 506.798C544.12 506.798 544.12 506.878 544.05 507.038L543.8 507.728C543.55 508.368 543.22 509.248 542.8 510.348C542.59 510.928 542.3 511.548 542.08 512.248C541.86 512.948 541.6 513.728 541.34 514.548C541.08 515.368 540.79 516.258 540.49 517.198C540.19 518.138 539.98 519.198 539.7 520.198C538.439 525.138 537.461 530.146 536.77 535.198C535.95 540.908 535.41 547.198 534.98 553.888C534.21 567.198 534.09 579.288 533.74 588.028C533.58 592.398 533.43 595.928 533.26 598.368C533.18 599.558 533.12 600.498 533.07 601.178C533.07 601.478 533.07 601.718 533.01 601.908C533.02 601.991 533.02 602.075 533.01 602.158C533.002 602.075 533.002 601.991 533.01 601.908C533.01 601.708 533.01 601.468 533.01 601.178C533.01 600.511 533.04 599.571 533.1 598.358C533.21 595.918 533.3 592.358 533.41 588.018C533.65 579.278 533.71 567.188 534.49 553.858C534.92 547.198 535.49 540.858 536.32 535.128C537.038 530.048 538.06 525.015 539.38 520.058L540.21 517.058L541.1 514.418C541.38 513.598 541.64 512.828 541.89 512.118C542.14 511.408 542.42 510.798 542.65 510.238L543.76 507.648L544.06 506.978C544.07 506.898 544.11 506.788 544.12 506.798Z" fill="#263238"/>
<path d="M545.53 506.808C546.321 507.741 546.947 508.803 547.38 509.948C548.547 513.086 549.021 516.439 548.77 519.778C548.37 528.178 547.61 539.778 546.62 552.518C545.63 565.258 544.5 576.838 543.62 585.188C543.17 589.368 542.78 592.738 542.5 595.068C542.35 596.198 542.24 597.068 542.15 597.748C542.15 598.028 542.08 598.258 542.05 598.448C542.058 598.527 542.058 598.608 542.05 598.688C542.039 598.605 542.039 598.521 542.05 598.438C542.05 598.248 542.05 598.018 542.05 597.738C542.11 597.078 542.2 596.178 542.3 595.048C542.53 592.658 542.85 589.298 543.3 585.148C544.1 576.798 545.15 565.248 546.15 552.478C547.15 539.708 547.97 528.138 548.47 519.768C548.747 516.473 548.339 513.156 547.27 510.028C546.786 508.905 546.204 507.827 545.53 506.808Z" fill="#263238"/>
<path d="M556.06 546.128C555.063 546.056 554.088 545.805 553.18 545.388C552.214 545.136 551.302 544.709 550.49 544.128C552.452 544.453 554.339 545.131 556.06 546.128Z" fill="#263238"/>
<path d="M557.89 530.648C557.07 531.306 556.143 531.82 555.15 532.168C554.217 532.675 553.201 533.014 552.15 533.168C552.97 532.506 553.896 531.989 554.89 531.638C555.825 531.137 556.84 530.802 557.89 530.648Z" fill="#263238"/>
<path d="M556.94 518.008C555.44 518.259 553.901 518.153 552.45 517.698C553.187 517.484 553.964 517.443 554.72 517.578C555.483 517.544 556.244 517.691 556.94 518.008Z" fill="#263238"/>
<path d="M541.26 509.898C541.14 509.978 540.47 509.148 539.78 508.048C539.292 507.417 538.951 506.686 538.78 505.908C538.91 505.828 539.57 506.658 540.27 507.758C540.97 508.858 541.39 509.828 541.26 509.898Z" fill="#263238"/>
<path d="M536.08 517.548C535.392 517.797 534.655 517.876 533.93 517.778C533.198 517.845 532.461 517.735 531.78 517.458C532.471 517.207 533.212 517.128 533.94 517.228C535.13 517.258 536.09 517.398 536.08 517.548Z" fill="#263238"/>
<path d="M532.36 532.838C531.566 532.804 530.791 532.592 530.09 532.218C528.89 531.738 527.97 531.218 528.02 531.088C528.815 531.12 529.592 531.336 530.29 531.718C531.48 532.198 532.42 532.698 532.36 532.838Z" fill="#263238"/>
<path d="M531.97 545.698C531.97 545.848 531.13 546.158 530.03 546.388C529.386 546.602 528.699 546.654 528.03 546.538C528.03 546.388 528.86 546.088 529.96 545.858C530.606 545.637 531.297 545.582 531.97 545.698Z" fill="#263238"/>
<path d="M530.21 566.738C530.21 566.888 529.32 567.178 528.16 567.378C527 567.578 526.04 567.638 526.01 567.488C525.98 567.338 526.91 567.058 528.07 566.848C529.23 566.638 530.19 566.588 530.21 566.738Z" fill="#263238"/>
<path d="M529.05 578.348C529.12 578.478 528.36 579.028 527.34 579.558C526.32 580.088 525.45 580.428 525.34 580.298C525.23 580.168 526.03 579.618 527.05 579.078C528.07 578.538 528.98 578.218 529.05 578.348Z" fill="#263238"/>
<path d="M538.53 591.528C538.4 591.608 537.74 590.678 537.04 589.468C536.548 588.769 536.208 587.975 536.04 587.138C536.17 587.068 536.84 587.988 537.53 589.198C538.025 589.894 538.366 590.689 538.53 591.528Z" fill="#263238"/>
<path d="M541.27 569.628C541.38 569.738 540.63 570.628 539.61 571.628C538.59 572.628 537.67 573.358 537.61 573.248C537.55 573.138 538.25 572.248 539.27 571.248C540.29 570.248 541.17 569.518 541.27 569.628Z" fill="#263238"/>
<path d="M540.66 558.138C540.55 558.238 539.86 557.668 539.12 556.868C538.38 556.068 537.87 555.338 537.98 555.238C538.09 555.138 538.78 555.698 539.52 556.498C540.26 557.298 540.77 558.038 540.66 558.138Z" fill="#263238"/>
<path d="M542.55 543.448C542.66 543.548 542.04 544.448 541.16 545.448C540.28 546.448 539.48 547.138 539.37 547.038C539.26 546.938 539.88 546.038 540.76 545.038C541.64 544.038 542.48 543.348 542.55 543.448Z" fill="#263238"/>
<path d="M543.6 532.798C543.5 532.898 542.6 532.218 541.67 531.278C540.74 530.338 540.02 529.478 540.12 529.368C540.22 529.258 541.12 529.948 542.05 530.888C542.98 531.828 543.71 532.688 543.6 532.798Z" fill="#263238"/>
<path d="M545.68 518.388C545.81 518.468 545.38 519.388 544.68 520.548C543.98 521.708 543.38 522.548 543.25 522.428C543.12 522.308 543.55 521.428 544.25 520.268C544.95 519.108 545.56 518.308 545.68 518.388Z" fill="#263238"/>
<path d="M549.6 505.038C549.483 505.814 549.188 506.553 548.74 507.198C548.13 508.318 547.54 509.198 547.4 509.098C547.523 508.323 547.817 507.585 548.26 506.938C548.87 505.818 549.48 504.968 549.6 505.038Z" fill="#263238"/>
<path d="M554.04 511.108C554.1 511.238 553.5 511.668 552.68 512.108C551.86 512.548 551.15 512.698 551.09 512.568C551.03 512.438 551.63 512.008 552.45 511.618C553.27 511.228 553.97 510.968 554.04 511.108Z" fill="#263238"/>
<path d="M554.15 559.048C553.105 559.063 552.074 558.816 551.15 558.328C550.168 558.004 549.283 557.436 548.58 556.678C550.45 557.421 552.3 558.211 554.13 559.048H554.15Z" fill="#263238"/>
<path d="M552.33 569.198C552.33 569.348 551.44 569.648 550.33 569.868C549.22 570.088 548.21 570.158 548.18 570.008C548.15 569.858 549.07 569.558 550.18 569.338C550.876 569.122 551.612 569.074 552.33 569.198Z" fill="#263238"/>
<path d="M550.1 586.608C548.315 585.534 546.979 583.85 546.34 581.868C547.032 582.601 547.658 583.394 548.21 584.238C548.908 584.971 549.54 585.764 550.1 586.608Z" fill="#263238"/>
<path d="M525.68 594.578C525.58 594.458 526.2 593.768 527.05 593.038C527.9 592.308 528.69 591.798 528.79 591.918C528.89 592.038 528.27 592.718 527.41 593.448C526.55 594.178 525.77 594.688 525.68 594.578Z" fill="#263238"/>
<path d="M518.65 556.578C517.65 553.488 515.81 549.888 512.57 549.838C511.606 549.889 510.674 550.2 509.871 550.736C509.069 551.273 508.426 552.016 508.01 552.888C507.121 554.613 506.697 556.539 506.78 558.478C507.191 572.23 509.548 585.856 513.78 598.948H525.65C525.5 584.549 523.139 570.259 518.65 556.578Z" fill="#455A64"/>
<path d="M497.2 537.138C495.54 530.498 490.59 526.918 484.85 526.588C479.6 527.508 477.57 532.668 476.95 537.958C476.33 543.248 477.95 548.508 479.59 553.578C484.79 569.858 489.993 586.138 495.2 602.418L509.96 600.808C505.29 578.998 502.61 558.778 497.2 537.138Z" fill="#455A64"/>
<path d="M512.57 549.838C512.191 550.369 511.857 550.931 511.57 551.518C510.967 553.194 510.778 554.992 511.02 556.758C511.25 559.018 511.5 561.758 511.88 564.708C512.26 567.658 512.81 570.958 513.47 574.358C514.81 581.178 516.33 587.298 517.28 591.748C517.77 593.978 518.14 595.748 518.37 597.038C518.47 597.618 518.55 598.098 518.62 598.488C518.644 598.657 518.644 598.829 518.62 598.998C518.62 598.998 518.54 598.838 518.46 598.508C518.38 598.178 518.25 597.658 518.11 597.088C517.8 595.768 517.37 593.988 516.86 591.838C515.86 587.408 514.24 581.308 512.86 574.468C512.19 571.048 511.67 567.768 511.31 564.768C511.12 563.268 510.99 561.848 510.87 560.508C510.75 559.168 510.62 557.938 510.55 556.788C510.342 554.966 510.6 553.122 511.3 551.428C511.601 550.811 512.035 550.268 512.57 549.838Z" fill="#263238"/>
<path d="M485.06 526.168C484.408 526.919 483.813 527.718 483.28 528.558C481.917 530.915 481.145 533.567 481.03 536.288C480.965 540.323 481.584 544.339 482.86 548.168C484.15 552.558 485.58 557.378 487.07 562.438C490.01 572.558 492.68 581.708 494.62 588.438L496.85 596.318C497.09 597.218 497.29 597.928 497.43 598.478C497.513 598.724 497.57 598.979 497.6 599.238C497.489 599.003 497.398 598.758 497.33 598.508C497.16 597.968 496.93 597.268 496.65 596.378L494.25 588.548C492.25 581.858 489.55 572.718 486.55 562.628L482.38 548.338C481.108 544.452 480.523 540.374 480.65 536.288C480.799 533.52 481.641 530.834 483.1 528.478C483.618 527.602 484.281 526.821 485.06 526.168Z" fill="#263238"/>
<path d="M506.74 599.228C506.61 599.004 506.5 598.77 506.41 598.528C506.22 598.048 505.9 597.368 505.57 596.448C504.87 594.638 503.96 591.968 503.03 588.608C502.1 585.248 501.17 581.218 500.28 576.708C499.39 572.198 498.48 567.228 497.48 562.028C496.48 556.828 495.31 551.918 493.99 547.528C492.841 543.635 491.401 539.834 489.68 536.158C488.514 533.678 487.177 531.283 485.68 528.988C485.18 528.158 484.68 527.558 484.44 527.128C484.282 526.921 484.145 526.7 484.03 526.468C484.212 526.654 484.379 526.855 484.53 527.068C484.83 527.478 485.32 528.068 485.86 528.868C487.427 531.129 488.814 533.51 490.01 535.988C491.802 539.659 493.297 543.467 494.48 547.378C495.915 552.153 497.1 556.999 498.03 561.898C499.03 567.108 499.93 572.068 500.77 576.588C501.61 581.108 502.52 585.138 503.4 588.488C504.28 591.838 505.13 594.488 505.77 596.358C506.07 597.278 506.35 597.978 506.51 598.468C506.612 598.712 506.69 598.967 506.74 599.228Z" fill="#263238"/>
<path d="M479.85 551.138C479.85 551.288 479.08 551.608 478.06 551.858C477.04 552.108 476.17 552.188 476.14 552.038C476.11 551.888 476.9 551.578 477.93 551.328C478.96 551.078 479.82 550.998 479.85 551.138Z" fill="#263238"/>
<path d="M478.29 541.068C477.481 541.296 476.639 541.387 475.8 541.338C474.965 541.456 474.116 541.428 473.29 541.258C474.07 540.902 474.924 540.741 475.78 540.788C476.627 540.67 477.49 540.766 478.29 541.068Z" fill="#263238"/>
<path d="M479.95 531.898C479.85 532.008 479.05 531.488 478.16 530.728C477.27 529.968 476.62 529.268 476.72 529.158C476.82 529.048 477.62 529.558 478.51 530.318C479.4 531.078 480.05 531.748 479.95 531.898Z" fill="#263238"/>
<path d="M484.48 523.348C484.63 523.348 484.59 524.098 484.57 524.968C484.55 525.838 484.57 526.558 484.39 526.578C484.21 526.598 484 525.878 484.03 524.948C484.06 524.018 484.31 523.318 484.48 523.348Z" fill="#263238"/>
<path d="M493.65 527.358C493.78 527.448 493.42 528.178 492.85 528.988C492.28 529.798 491.72 530.388 491.6 530.298C491.48 530.208 491.84 529.488 492.4 528.678C492.96 527.868 493.53 527.278 493.65 527.358Z" fill="#263238"/>
<path d="M499.62 537.738C499.68 537.878 498.92 538.318 497.92 538.738C496.92 539.158 496.06 539.358 496 539.218C495.94 539.078 496.71 538.638 497.71 538.218C498.71 537.798 499.57 537.598 499.62 537.738Z" fill="#263238"/>
<path d="M503.25 548.408C501.817 549.386 500.065 549.783 498.35 549.518C499.133 549.207 499.953 548.999 500.79 548.898C501.585 548.627 502.412 548.463 503.25 548.408Z" fill="#263238"/>
<path d="M486.62 545.378C486.47 545.328 486.62 544.598 486.85 543.728C487.08 542.858 487.45 542.198 487.6 542.248C487.75 542.298 487.6 543.028 487.36 543.888C487.12 544.748 486.76 545.418 486.62 545.378Z" fill="#263238"/>
<path d="M488.94 558.778C488.986 557.997 489.212 557.237 489.6 556.558C490.11 555.388 490.6 554.498 490.77 554.558C490.722 555.337 490.493 556.093 490.1 556.768C489.59 557.898 489.07 558.838 488.94 558.778Z" fill="#263238"/>
<path d="M483.2 562.438C482.469 562.431 481.748 562.275 481.08 561.978C479.95 561.618 479.03 561.298 479.08 561.148C479.13 560.998 480.08 561.098 481.25 561.458C482.42 561.818 483.26 562.308 483.2 562.438Z" fill="#263238"/>
<path d="M486.48 573.368C486.57 573.488 485.93 574.088 485.07 574.708C484.21 575.328 483.43 575.708 483.34 575.608C483.25 575.508 483.88 574.888 484.75 574.268C485.62 573.648 486.42 573.248 486.48 573.368Z" fill="#263238"/>
<path d="M489.16 584.258C489.16 584.408 488.41 584.718 487.41 584.958C486.41 585.198 485.57 585.288 485.54 585.138C485.51 584.988 486.28 584.678 487.28 584.438C488.28 584.198 489.12 584.108 489.16 584.258Z" fill="#263238"/>
<path d="M503.54 557.508C503.61 557.628 502.94 558.168 501.97 558.508C501 558.848 500.14 558.918 500.12 558.778C500.1 558.638 500.85 558.348 501.78 557.998C502.71 557.648 503.48 557.378 503.54 557.508Z" fill="#263238"/>
<path d="M505.59 574.448C505.53 574.588 504.73 574.348 503.81 573.908C502.89 573.468 502.2 573.018 502.26 572.908C502.32 572.798 503.12 573.008 504.04 573.438C504.96 573.868 505.66 574.318 505.59 574.448Z" fill="#263238"/>
<path d="M509.22 586.578C508.4 586.539 507.599 586.324 506.87 585.948C505.63 585.458 504.66 584.948 504.72 584.808C505.539 584.849 506.34 585.064 507.07 585.438C507.86 585.658 508.594 586.047 509.22 586.578Z" fill="#263238"/>
<path d="M489.74 596.078C489.67 595.938 490.63 595.288 491.74 594.408C492.85 593.528 493.74 592.738 493.84 592.848C493.94 592.958 493.24 593.918 492.08 594.848C491.428 595.465 490.618 595.891 489.74 596.078Z" fill="#263238"/>
<path d="M499.33 589.898C499.17 589.898 498.96 589.098 498.59 588.158C498.22 587.218 497.84 586.458 497.96 586.368C498.08 586.278 498.71 586.938 499.1 587.958C499.49 588.978 499.48 589.898 499.33 589.898Z" fill="#263238"/>
<path d="M496.78 575.328C496.7 575.448 496.08 575.148 495.4 574.668C494.72 574.188 494.25 573.668 494.34 573.568C494.43 573.468 495.04 573.738 495.72 574.228C496.4 574.718 496.87 575.208 496.78 575.328Z" fill="#263238"/>
<path d="M519.13 552.468C519.22 552.598 518.62 553.188 517.79 553.808C516.96 554.428 516.21 554.808 516.12 554.698C516.03 554.588 516.63 553.978 517.46 553.368C518.29 552.758 519.04 552.348 519.13 552.468Z" fill="#263238"/>
<path d="M522.48 561.678C522.48 561.828 521.55 562.028 520.38 561.898C519.21 561.768 518.38 561.378 518.38 561.238C518.38 561.098 519.38 561.238 520.44 561.358C521.5 561.478 522.48 561.528 522.48 561.678Z" fill="#263238"/>
<path d="M508.02 563.748C508.02 563.888 507.18 564.198 506.02 564.278C504.86 564.358 504.02 564.158 504.02 564.008C504.02 563.858 504.92 563.808 506.02 563.738C507.12 563.668 507.99 563.598 508.02 563.748Z" fill="#263238"/>
<path d="M509.27 555.038C509.27 555.188 508.37 555.208 507.41 554.758C506.45 554.308 505.88 553.628 505.98 553.528C506.08 553.428 506.75 553.868 507.63 554.268C508.51 554.668 509.29 554.898 509.27 555.038Z" fill="#263238"/>
<path d="M523.74 571.568C523.66 571.688 522.74 571.268 521.74 570.618C520.74 569.968 519.93 569.328 520.01 569.208C520.09 569.088 521.01 569.498 522.01 570.158C523.01 570.818 523.82 571.438 523.74 571.568Z" fill="#263238"/>
<path d="M559.07 597.408H481.83V611.098H559.07V597.408Z" fill="#934C67"/>
<path d="M487.6 608.378L496.99 649.288H543.03L553.3 608.378H487.6Z" fill="#934C67"/>
<path d="M559.03 611.108C559.03 611.258 541.61 611.388 520.12 611.388C498.63 611.388 481.2 611.258 481.2 611.108C481.2 610.958 498.62 610.838 520.12 610.838C541.62 610.838 559.03 610.968 559.03 611.108Z" fill="#263238"/>
<path d="M516.07 564.048C515.94 564.128 515.42 563.508 514.89 562.668C514.36 561.828 514.05 561.088 514.17 561.008C514.29 560.928 514.83 561.548 515.35 562.378C515.87 563.208 516.2 563.968 516.07 564.048Z" fill="#263238"/>
<path d="M516.1 575.058C516.061 574.342 516.198 573.628 516.5 572.978C516.87 571.878 517.28 571.028 517.42 571.078C517.56 571.128 517.42 572.078 517.02 573.148C516.62 574.218 516.24 575.108 516.1 575.058Z" fill="#263238"/>
<path d="M519.87 586.628C519.73 586.688 519.16 585.768 518.58 584.558C518.148 583.859 517.875 583.074 517.78 582.258C517.92 582.198 518.49 583.118 519.07 584.328C519.507 585.024 519.78 585.81 519.87 586.628Z" fill="#263238"/>
<path d="M511.71 595.898C511.6 595.798 512.06 595.078 512.71 594.298C513.36 593.518 514.04 592.958 514.15 593.048C514.26 593.138 513.8 593.868 513.15 594.648C512.5 595.428 511.83 596.028 511.71 595.898Z" fill="#263238"/>
<path d="M510 579.038C510 579.178 509.23 579.178 508.34 579.038C507.45 578.898 506.75 578.638 506.77 578.488C506.79 578.338 507.54 578.348 508.43 578.488C509.32 578.628 510.03 578.898 510 579.038Z" fill="#263238"/>
<path d="M339.89 371.658L286.89 352.658C290.36 393.998 293.73 436.368 282.74 476.368C281.55 480.698 280.5 486.118 283.94 488.998C286 490.718 288.94 490.778 291.63 490.698C297.123 490.531 302.607 490.128 308.08 489.488C313.9 488.818 320.08 487.678 324.25 483.538C327.72 480.058 329.12 475.078 330.25 470.308C338.169 438.055 341.415 404.833 339.89 371.658Z" fill="#263238"/>
<path d="M253.12 542.298L259.4 534.068L263.6 512.068L273.16 458.518C273.16 458.518 277.37 438.378 290.36 432.608L293.11 486.108L266.61 553.338L253.12 542.298Z" fill="#934C67"/>
<path d="M310.08 418.048L302.27 427.288L290.36 432.588C290.36 432.588 264.14 482.668 263.48 483.138C262.82 483.608 258.57 497.888 260.91 510.058C263.25 522.228 264.91 538.148 264.65 549.608C264.39 561.068 249.4 598.768 248.48 607.428C247.56 616.088 244.48 649.558 244.48 649.558L376.96 648.558C375.758 640.144 374.116 631.799 372.04 623.558C372.04 623.558 371.57 590.318 366.66 583.998C366.66 583.998 370.4 575.338 369.94 570.428C369.48 565.518 389.6 539.298 393.58 530.168C397.56 521.038 413.24 500.168 413.47 485.228C413.7 470.288 411.36 457.608 403.87 447.308C396.38 437.008 382.81 429.988 377.19 426.248L366.19 412.198L310.08 418.048Z" fill="#934C67"/>
<path d="M262.85 649.558C262.837 649.425 262.837 649.291 262.85 649.158C262.85 648.868 262.85 648.478 262.85 647.978C262.85 646.918 262.96 645.408 263.04 643.468C263.21 639.528 263.44 633.868 263.73 626.888C263.85 623.388 263.98 619.548 264.03 615.428C264.03 613.428 264.03 611.248 264.03 609.058C263.988 606.779 264.213 604.504 264.7 602.278C265.825 597.551 267.272 592.907 269.03 588.378C269.931 585.99 270.695 583.552 271.32 581.078C271.569 579.803 271.739 578.514 271.83 577.218L272.22 573.218C272.76 567.898 273.28 562.708 273.78 557.688C274.04 555.178 274.28 552.688 274.53 550.298C274.78 547.908 275.08 545.528 275.15 543.218C275.711 535.045 276.823 526.92 278.48 518.898C279.83 512.018 281.07 506.478 281.87 502.638C282.27 500.748 282.58 499.268 282.79 498.228L283.04 497.078C283.063 496.945 283.096 496.815 283.14 496.688C283.135 496.822 283.118 496.956 283.09 497.088C283.04 497.378 282.98 497.758 282.9 498.248C282.7 499.248 282.42 500.778 282.07 502.688C281.33 506.538 280.15 512.078 278.84 518.968C277.233 527.008 276.157 535.146 275.62 543.328C275.56 545.648 275.23 547.998 275.01 550.418C274.79 552.838 274.53 555.298 274.28 557.808L272.73 573.348L272.34 577.348C272.243 578.664 272.066 579.973 271.81 581.268C271.187 583.765 270.416 586.223 269.5 588.628C267.742 593.134 266.292 597.755 265.16 602.458C264.678 604.644 264.446 606.879 264.47 609.118C264.54 611.328 264.53 613.458 264.47 615.518C264.4 619.638 264.25 623.518 264.11 626.978C263.81 633.978 263.49 639.648 263.26 643.558C263.13 645.498 263.03 647.008 262.96 648.068C262.92 648.561 262.89 648.951 262.87 649.238C262.868 649.345 262.862 649.451 262.85 649.558Z" fill="#263238"/>
<path d="M283.48 496.218C283.48 495.148 288.18 476.998 298 461.828C307.82 446.658 310 433.418 310 433.418L310.16 413.838L311 416.358L360.8 409.138L362.31 416.338L328.98 446.448C328.98 446.448 313.58 449.448 312.98 449.868C312.38 450.288 283.48 496.218 283.48 496.218Z" fill="#EFBDA8"/>
<path d="M377.19 426.268C377.065 426.511 376.918 426.742 376.75 426.958C376.45 427.408 376 428.068 375.41 428.898C374.23 430.568 372.47 432.948 370.24 435.848C368.01 438.748 365.3 442.158 362.38 446.008C360.92 447.938 359.38 450.008 357.88 452.108C357.503 452.671 357.085 453.205 356.63 453.708C356.133 454.259 355.456 454.614 354.72 454.708C353.98 454.713 353.254 454.505 352.63 454.108C352.01 453.748 351.45 453.368 350.86 452.988L344 448.588C342.89 447.878 341.81 447.158 340.74 446.508C339.771 445.807 338.594 445.455 337.4 445.508C336.274 445.715 335.221 446.207 334.34 446.938C333.44 447.618 332.55 448.308 331.62 448.878C329.899 449.934 328.023 450.713 326.06 451.188C323.227 451.897 320.272 451.966 317.41 451.388C316.961 451.305 316.517 451.199 316.08 451.068C315.7 450.958 315.38 450.868 315.08 450.768C314.816 450.689 314.561 450.581 314.32 450.448C314.588 450.504 314.852 450.577 315.11 450.668C315.37 450.748 315.69 450.828 316.11 450.918C316.548 451.03 316.992 451.12 317.44 451.188C320.272 451.687 323.178 451.567 325.96 450.838C327.876 450.344 329.704 449.558 331.38 448.508C332.28 447.948 333.14 447.268 334.06 446.568C334.996 445.777 336.124 445.246 337.33 445.028C338.627 444.945 339.915 445.297 340.99 446.028C342.08 446.698 343.15 447.398 344.27 448.108L351.13 452.498C352.3 453.208 353.43 454.198 354.67 454.138C355.282 454.06 355.844 453.761 356.25 453.298C356.691 452.815 357.095 452.3 357.46 451.758C358.99 449.628 360.52 447.588 361.99 445.668C364.93 441.828 367.68 438.448 369.99 435.578C372.3 432.708 374.05 430.358 375.28 428.728L376.71 426.848C376.858 426.645 377.018 426.451 377.19 426.268Z" fill="#263238"/>
<path d="M302.27 483.398C302.469 482.901 302.717 482.425 303.01 481.978C303.51 481.088 304.28 479.808 305.25 478.248C307.25 475.128 310.03 470.898 313.42 466.418C316.81 461.938 320.1 458.068 322.58 455.348C323.82 453.988 324.84 452.908 325.58 452.178C325.935 451.779 326.323 451.411 326.74 451.078C326.444 451.517 326.109 451.928 325.74 452.308C325.01 453.158 324.04 454.258 322.88 455.588C320.49 458.368 317.24 462.268 313.88 466.738C310.52 471.208 307.63 475.388 305.61 478.448C304.61 479.928 303.84 481.148 303.23 482.088C302.947 482.55 302.626 482.988 302.27 483.398Z" fill="#263238"/>
<path d="M306.57 487.238H306.76L307.33 487.358L309.54 487.828C311.48 488.248 314.32 488.828 317.94 489.598C319.75 489.958 321.76 490.348 323.94 490.728C325.04 490.918 326.18 491.078 327.37 491.258C328.56 491.438 329.79 491.738 331.04 492.068C333.54 492.708 336.16 493.548 338.89 494.498C340.26 494.978 341.65 495.498 343.07 496.048C343.78 496.328 344.49 496.608 345.21 496.918L346.28 497.388L346.82 497.648L347.1 497.798L347.24 497.888L347.31 497.948C347.377 498.008 347.422 498.089 347.44 498.178V498.238L337 531.578C336.425 532.652 335.756 533.672 335 534.628C334.245 535.639 333.357 536.544 332.36 537.318C331.99 537.599 331.578 537.822 331.14 537.978L329.9 538.398L327.44 539.228L322.62 540.898L313.24 544.048L313.1 544.098L312.99 543.998L303.18 534.908L300.86 532.748C300.074 532.055 299.326 531.321 298.62 530.548C297.925 529.749 297.468 528.772 297.3 527.728C297.169 526.73 297.189 525.719 297.36 524.728C298.7 517.068 300.21 510.358 301.58 504.788C302.95 499.218 304.21 494.788 305.1 491.788L306.16 488.338L306.45 487.458C306.478 487.353 306.519 487.253 306.57 487.158C306.57 487.158 306.57 487.268 306.5 487.468C306.43 487.668 306.35 487.988 306.25 488.368L305.25 491.828C304.41 494.828 303.2 499.258 301.87 504.828C300.54 510.398 299.07 517.118 297.78 524.748C297.615 525.696 297.595 526.663 297.72 527.618C297.876 528.582 298.307 529.481 298.96 530.208C299.65 530.964 300.381 531.682 301.15 532.358L303.48 534.598L313.3 543.668H313.05L322.42 540.498L327.28 538.858L329.74 538.028L330.98 537.608C331.365 537.467 331.726 537.268 332.05 537.018C333.007 536.269 333.86 535.399 334.59 534.428C335.312 533.484 335.951 532.481 336.5 531.428L347.01 498.108L347.2 498.178C341.918 495.905 336.493 493.981 330.96 492.418C329.72 492.088 328.5 491.808 327.33 491.598C326.16 491.388 324.99 491.238 323.89 491.038C321.7 490.648 319.69 490.238 317.89 489.858C314.27 489.088 311.44 488.428 309.51 487.968L307.31 487.428L306.75 487.278C306.63 487.268 306.56 487.248 306.57 487.238Z" fill="#263238"/>
<g opacity="0.3">
<path d="M307.66 602.728C296.08 600.978 279.99 596.148 266.79 593.388C262.08 592.388 258 591.268 253.29 590.288L252.48 592.898C265.855 595.783 278.797 600.399 290.98 606.628C298.3 610.378 305.56 614.758 313.7 615.948C322.81 617.288 331.96 614.488 340.7 611.718C345.7 610.148 350.85 608.438 354.38 604.638C356.87 601.948 358.29 598.468 359.6 595.048C363.047 586.001 366.063 576.801 368.65 567.448C352.93 585.108 331.03 606.268 307.66 602.728Z" fill="black"/>
</g>
<path d="M362.26 488.758L328.98 549.958C328.98 549.958 321.26 551.508 321.26 559.678C321.26 559.678 318.57 557.528 314.66 559.858C312.15 561.348 305.08 563.338 301.17 565.428C300.235 565.924 299.497 566.725 299.079 567.698C298.661 568.671 298.587 569.757 298.87 570.778L309.2 608.308C309.2 608.308 321.75 608.308 322.86 605.198L340.07 599.808C340.07 599.808 351.18 596.898 355.48 589.478C359.78 582.058 385.4 543.898 385.4 543.898" fill="#934C67"/>
<path d="M385.4 543.898C385.4 543.898 385.33 544.038 385.17 544.288C385.01 544.538 384.76 544.908 384.46 545.388L381.66 549.638L371.18 565.478C368.95 568.878 366.49 572.618 363.84 576.678C361.19 580.738 358.34 585.098 355.48 589.828C353.917 592.259 351.829 594.309 349.37 595.828C346.832 597.458 344.097 598.759 341.23 599.698L322.94 605.438L323.1 605.278C322.827 605.86 322.366 606.332 321.79 606.618C321.255 606.902 320.692 607.13 320.11 607.298C318.953 607.645 317.769 607.896 316.57 608.048C314.127 608.379 311.665 608.552 309.2 608.568H309V608.378L303.17 587.198C302.117 583.391 301.08 579.621 300.06 575.888C299.56 574.008 299.06 572.208 298.56 570.308C298.404 569.315 298.555 568.298 298.993 567.394C299.431 566.49 300.135 565.741 301.01 565.248C304.359 563.683 307.791 562.301 311.29 561.108C312.13 560.778 312.96 560.448 313.76 560.108C314.543 559.664 315.355 559.273 316.19 558.938C317.053 558.617 317.98 558.504 318.895 558.606C319.81 558.708 320.689 559.024 321.46 559.528L321.06 559.718C321.017 557.358 321.811 555.059 323.3 553.228C324.786 551.505 326.777 550.295 328.99 549.768L328.83 549.888C338.77 531.688 347.12 516.408 352.98 505.658L359.83 493.198C360.63 491.768 361.24 490.678 361.66 489.908L362.14 489.078C362.189 488.98 362.246 488.886 362.31 488.798C362.31 488.798 362.31 488.898 362.17 489.088L361.72 489.948C361.32 490.718 360.72 491.828 359.96 493.268C358.39 496.178 356.11 500.418 353.23 505.788L329.23 550.108V550.198H329.12C327.013 550.71 325.118 551.867 323.7 553.508C322.285 555.252 321.537 557.442 321.59 559.688V560.158L321.2 559.878C320.494 559.427 319.692 559.147 318.859 559.06C318.026 558.974 317.184 559.082 316.4 559.378C315.585 559.708 314.793 560.092 314.03 560.528C313.21 560.918 312.37 561.258 311.52 561.588C308.044 562.774 304.636 564.149 301.31 565.708C300.527 566.15 299.899 566.821 299.507 567.631C299.116 568.44 298.981 569.349 299.12 570.238C299.55 572.028 300.12 573.908 300.61 575.758C301.63 579.484 302.667 583.258 303.72 587.078C305.72 594.328 307.67 601.438 309.54 608.248L309.3 608.058C311.741 608.049 314.18 607.882 316.6 607.558C317.774 607.404 318.934 607.16 320.07 606.828C320.614 606.67 321.14 606.455 321.64 606.188C322.112 605.962 322.495 605.585 322.73 605.118L322.78 605.008H322.89L341.18 599.308C343.997 598.381 346.685 597.101 349.18 595.498C351.587 594.018 353.636 592.024 355.18 589.658C358.06 584.928 360.93 580.578 363.58 576.518L370.98 565.348L381.48 549.498L384.34 545.288L385.09 544.208C385.3 543.968 385.4 543.898 385.4 543.898Z" fill="#263238"/>
<path d="M367.39 569.428C367.298 569.241 367.234 569.043 367.2 568.838C367.08 568.398 366.94 567.838 366.76 567.138C366.37 565.578 365.85 563.448 365.2 560.828C363.89 555.518 362.04 548.178 359.86 540.108C357.68 532.038 355.58 524.768 354.03 519.508L352.2 513.278L351.71 511.588C351.643 511.39 351.599 511.185 351.58 510.978C351.679 511.161 351.756 511.356 351.81 511.558L352.39 513.218C352.88 514.678 353.56 516.788 354.39 519.398C356.03 524.628 358.18 531.898 360.39 539.968C362.6 548.038 364.39 555.408 365.59 560.748C366.2 563.418 366.68 565.588 366.99 567.088L367.33 568.818C367.363 569.019 367.383 569.223 367.39 569.428Z" fill="white"/>
<path d="M355.25 588.558C355.11 588.558 352.33 574.088 349.05 556.188C345.77 538.288 343.21 523.738 343.35 523.708C343.49 523.678 346.27 538.178 349.56 556.088C352.85 573.998 355.39 588.538 355.25 588.558Z" fill="white"/>
<path d="M300.48 503.618C300.56 503.738 295.68 507.198 289.59 511.348C283.5 515.498 278.48 518.758 278.4 518.638C278.32 518.518 283.2 515.058 289.29 510.918C295.38 506.778 300.4 503.498 300.48 503.618Z" fill="white"/>
<path d="M297.24 516.678C297.032 516.96 296.79 517.215 296.52 517.438C296.03 517.908 295.32 518.558 294.42 519.348C292.62 520.938 290.1 523.078 287.23 525.348C284.36 527.618 281.71 529.608 279.76 530.998C278.76 531.698 277.99 532.248 277.43 532.618C277.148 532.823 276.847 533.001 276.53 533.148C276.758 532.881 277.021 532.646 277.31 532.448L279.54 530.698C281.44 529.238 284.05 527.218 286.91 524.938C289.77 522.658 292.33 520.578 294.18 519.058L296.39 517.278C296.646 517.041 296.932 516.84 297.24 516.678Z" fill="white"/>
<path d="M275.48 518.098C275.36 518.188 271.88 513.618 267.71 507.908C263.54 502.198 260.24 497.488 260.36 497.398C260.48 497.308 263.95 501.878 268.13 507.598C272.31 513.318 275.61 518.018 275.48 518.098Z" fill="white"/>
<path d="M273.75 535.628C273.1 535.188 272.505 534.671 271.98 534.088C270.98 533.088 269.56 531.628 268.13 529.938C266.7 528.248 265.5 526.648 264.68 525.448C264.195 524.834 263.788 524.162 263.47 523.448C264.035 523.986 264.541 524.582 264.98 525.228C265.87 526.368 267.11 527.918 268.53 529.598C269.95 531.278 271.28 532.768 272.24 533.838C272.801 534.383 273.307 534.983 273.75 535.628Z" fill="white"/>
<path d="M364.7 441.758C363.84 441.265 363.018 440.71 362.24 440.098L356.48 435.898C354.23 434.248 352.22 432.728 350.79 431.588C349.983 431.011 349.232 430.358 348.55 429.638C349.414 430.119 350.237 430.671 351.01 431.288L356.79 435.478C359.04 437.128 361.06 438.648 362.49 439.788C363.291 440.368 364.032 441.028 364.7 441.758Z" fill="white"/>
<path d="M369.26 435.438C366.748 433.693 364.337 431.806 362.04 429.788C359.63 427.896 357.326 425.873 355.14 423.728C357.658 425.472 360.072 427.362 362.37 429.388C364.779 431.272 367.08 433.292 369.26 435.438Z" fill="white"/>
<path d="M321.21 498.898C321.35 498.898 319.57 508.898 317.21 521.088C314.85 533.278 312.85 543.198 312.71 543.178C312.57 543.158 314.36 533.178 316.71 520.988C319.06 508.798 321.07 498.818 321.21 498.898Z" fill="white"/>
<path d="M346.53 573.318C346.227 573.217 345.938 573.08 345.67 572.908C345.12 572.618 344.36 572.158 343.43 571.558C341.037 569.963 338.806 568.137 336.77 566.108C334.735 564.075 332.909 561.844 331.32 559.448C330.72 558.528 330.26 557.768 329.97 557.218C329.794 556.949 329.659 556.656 329.57 556.348C329.64 556.348 330.35 557.468 331.63 559.238C333.29 561.551 335.133 563.728 337.14 565.748C339.161 567.749 341.334 569.591 343.64 571.258C345.42 572.528 346.58 573.238 346.53 573.318Z" fill="#263238"/>
<path d="M347.63 554.118C346.708 554.403 345.754 554.575 344.79 554.628C340.142 555.106 335.445 554.609 331 553.168C330.067 552.916 329.17 552.546 328.33 552.068C328.33 551.998 329.4 552.358 331.11 552.818C333.325 553.426 335.586 553.854 337.87 554.098C340.159 554.335 342.462 554.391 344.76 554.268C345.713 554.162 346.671 554.111 347.63 554.118Z" fill="#263238"/>
<path d="M276.12 459.048C276.108 459.13 276.084 459.211 276.05 459.288L275.78 459.968C275.56 460.568 275.18 461.438 274.67 462.538C273.67 464.748 271.94 467.828 269.72 471.538C267.013 475.832 264.71 480.368 262.84 485.088L262.48 486.088L262.18 487.088C261.99 487.788 261.79 488.508 261.6 489.228C261.387 489.951 261.23 490.69 261.13 491.438C261.01 492.188 260.88 492.948 260.75 493.718C260.57 495.258 260.47 496.838 260.38 498.438C260.38 499.238 260.38 500.048 260.38 500.868C260.38 501.688 260.38 502.498 260.45 503.318C260.935 509.557 261.797 515.762 263.03 521.898C264.008 526.9 264.696 531.955 265.09 537.038C265.29 539.198 265.19 541.178 265.22 542.908C265.08 544.628 265 546.118 264.85 547.328C264.7 548.538 264.48 549.418 264.36 550.088L264.22 550.798C264.207 550.88 264.183 550.961 264.15 551.038C264.139 550.955 264.139 550.871 264.15 550.788C264.15 550.601 264.18 550.361 264.24 550.068C264.33 549.398 264.46 548.468 264.63 547.308C264.8 546.148 264.8 544.618 264.91 542.898C264.85 541.178 264.91 539.218 264.7 537.058C264.252 531.999 263.53 526.968 262.54 521.988C261.284 515.871 260.409 509.683 259.92 503.458C259.85 502.628 259.84 501.808 259.85 500.978C259.86 500.148 259.85 499.348 259.85 498.528C259.95 496.918 260.05 495.318 260.23 493.758C260.37 492.988 260.5 492.218 260.63 491.458C260.73 490.7 260.887 489.951 261.1 489.218C261.31 488.488 261.51 487.768 261.71 487.058L262.01 485.998C262.13 485.648 262.26 485.308 262.38 484.998C264.274 480.261 266.618 475.717 269.38 471.428C271.63 467.718 273.38 464.678 274.46 462.498C274.99 461.408 275.4 460.568 275.66 459.978C275.78 459.708 275.88 459.498 275.97 459.318C276.003 459.219 276.054 459.128 276.12 459.048Z" fill="#263238"/>
<path d="M310.08 418.048L309.95 418.258L309.55 418.838C309.2 419.358 308.63 420.088 307.88 421.008C306.37 422.858 304.08 425.438 301.19 428.608C299.76 430.208 298.19 431.948 296.49 433.828C294.79 435.708 293.03 437.768 291.34 440.068C287.884 445.265 285.67 451.188 284.87 457.378L284.38 457.238C285.186 455.707 286.126 454.252 287.19 452.888C287.73 452.158 288.27 451.428 288.77 450.688C289.02 450.318 289.27 449.948 289.49 449.568L289.82 448.998L289.98 448.708L290.05 448.558V448.488L290.11 448.398C290.142 448.359 290.184 448.329 290.232 448.312C290.279 448.294 290.33 448.289 290.38 448.298C290.426 448.306 290.47 448.324 290.508 448.352C290.546 448.38 290.578 448.416 290.6 448.458V448.518V448.598L290.66 448.758L290.78 449.078C290.869 449.284 290.94 449.498 290.99 449.718C291.121 450.149 291.218 450.591 291.28 451.038C291.421 451.91 291.478 452.794 291.45 453.678C291.215 456.992 290.666 460.277 289.81 463.488C288.64 469.728 286.5 475.068 285.23 479.658C284.114 483.257 283.492 486.991 283.38 490.758C283.366 491.779 283.413 492.801 283.52 493.818C283.52 494.138 283.59 494.408 283.61 494.608C283.625 494.7 283.625 494.795 283.61 494.888C283.305 493.532 283.154 492.147 283.16 490.758C283.196 486.962 283.771 483.191 284.87 479.558C286.1 474.928 288.19 469.558 289.33 463.388C290.164 460.204 290.7 456.95 290.93 453.668C290.953 452.814 290.896 451.96 290.76 451.118C290.7 450.691 290.606 450.27 290.48 449.858C290.436 449.649 290.373 449.444 290.29 449.248L290.17 448.948L290.12 448.798V448.718C290.2 448.718 289.92 448.788 290.31 448.618C290.14 448.528 290.55 448.728 290.5 448.718V448.788L290.48 448.898L290.32 449.208L289.98 449.798C289.74 450.188 289.5 450.568 289.24 450.938C288.73 451.688 288.19 452.418 287.65 453.158C286.608 454.491 285.684 455.913 284.89 457.408L284.15 458.968L284.4 457.268C285.212 450.996 287.475 445.001 291.01 439.758C292.72 437.438 294.53 435.408 296.22 433.518C297.91 431.628 299.52 429.908 300.98 428.328C303.9 425.188 306.23 422.648 307.77 420.848C308.54 419.938 309.13 419.238 309.51 418.738L309.95 418.188C310.01 418.098 310.07 418.038 310.08 418.048Z" fill="#263238"/>
<path d="M312.15 560.768C312.281 560.865 312.399 560.979 312.5 561.108L313.43 562.158C313.927 562.703 314.391 563.277 314.82 563.878C315.33 564.578 315.96 565.348 316.53 566.268C317.1 567.188 317.78 568.188 318.38 569.318C318.98 570.448 319.61 571.658 320.24 572.958C321.519 575.814 322.549 578.775 323.32 581.808C324.038 584.853 324.496 587.954 324.69 591.078C324.69 592.518 324.8 593.888 324.69 595.168C324.672 596.358 324.592 597.546 324.45 598.728C324.38 599.818 324.18 600.788 324.05 601.638C323.944 602.369 323.797 603.093 323.61 603.808L323.27 605.168C323.243 605.331 323.192 605.489 323.12 605.638C323.112 605.473 323.129 605.307 323.17 605.148C323.24 604.768 323.32 604.318 323.41 603.768C323.5 603.218 323.67 602.448 323.76 601.588C323.85 600.728 324.04 599.778 324.09 598.688C324.14 597.598 324.27 596.438 324.26 595.158C324.25 593.878 324.26 592.538 324.18 591.108C323.962 588.018 323.494 584.951 322.78 581.938C322.023 578.933 321.019 575.997 319.78 573.158C319.17 571.868 318.62 570.628 317.98 569.528C317.34 568.428 316.78 567.388 316.2 566.478C315.62 565.568 315.05 564.758 314.57 564.058C314.09 563.358 313.63 562.758 313.25 562.288L312.4 561.178C312.301 561.051 312.217 560.913 312.15 560.768Z" fill="#263238"/>
<path d="M343.9 506.298C343.382 506.174 342.876 506.004 342.39 505.788L338.32 504.298C334.87 503.048 330.07 501.458 324.67 500.028C319.27 498.598 314.3 497.588 310.67 496.958L306.39 496.238C305.86 496.177 305.335 496.077 304.82 495.938C305.355 495.922 305.891 495.955 306.42 496.038C307.42 496.138 308.91 496.328 310.73 496.598C315.445 497.321 320.119 498.296 324.73 499.518C329.388 500.75 333.978 502.228 338.48 503.948C340.19 504.618 341.56 505.178 342.48 505.608C342.972 505.796 343.447 506.027 343.9 506.298Z" fill="#263238"/>
<g opacity="0.3">
<path d="M338.48 576.828C337.747 575.476 336.794 574.256 335.66 573.218L321.3 558.598V559.678C324.49 561.848 325.17 566.248 326.09 569.998C327.01 573.748 327.81 577.758 330.42 580.608C331.451 581.807 332.863 582.616 334.42 582.898C335.191 583.03 335.984 582.943 336.708 582.648C337.433 582.353 338.061 581.861 338.52 581.228C338.878 580.548 339.062 579.79 339.055 579.023C339.048 578.255 338.85 577.5 338.48 576.828Z" fill="black"/>
</g>
<g opacity="0.3">
<path d="M318.75 542.148C317.22 542.867 315.517 543.135 313.84 542.918C312.42 542.454 311.143 541.635 310.13 540.538L298.18 529.648C301.6 534.648 304.34 539.768 307.76 544.798C308.68 546.158 309.7 547.588 311.24 548.148C312.78 548.708 314.64 548.218 316.24 547.608C321.988 545.397 327.188 541.964 331.48 537.548L318.75 542.148Z" fill="black"/>
</g>
<g opacity="0.3">
<path d="M303.74 480.388C314.91 475.038 318.93 460.178 330.02 454.648C333.216 453.101 336.766 452.436 340.305 452.721C343.844 453.005 347.243 454.23 350.15 456.268C352.07 457.648 354.2 459.488 356.48 458.838C358.2 458.348 359.19 456.598 360 455.008C362.773 449.581 365.547 444.148 368.32 438.708L357.41 451.568C356.713 452.572 355.725 453.34 354.58 453.768C352.38 454.338 350.79 451.868 348.76 450.858C342.44 447.708 338 443.738 334.48 446.398C334.48 446.398 328.33 450.628 325.87 451.078L303.74 479.968" fill="black"/>
</g>
<g opacity="0.3">
<path d="M284.72 491.268C283.8 486.348 284.9 480.908 286.93 476.338C288.96 471.768 291.51 467.338 292.76 462.518C293.76 458.638 293.9 454.587 293.17 450.648C292.82 448.808 292.29 446.938 292.69 445.108C292.999 443.949 293.507 442.853 294.19 441.868C296.717 437.822 299.637 434.037 302.91 430.568L309.91 420.068C309.91 420.068 310.21 432.268 309.98 433.418C309.235 437.031 308.232 440.587 306.98 444.058C304.922 449.723 302.267 455.154 299.06 460.258C295.285 466.132 291.997 472.306 289.23 478.718L284.72 491.268Z" fill="black"/>
</g>
<path d="M328.98 446.448C314.81 443.108 310.46 436.058 310.29 423.598L310.08 407.738C310.08 407.738 294.39 406.928 290.73 383.558C288.91 371.938 287.33 353.158 288.35 337.558C289.26 323.558 303.82 298.838 317.77 300.348L356.11 318.998C358.155 319.22 360.042 320.201 361.399 321.747C362.756 323.293 363.484 325.291 363.44 327.348L360.44 417.918" fill="#EFBDA8"/>
<path d="M294.34 354.768C294.339 355.543 294.639 356.288 295.176 356.848C295.713 357.407 296.445 357.737 297.22 357.768C297.601 357.799 297.985 357.753 298.348 357.634C298.712 357.514 299.048 357.323 299.336 357.071C299.624 356.819 299.858 356.512 300.026 356.168C300.193 355.824 300.29 355.45 300.31 355.068C300.311 354.294 300.012 353.55 299.478 352.991C298.943 352.432 298.213 352.101 297.44 352.068C297.058 352.038 296.675 352.084 296.311 352.204C295.948 352.324 295.612 352.516 295.323 352.767C295.035 353.018 294.799 353.325 294.63 353.668C294.461 354.012 294.363 354.386 294.34 354.768Z" fill="#263238"/>
<path d="M292.48 348.318C292.8 348.598 295.16 348.318 298.29 349.048C301.42 349.778 303.56 351.208 303.93 351.048C304.12 351.048 303.81 350.548 302.88 349.918C301.506 349.045 299.995 348.41 298.41 348.038C296.887 347.641 295.304 347.529 293.74 347.708C292.71 347.898 292.32 348.178 292.48 348.318Z" fill="#263238"/>
<path d="M324.34 355.668C324.339 356.445 324.64 357.191 325.179 357.751C325.718 358.311 326.453 358.639 327.23 358.668C327.611 358.698 327.994 358.651 328.357 358.531C328.72 358.411 329.055 358.219 329.343 357.968C329.631 357.716 329.865 357.41 330.033 357.066C330.201 356.723 330.298 356.349 330.32 355.968C330.32 355.192 330.021 354.447 329.484 353.888C328.947 353.328 328.215 352.999 327.44 352.968C327.058 352.938 326.675 352.984 326.311 353.104C325.948 353.224 325.612 353.416 325.323 353.667C325.035 353.918 324.799 354.225 324.63 354.568C324.461 354.912 324.363 355.286 324.34 355.668Z" fill="#263238"/>
<path d="M324.22 350.828C324.69 350.938 326.76 349.358 330.14 348.458C333.52 347.558 336.31 347.808 336.6 347.458C336.75 347.308 336.22 347.018 335 346.878C333.23 346.732 331.449 346.905 329.74 347.388C328.074 347.8 326.505 348.534 325.12 349.548C324.22 350.278 324 350.778 324.22 350.828Z" fill="#263238"/>
<path d="M312.39 372.058C312.39 371.878 310.39 371.528 307.15 371.108C306.33 371.018 305.55 370.858 305.41 370.288C305.346 369.44 305.542 368.592 305.97 367.858C306.75 365.858 307.56 363.778 308.42 361.588C311.82 352.678 314.28 345.348 313.92 345.208C313.56 345.068 310.51 352.208 307.11 361.108L304.77 367.408C304.244 368.398 304.088 369.543 304.33 370.638C304.443 370.937 304.624 371.206 304.858 371.425C305.092 371.643 305.373 371.805 305.68 371.898C306.136 372.022 306.607 372.086 307.08 372.088C310.35 372.228 312.37 372.248 312.39 372.058Z" fill="#263238"/>
<path d="M310.08 407.968C321.074 408.161 331.907 405.298 341.37 399.698C341.37 399.698 333.48 416.158 310.08 413.898V407.968Z" fill="#D1967C"/>
<path d="M312.9 379.898C314.5 377.508 316.9 375.898 319.1 375.808C319.836 375.738 320.576 375.891 321.223 376.248C321.871 376.605 322.396 377.148 322.73 377.808C323.08 378.677 323.215 379.618 323.125 380.551C323.034 381.484 322.72 382.381 322.21 383.168C321.716 383.995 320.991 384.659 320.123 385.078C319.256 385.498 318.285 385.654 317.33 385.528C315.765 385.067 314.373 384.152 313.33 382.898C312.97 382.584 312.689 382.19 312.51 381.748C312.426 381.464 312.405 381.166 312.45 380.873C312.495 380.581 312.604 380.303 312.77 380.058" fill="#D1967C"/>
<path d="M321.87 374.308C321.34 374.308 321.33 377.778 318.33 380.308C315.33 382.838 311.61 382.388 311.58 382.878C311.53 383.098 312.41 383.558 313.98 383.608C316.03 383.634 318.024 382.945 319.62 381.658C321.149 380.411 322.132 378.617 322.36 376.658C322.48 375.158 322.11 374.288 321.87 374.308Z" fill="#263238"/>
<path d="M321.6 336.738C322 337.578 325.16 336.848 328.97 336.928C332.78 337.008 335.92 337.738 336.35 336.928C336.53 336.528 335.92 335.758 334.61 335.038C332.871 334.164 330.957 333.697 329.011 333.672C327.065 333.648 325.14 334.067 323.38 334.898C322.05 335.578 321.42 336.328 321.6 336.738Z" fill="#263238"/>
<path d="M291.48 341.218C292.19 341.948 294.95 341.218 298.26 341.138C301.57 341.058 304.39 341.618 305.04 340.858C305.32 340.478 304.87 339.748 303.65 339.058C301.943 338.193 300.042 337.784 298.13 337.868C296.231 337.88 294.37 338.391 292.73 339.348C291.57 340.108 291.18 340.898 291.48 341.218Z" fill="#263238"/>
<path d="M396.99 424.748C391.9 416.518 387.74 396.008 385.99 385.618C384.24 375.228 378.71 341.888 369.85 324.368C360.99 306.848 350.56 299.768 340.33 297.008C336.449 295.853 332.337 295.718 328.389 296.615C324.441 297.512 320.791 299.41 317.79 302.128C313.17 306.258 311.59 318.298 311.59 318.298C311.59 318.298 336.28 323.788 344.59 337.868C354.14 354.038 356.46 362.168 356.46 362.168L359.55 371.018C359.55 371.018 356.65 388.138 355.55 396.608C354.45 405.078 356.18 412.928 363.15 416.358L377.15 426.268C377.15 426.268 395.47 438.718 396.31 439.358C400.22 442.358 407.89 453.728 407.89 453.728C407.89 453.728 407.4 441.578 396.99 424.748Z" fill="#263238"/>
<path d="M310.88 318.448C310.88 318.448 296.76 316.898 291.54 332.898C289.19 340.108 287.38 360.898 287.38 360.898C287.38 360.898 285.32 344.358 286.08 334.898C286.84 325.438 291.55 313.518 298.79 306.898C305.79 300.468 311.79 297.448 324.34 298.218C324.34 298.218 318.48 300.218 315.26 305.008C313.65 307.438 312.95 309.468 310.88 318.448Z" fill="#263238"/>
<path d="M356.28 363.398C356.53 358.228 362.16 354.788 366.64 357.398C369.1 358.828 370.99 361.688 370.76 367.168C370.16 381.808 355.59 378.168 355.58 377.758C355.58 377.468 355.97 369.458 356.28 363.398Z" fill="#EFBDA8"/>
<path d="M360.28 372.368C360.35 372.368 360.53 372.558 360.95 372.778C361.545 373.061 362.227 373.101 362.85 372.888C364.42 372.388 365.85 369.988 366.01 367.358C366.096 366.104 365.902 364.847 365.44 363.678C365.318 363.222 365.088 362.802 364.769 362.454C364.451 362.106 364.053 361.84 363.61 361.678C363.319 361.587 363.005 361.601 362.724 361.718C362.442 361.835 362.211 362.047 362.07 362.318C361.86 362.718 361.94 363.008 361.86 363.038C361.78 363.068 361.56 362.778 361.7 362.178C361.796 361.817 362.011 361.5 362.31 361.278C362.73 360.997 363.241 360.887 363.74 360.968C364.335 361.114 364.883 361.409 365.333 361.825C365.783 362.241 366.119 362.765 366.31 363.348C366.88 364.639 367.124 366.05 367.02 367.458C366.81 370.408 365.19 373.108 363.02 373.628C362.624 373.726 362.21 373.734 361.81 373.651C361.41 373.568 361.034 373.396 360.71 373.148C360.29 372.728 360.23 372.398 360.28 372.368Z" fill="#D1967C"/>
<path d="M334.48 296.088C334.48 296.198 332.48 296.088 329.29 296.558C327.437 296.809 325.636 297.349 323.95 298.158C321.911 299.188 320.09 300.604 318.59 302.328C315.803 305.446 313.774 309.166 312.66 313.198C311.81 316.298 311.71 318.308 311.6 318.298C311.572 317.827 311.589 317.355 311.65 316.888C311.776 315.614 311.993 314.35 312.3 313.108C313.334 308.977 315.359 305.16 318.2 301.988C320.98 298.708 324.923 296.633 329.2 296.198C330.475 296.056 331.757 295.992 333.04 296.008C333.521 295.985 334.004 296.012 334.48 296.088Z" fill="#455A64"/>
<path d="M369.82 373.978C369.807 373.898 369.807 373.817 369.82 373.738L369.94 373.058C370 372.748 370.08 372.378 370.16 371.948C370.24 371.518 370.3 370.948 370.38 370.428C370.799 367.178 370.755 363.885 370.25 360.648C369.516 355.849 367.793 351.255 365.19 347.158C361.871 342.22 357.478 338.097 352.34 335.098C349.71 333.499 346.981 332.07 344.17 330.818C341.46 329.568 338.74 328.598 336.17 327.458C331.763 325.395 327.521 322.998 323.48 320.288C320.01 317.988 317.31 315.968 315.48 314.538C314.57 313.818 313.86 313.258 313.4 312.858L312.87 312.408C312.75 312.298 312.69 312.248 312.7 312.238L312.9 312.368L313.46 312.778L315.61 314.378C317.48 315.758 320.21 317.728 323.69 319.978C327.759 322.626 332.021 324.966 336.44 326.978C338.93 328.098 341.67 329.068 344.44 330.308C347.271 331.566 350.02 333.003 352.67 334.608C357.88 337.648 362.326 341.837 365.67 346.858C368.288 351.019 369.992 355.688 370.67 360.558C371.157 363.823 371.157 367.142 370.67 370.408L370.4 371.938C370.3 372.358 370.21 372.728 370.14 373.038L369.96 373.718C369.86 373.898 369.83 373.988 369.82 373.978Z" fill="#455A64"/>
<path d="M373.21 368.458C373.203 368.378 373.203 368.297 373.21 368.218C373.21 368.028 373.21 367.798 373.21 367.518C373.21 366.898 373.28 365.998 373.21 364.828C373.131 356.638 371.257 348.565 367.72 341.178C365.132 335.795 361.679 330.873 357.5 326.608C353.24 322.417 348.421 318.837 343.18 315.968C338.4 313.228 333.89 311.118 330.18 309.288C326.47 307.458 323.39 305.978 321.32 304.878C320.32 304.348 319.5 303.878 318.96 303.598L318.35 303.248C318.277 303.21 318.21 303.163 318.15 303.108C318.15 303.108 318.23 303.108 318.38 303.198L319.01 303.498L321.41 304.698C323.5 305.698 326.56 307.188 330.34 308.948C334.12 310.708 338.64 312.828 343.46 315.548C348.753 318.417 353.617 322.016 357.91 326.238C362.124 330.55 365.601 335.527 368.2 340.968C370.288 345.421 371.787 350.127 372.66 354.968C373.235 358.225 373.5 361.53 373.45 364.838C373.45 366.008 373.34 366.918 373.31 367.528C373.31 367.808 373.26 368.038 373.25 368.228C373.246 368.306 373.233 368.383 373.21 368.458Z" fill="#455A64"/>
<path d="M372.78 423.148C372.688 423.011 372.614 422.863 372.56 422.708L372.01 421.408C371.77 420.838 371.49 420.138 371.23 419.308C370.97 418.478 370.62 417.538 370.36 416.468C370.22 415.928 370.07 415.378 369.92 414.798C369.77 414.218 369.66 413.598 369.52 412.968C369.22 411.698 369.04 410.328 368.8 408.898C368.391 405.766 368.154 402.615 368.09 399.458C368.042 393.729 368.326 388.003 368.94 382.308C369.17 380.128 369.37 378.368 369.53 377.148C369.61 376.588 369.67 376.148 369.72 375.748C369.737 375.581 369.771 375.417 369.82 375.258C369.843 375.423 369.843 375.592 369.82 375.758L369.72 377.168C369.61 378.468 369.47 380.168 369.3 382.348C368.96 386.718 368.49 392.768 368.6 399.448C368.662 402.584 368.886 405.715 369.27 408.828C369.49 410.258 369.66 411.628 369.93 412.828C370.06 413.458 370.16 414.068 370.3 414.658L370.71 416.318C370.94 417.388 371.26 418.318 371.5 419.168C371.74 420.018 371.98 420.708 372.19 421.288C372.4 421.868 372.52 422.288 372.65 422.618C372.725 422.785 372.769 422.964 372.78 423.148Z" fill="#455A64"/>
<path d="M187.66 557.478C187.66 557.478 203.56 577.878 209.26 579.478C214.96 581.078 236.55 586.428 236.55 586.428L307.4 602.798L299.06 572.428L231.96 571.518L187.66 557.478Z" fill="#EFBDA8"/>
<path d="M96.5599 453.598C101.87 466.768 128.63 527.018 134.83 540.968C135.233 541.876 135.825 542.689 136.566 543.351C137.308 544.013 138.182 544.51 139.13 544.808L223.35 571.548L306.91 577.788V575.038L239.36 554.568L218.02 552.068L186.16 473.068C185.442 471.287 184.285 469.717 182.797 468.503C181.309 467.29 179.539 466.473 177.65 466.128L98.2299 451.568C97.9666 451.521 97.6957 451.546 97.445 451.639C97.1943 451.731 96.9727 451.889 96.8029 452.096C96.633 452.302 96.5211 452.55 96.4784 452.814C96.4357 453.078 96.4638 453.348 96.5599 453.598Z" fill="#455A64"/>
<path d="M306.91 575.038H306.64L305.87 574.978L302.87 574.708L291.92 573.608L275.69 571.898L255.8 569.898C248.74 569.198 242.01 568.668 235.88 568.318L227.17 567.778C226.498 567.736 225.83 567.649 225.17 567.518C224.824 567.455 224.488 567.348 224.17 567.198C223.847 567.039 223.581 566.784 223.41 566.468C222.886 565.354 222.425 564.213 222.03 563.048C220.4 558.738 219.03 555.228 218.14 552.758C217.7 551.568 217.36 550.628 217.14 549.948L216.88 549.208C216.847 549.127 216.824 549.043 216.81 548.958C216.81 548.958 216.81 549.028 216.93 549.198L217.23 549.908C217.51 550.578 217.88 551.508 218.36 552.688L222.41 562.928C222.805 564.062 223.262 565.174 223.78 566.258C223.916 566.507 224.126 566.71 224.38 566.838C224.662 566.96 224.957 567.051 225.26 567.108C225.92 567.232 226.589 567.309 227.26 567.338C229.98 567.468 232.91 567.668 235.97 567.848C242.11 568.168 248.86 568.678 255.92 569.378L275.81 571.378L292.04 573.188L302.98 574.448L305.98 574.818L306.75 574.918L306.91 575.038Z" fill="#263238"/>
<path d="M263.73 558.898C263.73 558.898 264.94 550.958 263.73 549.388C262.52 547.818 254.01 540.168 254.01 540.168L249.18 535.628L238.53 533.998C237.901 533.901 237.257 533.991 236.679 534.258C236.101 534.525 235.614 534.956 235.28 535.498L234.19 537.248L231.3 536.768L228.75 533.078H221.65L216.4 538.748V546.408C216.4 546.408 217.11 548.538 218.96 546.978C220.81 545.418 220.96 541.098 220.96 541.098L224.11 543.998L220.76 554.218C220.76 554.218 223.11 556.358 224.82 554.218C226.53 552.078 228.93 548.968 228.93 548.968C228.93 548.968 231.77 556.628 236.59 558.898C241.41 561.168 253.05 563.238 255.47 562.698C257.89 562.158 263.27 563.148 263.73 558.898Z" fill="#EFBDA8"/>
<path d="M246.88 541.478C246.88 541.478 246.88 541.598 246.69 541.768C246.457 542.009 246.168 542.191 245.85 542.298C245.352 542.469 244.826 542.543 244.3 542.518C243.69 542.518 243.02 542.368 242.3 542.298C241.535 542.165 240.748 542.288 240.06 542.648C239.349 543.227 238.72 543.9 238.19 544.648C237.492 545.512 236.63 546.23 235.653 546.761C234.677 547.291 233.605 547.623 232.5 547.738C231.585 547.805 230.669 547.638 229.837 547.251C229.006 546.864 228.287 546.271 227.75 545.528L227.64 545.368L227.78 545.228C229.647 543.262 231.368 541.163 232.93 538.948C234.08 537.298 234.7 536.288 234.76 536.318C234.673 536.59 234.549 536.85 234.39 537.088C234.13 537.568 233.73 538.268 233.18 539.088C231.708 541.382 230.035 543.54 228.18 545.538V545.228C228.672 545.899 229.326 546.435 230.082 546.785C230.837 547.135 231.669 547.287 232.5 547.228C234.592 547 236.512 545.962 237.85 544.338C238.42 543.563 239.093 542.87 239.85 542.278C240.627 541.882 241.514 541.759 242.37 541.928C243.12 542.028 243.78 542.188 244.37 542.228C244.863 542.271 245.36 542.23 245.84 542.108C246.226 541.971 246.58 541.756 246.88 541.478Z" fill="#D1967C"/>
<path d="M255.24 558.478C255.18 558.478 255.12 558.028 254.8 557.278C254.334 556.222 253.714 555.241 252.96 554.368C252.04 553.228 250.77 551.988 249.62 550.368C249.006 549.508 248.559 548.541 248.3 547.518C248.032 546.405 248.049 545.242 248.35 544.138C248.647 543.043 249.168 542.021 249.88 541.138C250.217 540.686 250.656 540.32 251.16 540.068C251.422 539.949 251.708 539.892 251.996 539.901C252.283 539.909 252.565 539.983 252.82 540.118C253.663 540.642 254.27 541.474 254.51 542.438C254.761 543.202 255.096 543.937 255.51 544.628C256.096 545.618 256.862 546.49 257.77 547.198C258.41 547.708 258.82 547.928 258.77 547.968C258.357 547.83 257.969 547.628 257.62 547.368C256.636 546.692 255.799 545.825 255.16 544.818C254.742 544.115 254.407 543.367 254.16 542.588C253.93 541.756 253.394 541.041 252.66 540.588C252.466 540.492 252.252 540.442 252.035 540.442C251.818 540.442 251.604 540.492 251.41 540.588C250.981 540.812 250.611 541.134 250.33 541.528C249.67 542.365 249.186 543.328 248.91 544.358C248.623 545.382 248.599 546.462 248.84 547.498C249.087 548.46 249.503 549.371 250.07 550.188C251.16 551.778 252.4 553.048 253.3 554.238C254.047 555.157 254.636 556.194 255.04 557.308C255.146 557.612 255.22 557.927 255.26 558.248C255.267 558.401 255.26 558.478 255.24 558.478Z" fill="#D1967C"/>
<path d="M228.18 538.898C227.605 538.903 227.054 539.129 226.64 539.528C225.753 540.64 225.106 541.923 224.74 543.298C224.16 544.898 223.66 546.358 223.25 547.398C223.074 547.983 222.8 548.534 222.44 549.028C222.522 548.428 222.677 547.84 222.9 547.278C223.22 546.208 223.67 544.728 224.25 543.118C224.637 541.673 225.376 540.347 226.4 539.258C226.755 538.939 227.213 538.758 227.69 538.748C228.03 538.708 228.19 538.818 228.18 538.898Z" fill="#D1967C"/>
<path d="M228.94 538.718C228.94 538.778 228.5 538.868 227.77 538.778C226.786 538.639 225.861 538.226 225.1 537.588H225.48L224.83 538.158C223.65 539.27 222.356 540.255 220.97 541.098C222.019 539.86 223.199 538.741 224.49 537.758L225.15 537.198L225.32 537.058L225.48 537.198C226.177 537.793 227.002 538.221 227.89 538.448C228.247 538.508 228.598 538.598 228.94 538.718Z" fill="#D1967C"/>
<path d="M240.21 557.008C240.363 556.367 240.62 555.755 240.97 555.198C241.718 553.805 242.624 552.503 243.67 551.318C244.714 550.127 245.888 549.057 247.17 548.128C247.678 547.703 248.252 547.365 248.87 547.128C247.188 548.545 245.582 550.05 244.06 551.638C242.677 553.354 241.392 555.147 240.21 557.008Z" fill="#D1967C"/>
<path d="M180.17 467.388C180.229 467.466 180.273 467.554 180.3 467.648L180.64 468.428L181.88 471.428L186.34 482.528C190.08 491.948 195.21 504.908 200.89 519.218C206.57 533.528 211.6 546.538 215.29 555.968C217.1 560.658 218.57 564.458 219.61 567.128L220.75 570.128C220.87 570.458 220.96 570.718 221.04 570.928C221.078 571.017 221.105 571.111 221.12 571.208C221.069 571.125 221.025 571.038 220.99 570.948C220.903 570.748 220.793 570.488 220.66 570.168C220.36 569.448 219.94 568.438 219.42 567.168L214.95 556.068C211.22 546.648 206.08 533.688 200.4 519.368C194.72 505.048 189.7 492.058 186 482.628L181.69 471.468C181.2 470.168 180.82 469.148 180.54 468.418L180.25 467.628C180.219 467.549 180.193 467.469 180.17 467.388Z" fill="#263238"/>
<path d="M162.128 512.799C164.281 511.243 164.305 507.601 162.182 504.665C160.059 501.729 156.593 500.611 154.44 502.167C152.288 503.724 152.264 507.366 154.387 510.302C156.509 513.237 159.975 514.356 162.128 512.799Z" fill="white"/>
<path d="M647.47 649.673C647.47 649.813 503.19 649.933 325.25 649.933C147.31 649.933 3 649.813 3 649.673C3 649.533 147.29 649.413 325.29 649.413C503.29 649.413 647.47 649.523 647.47 649.673Z" fill="#263238"/>
<path d="M256.194 149.011H31.0114C26.0345 149.011 22 153.046 22 158.023V290.732C22 295.709 26.0345 299.743 31.0114 299.743H256.194C261.171 299.743 265.205 295.709 265.205 290.732V158.023C265.205 153.046 261.171 149.011 256.194 149.011Z" fill="#263238"/>
<path d="M143.603 244.954C153.835 244.954 162.129 236.659 162.129 226.427C162.129 216.195 153.835 207.9 143.603 207.9C133.371 207.9 125.076 216.195 125.076 226.427C125.076 236.659 133.371 244.954 143.603 244.954Z" fill="#934C67"/>
<path d="M139.137 231.843V220.908C139.137 220.786 139.169 220.666 139.23 220.561C139.291 220.455 139.379 220.367 139.484 220.306C139.589 220.244 139.709 220.212 139.831 220.211C139.953 220.21 140.073 220.241 140.179 220.301L149.946 225.809C150.053 225.87 150.142 225.958 150.204 226.065C150.266 226.171 150.299 226.292 150.299 226.415C150.299 226.539 150.266 226.66 150.204 226.766C150.142 226.873 150.053 226.961 149.946 227.022L140.179 232.496C140.069 232.558 139.945 232.589 139.819 232.587C139.693 232.584 139.57 232.547 139.463 232.48C139.356 232.413 139.27 232.319 139.212 232.207C139.155 232.094 139.129 231.969 139.137 231.843Z" fill="white"/>
<path d="M35.9007 282.419V282.877H34.0687V282.568L35.0648 281.629C35.1469 281.57 35.2143 281.492 35.2619 281.403C35.3095 281.314 35.3361 281.215 35.3396 281.114C35.3396 280.885 35.1908 280.759 34.8816 280.759C34.7715 280.753 34.6616 280.773 34.5604 280.817C34.4592 280.861 34.3693 280.927 34.2977 281.011L33.9771 280.77C34.0907 280.633 34.2348 280.525 34.3978 280.453C34.5608 280.382 34.7382 280.349 34.916 280.358C35.4656 280.358 35.8091 280.621 35.8091 281.068C35.8056 281.221 35.7665 281.371 35.6949 281.506C35.6234 281.641 35.5213 281.758 35.3969 281.847L34.7328 282.476L35.9007 282.419Z" fill="white"/>
<path d="M36.1755 281.194C36.174 281.155 36.1802 281.117 36.1939 281.081C36.2076 281.045 36.2285 281.012 36.2552 280.984C36.2819 280.956 36.314 280.934 36.3495 280.919C36.385 280.904 36.4232 280.896 36.4618 280.896C36.5407 280.896 36.6165 280.927 36.6723 280.983C36.7281 281.039 36.7595 281.115 36.7595 281.194C36.7595 281.273 36.7281 281.349 36.6723 281.404C36.6165 281.46 36.5407 281.492 36.4618 281.492C36.4232 281.492 36.385 281.484 36.3495 281.469C36.314 281.454 36.2819 281.431 36.2552 281.404C36.2285 281.376 36.2076 281.343 36.1939 281.307C36.1802 281.271 36.174 281.232 36.1755 281.194ZM36.1755 282.545C36.174 282.506 36.1802 282.468 36.1939 282.432C36.2076 282.396 36.2285 282.363 36.2552 282.335C36.2819 282.307 36.314 282.285 36.3495 282.27C36.385 282.255 36.4232 282.247 36.4618 282.247C36.5407 282.247 36.6165 282.279 36.6723 282.334C36.7281 282.39 36.7595 282.466 36.7595 282.545C36.7595 282.624 36.7281 282.7 36.6723 282.755C36.6165 282.811 36.5407 282.843 36.4618 282.843C36.4232 282.843 36.385 282.835 36.3495 282.82C36.314 282.805 36.2819 282.783 36.2552 282.755C36.2285 282.727 36.2076 282.694 36.1939 282.658C36.1802 282.622 36.174 282.584 36.1755 282.545Z" fill="white"/>
<path d="M37.8931 280.335V282.877H37.4236V280.782H36.9083V280.392L37.8931 280.335Z" fill="white"/>
<path d="M40.5953 282.247H40.1602V282.82H39.7137V282.247H38.3511V281.927L39.6106 280.335H40.103L38.9579 281.858H39.7709V281.366H40.206V281.858H40.6411L40.5953 282.247Z" fill="white"/>
<path d="M233.007 281.263H44.6488V282.121H233.007V281.263Z" fill="white"/>
<path d="M103.378 280.335H44.5114V282.625H103.378V280.335Z" fill="#934C67"/>
<path d="M105.267 281.732C105.267 282.298 105.099 282.852 104.784 283.322C104.47 283.793 104.023 284.16 103.5 284.377C102.977 284.593 102.401 284.65 101.846 284.54C101.291 284.429 100.78 284.157 100.38 283.756C99.9798 283.356 99.7071 282.846 99.5967 282.29C99.4862 281.735 99.5429 281.16 99.7596 280.637C99.9763 280.113 100.343 279.666 100.814 279.352C101.285 279.037 101.838 278.869 102.404 278.869C103.163 278.869 103.892 279.171 104.428 279.708C104.965 280.245 105.267 280.973 105.267 281.732Z" fill="#934C67"/>
<path d="M237.701 281.663C237.699 281.777 237.673 281.888 237.625 281.991C237.577 282.094 237.509 282.186 237.424 282.261C237.339 282.337 237.24 282.394 237.132 282.429C237.024 282.464 236.91 282.476 236.797 282.465C236.121 282.465 235.721 282.03 235.721 281.228C235.694 281.057 235.707 280.882 235.757 280.717C235.808 280.551 235.896 280.399 236.014 280.273C236.132 280.146 236.277 280.048 236.438 279.985C236.6 279.922 236.773 279.897 236.946 279.911C237.17 279.906 237.392 279.961 237.587 280.072L237.427 280.415C237.279 280.335 237.113 280.295 236.946 280.301C236.488 280.301 236.19 280.587 236.19 281.148C236.275 281.059 236.379 280.989 236.493 280.944C236.608 280.899 236.731 280.878 236.854 280.885C236.962 280.873 237.072 280.885 237.175 280.919C237.279 280.953 237.373 281.009 237.454 281.083C237.534 281.156 237.597 281.246 237.64 281.346C237.683 281.446 237.704 281.555 237.701 281.663ZM237.255 281.663C237.255 281.4 237.06 281.24 236.763 281.24C236.701 281.233 236.64 281.239 236.581 281.257C236.522 281.276 236.468 281.305 236.421 281.345C236.374 281.384 236.335 281.433 236.307 281.488C236.28 281.542 236.263 281.602 236.259 281.663C236.259 281.892 236.442 282.076 236.774 282.076C236.831 282.091 236.891 282.094 236.95 282.084C237.008 282.075 237.064 282.053 237.114 282.021C237.163 281.988 237.206 281.946 237.238 281.896C237.27 281.847 237.291 281.791 237.301 281.732L237.255 281.663Z" fill="white"/>
<path d="M237.976 280.805C237.975 280.767 237.981 280.729 237.995 280.693C238.008 280.658 238.03 280.625 238.056 280.599C238.083 280.572 238.116 280.551 238.151 280.537C238.186 280.523 238.224 280.517 238.262 280.518C238.301 280.517 238.339 280.523 238.376 280.537C238.412 280.55 238.445 280.571 238.472 280.598C238.5 280.625 238.522 280.657 238.537 280.692C238.552 280.728 238.56 280.766 238.56 280.805C238.56 280.884 238.529 280.959 238.473 281.015C238.417 281.071 238.341 281.102 238.262 281.102C238.224 281.102 238.186 281.095 238.15 281.079C238.115 281.064 238.083 281.042 238.056 281.014C238.029 280.987 238.008 280.954 237.995 280.918C237.981 280.882 237.975 280.843 237.976 280.805ZM237.976 282.156C237.975 282.118 237.981 282.08 237.995 282.044C238.008 282.009 238.03 281.977 238.056 281.95C238.083 281.923 238.116 281.902 238.151 281.888C238.186 281.874 238.224 281.868 238.262 281.869C238.301 281.868 238.339 281.874 238.376 281.888C238.412 281.902 238.445 281.922 238.472 281.949C238.5 281.976 238.522 282.008 238.537 282.043C238.552 282.079 238.56 282.117 238.56 282.156C238.56 282.235 238.529 282.31 238.473 282.366C238.417 282.422 238.341 282.453 238.262 282.453C238.224 282.453 238.186 282.446 238.15 282.431C238.115 282.415 238.083 282.393 238.056 282.366C238.029 282.338 238.008 282.305 237.995 282.269C237.981 282.233 237.975 282.194 237.976 282.156Z" fill="white"/>
<path d="M238.846 281.194C238.846 280.369 239.293 279.911 239.877 279.911C240.461 279.911 240.919 280.369 240.919 281.194C240.919 282.018 240.472 282.465 239.877 282.465C239.282 282.465 238.846 282.007 238.846 281.194ZM240.45 281.194C240.45 280.587 240.221 280.312 239.877 280.312C239.534 280.312 239.305 280.587 239.305 281.194C239.305 281.801 239.545 282.064 239.877 282.064C240.209 282.064 240.461 281.789 240.461 281.194H240.45Z" fill="white"/>
<path d="M241.24 281.194C241.24 280.369 241.686 279.911 242.27 279.911C242.854 279.911 243.312 280.369 243.312 281.194C243.312 282.018 242.866 282.465 242.27 282.465C241.675 282.465 241.24 282.007 241.24 281.194ZM242.854 281.194C242.854 280.587 242.614 280.312 242.27 280.312C241.927 280.312 241.698 280.587 241.698 281.194C241.698 281.801 241.938 282.064 242.27 282.064C242.602 282.064 242.854 281.789 242.854 281.194Z" fill="white"/>
<path d="M247.32 281.034H246.461V278.56H248.934V279.419H247.32V281.034Z" fill="white"/>
<path d="M248.934 284.263H246.461V281.801H247.32V283.404H248.934V284.263Z" fill="white"/>
<path d="M252.885 284.263H250.411V283.404H252.026V281.789H252.885V284.263Z" fill="white"/>
<path d="M252.885 281.034H252.026V279.419H250.411V278.56H252.885V281.034Z" fill="white"/>
<path d="M220.835 163.656C221.269 163.572 221.71 163.533 222.152 163.542C223.034 163.542 224.35 163.45 225.953 163.416H226.251V163.656C226.251 165.58 226.251 167.778 226.308 170.171V170.893L225.793 170.377L225.106 169.69L223.366 167.95H223.766L221.053 170.355L220.606 170.744V170.16C220.606 168.156 220.686 166.484 220.732 165.362C220.723 164.787 220.769 164.212 220.869 163.645C220.869 163.645 220.938 164.378 220.995 165.523C221.053 166.668 221.098 168.271 221.121 170.103L220.686 169.908L223.366 167.458L223.572 167.274L223.766 167.469L225.518 169.21L226.194 169.885L225.69 170.103C225.69 167.71 225.69 165.523 225.69 163.587L225.93 163.828C224.43 163.828 223.182 163.748 222.278 163.702C221.796 163.72 221.314 163.705 220.835 163.656Z" fill="white"/>
<path d="M239.671 164.469C239.275 165.021 238.851 165.552 238.4 166.061C237.553 167.091 236.293 168.637 234.759 170.355L234.266 170.916V170.171C234.266 169.152 234.266 168.065 234.266 166.942V166.622L234.358 166.839L232.068 164.629L231.564 164.137H232.263C234.553 164.137 236.43 164.263 237.713 164.332C238.995 164.4 239.728 164.435 239.671 164.458C239.614 164.481 238.778 164.458 237.45 164.561C236.121 164.664 234.347 164.698 232.263 164.698L232.457 164.217L234.747 166.393L234.839 166.484V166.931C234.839 168.076 234.839 169.141 234.839 170.16L234.347 169.965C235.789 168.385 237.095 167.068 238.056 166.084C239.018 165.099 239.614 164.503 239.671 164.469Z" fill="white"/>
<path d="M239.671 164.469C239.74 164.629 238.64 165.225 237.221 165.82C236.397 166.27 235.488 166.543 234.553 166.622C236.084 165.544 237.83 164.81 239.671 164.469Z" fill="white"/>
<path d="M248.854 163.656C249.154 163.574 249.47 163.574 249.77 163.656C250.61 163.817 251.365 164.271 251.9 164.939C252.306 165.444 252.576 166.045 252.684 166.684C252.792 167.324 252.735 167.98 252.518 168.591C252.252 169.351 251.757 170.01 251.101 170.475C250.444 170.941 249.659 171.192 248.854 171.192C248.049 171.192 247.264 170.941 246.608 170.475C245.951 170.01 245.456 169.351 245.19 168.591C244.974 167.981 244.916 167.325 245.022 166.687C245.128 166.048 245.395 165.446 245.797 164.939C246.334 164.264 247.093 163.802 247.938 163.633C248.238 163.551 248.554 163.551 248.854 163.633C248.854 163.69 248.533 163.702 247.995 163.862C247.247 164.093 246.595 164.564 246.14 165.202C245.772 165.704 245.55 166.297 245.499 166.918C245.448 167.538 245.57 168.16 245.851 168.715C246.132 169.27 246.561 169.736 247.092 170.062C247.622 170.388 248.232 170.56 248.854 170.56C249.476 170.56 250.086 170.388 250.617 170.062C251.147 169.736 251.576 169.27 251.857 168.715C252.138 168.16 252.26 167.538 252.209 166.918C252.158 166.297 251.936 165.704 251.568 165.202C251.113 164.564 250.461 164.093 249.713 163.862C249.152 163.725 248.854 163.713 248.854 163.656Z" fill="white"/>
<path d="M250.091 168.832C249.976 168.946 249.186 168.351 248.327 167.503L248.247 167.412V167.229C248.247 166.015 248.373 165.03 248.545 165.03C248.717 165.03 248.843 166.015 248.843 167.229L248.751 167.023C249.61 167.927 250.205 168.717 250.091 168.832Z" fill="white"/>
<path d="M160.767 168.591C160.767 168.763 135.771 168.889 104.946 168.889C74.1219 168.889 49.1144 168.763 49.1144 168.591C49.1144 168.419 74.1105 168.294 104.946 168.294C135.782 168.294 160.767 168.431 160.767 168.591Z" fill="white"/>
<path d="M39.4389 173C41.8735 173 43.8472 171.026 43.8472 168.591C43.8472 166.157 41.8735 164.183 39.4389 164.183C37.0042 164.183 35.0305 166.157 35.0305 168.591C35.0305 171.026 37.0042 173 39.4389 173Z" fill="white"/>
<path d="M622.101 77.9618H455.086C450.109 77.9618 446.075 81.9964 446.075 86.9732V183.637C446.075 188.614 450.109 192.648 455.086 192.648H622.101C627.078 192.648 631.112 188.614 631.112 183.637V86.9732C631.112 81.9964 627.078 77.9618 622.101 77.9618Z" fill="#F5F5F5"/>
<path d="M601.742 128.126C597.322 125.423 592.376 123.122 587.189 123.317C579.826 123.591 573.689 128.756 568.17 133.622L542.406 156.523C541.422 157.404 540.242 158.343 538.971 158.149C537.949 157.871 537.055 157.248 536.441 156.385L513.62 131.08C508.891 125.824 503.487 120.225 496.445 119.538C490.72 118.988 485.292 121.828 480.494 124.988C466.758 133.97 455.12 145.808 446.372 159.694L446.098 183.626C447.609 188.79 452.224 192.648 457.113 192.648H620.143C622.904 192.624 625.558 191.577 627.593 189.709C629.627 187.842 630.897 185.287 631.158 182.538V159.981C624.567 146.791 614.366 135.745 601.742 128.126Z" fill="#455A64"/>
<path d="M456.643 179.469V179.824H455.258V179.584L456.002 178.874C456.185 178.702 456.22 178.599 456.22 178.484C456.22 178.37 456.105 178.221 455.876 178.221C455.792 178.215 455.707 178.23 455.629 178.264C455.551 178.297 455.483 178.35 455.43 178.416L455.189 178.221C455.274 178.117 455.383 178.034 455.507 177.981C455.63 177.927 455.765 177.903 455.899 177.912C456.311 177.912 456.575 178.118 456.575 178.45C456.571 178.566 456.541 178.68 456.488 178.783C456.434 178.886 456.358 178.975 456.266 179.045L455.762 179.526L456.643 179.469Z" fill="#263238"/>
<path d="M456.838 178.542C456.836 178.512 456.841 178.483 456.851 178.455C456.861 178.427 456.877 178.402 456.898 178.38C456.918 178.359 456.942 178.342 456.97 178.33C456.997 178.319 457.026 178.313 457.056 178.313C457.086 178.311 457.117 178.316 457.145 178.327C457.174 178.338 457.2 178.354 457.221 178.376C457.243 178.398 457.26 178.424 457.27 178.452C457.281 178.481 457.286 178.511 457.285 178.542C457.285 178.571 457.279 178.6 457.267 178.628C457.255 178.655 457.238 178.679 457.217 178.7C457.195 178.72 457.17 178.736 457.142 178.746C457.115 178.756 457.085 178.761 457.056 178.759C456.998 178.759 456.942 178.736 456.902 178.695C456.861 178.655 456.838 178.599 456.838 178.542ZM456.838 179.561C456.836 179.532 456.841 179.503 456.851 179.475C456.862 179.448 456.877 179.424 456.898 179.403C456.919 179.383 456.943 179.367 456.97 179.356C456.998 179.346 457.027 179.341 457.056 179.343C457.085 179.342 457.115 179.346 457.142 179.356C457.17 179.367 457.195 179.382 457.217 179.403C457.238 179.423 457.255 179.448 457.267 179.475C457.279 179.502 457.285 179.531 457.285 179.561C457.292 179.594 457.292 179.629 457.285 179.663C457.277 179.696 457.262 179.727 457.24 179.754C457.219 179.781 457.192 179.803 457.161 179.818C457.13 179.833 457.096 179.841 457.061 179.841C457.027 179.841 456.993 179.833 456.962 179.818C456.931 179.803 456.904 179.781 456.882 179.754C456.861 179.727 456.846 179.696 456.838 179.663C456.83 179.629 456.83 179.594 456.838 179.561Z" fill="#263238"/>
<path d="M458.155 177.877V179.824H457.811V178.232H457.411V177.935L458.155 177.877Z" fill="#263238"/>
<path d="M460.216 179.343H459.838V179.824H459.495V179.4H458.464V179.148L459.391 177.935H459.838L458.956 179.08H459.575V178.679H459.838V179.057H460.17L460.216 179.343Z" fill="#263238"/>
<path d="M606.62 178.484H463.307V179.343H606.62V178.484Z" fill="#263238"/>
<path d="M507.975 177.603H463.193V179.893H507.975V177.603Z" fill="#934C67"/>
<path d="M509.429 178.908C509.432 179.341 509.305 179.765 509.066 180.126C508.827 180.487 508.487 180.769 508.087 180.937C507.688 181.104 507.248 181.149 506.823 181.066C506.398 180.983 506.007 180.775 505.7 180.47C505.393 180.165 505.184 179.775 505.098 179.35C505.013 178.926 505.056 178.485 505.221 178.085C505.386 177.685 505.666 177.343 506.026 177.102C506.386 176.861 506.809 176.732 507.242 176.732C507.82 176.732 508.375 176.961 508.785 177.369C509.195 177.777 509.426 178.33 509.429 178.908Z" fill="#934C67"/>
<path d="M610.215 178.885C610.214 178.972 610.195 179.057 610.159 179.136C610.123 179.216 610.071 179.286 610.007 179.344C609.942 179.402 609.867 179.447 609.784 179.474C609.702 179.501 609.615 179.511 609.528 179.503C609.013 179.503 608.715 179.171 608.715 178.564C608.7 178.437 608.713 178.308 608.753 178.185C608.792 178.063 608.858 177.951 608.945 177.856C609.032 177.762 609.138 177.687 609.257 177.637C609.375 177.588 609.503 177.564 609.631 177.568C609.807 177.56 609.981 177.599 610.135 177.683L609.998 177.946C609.892 177.878 609.768 177.846 609.643 177.855C609.288 177.855 609.07 178.072 609.07 178.507C609.134 178.439 609.213 178.386 609.3 178.352C609.387 178.318 609.481 178.305 609.574 178.313C609.654 178.305 609.736 178.313 609.812 178.339C609.889 178.364 609.96 178.404 610.02 178.458C610.081 178.512 610.129 178.578 610.163 178.651C610.196 178.725 610.214 178.804 610.215 178.885ZM609.883 178.885C609.883 178.69 609.734 178.564 609.505 178.564C609.458 178.558 609.411 178.561 609.365 178.574C609.32 178.587 609.277 178.61 609.241 178.64C609.204 178.67 609.174 178.707 609.153 178.749C609.131 178.792 609.119 178.838 609.116 178.885C609.116 179.068 609.265 179.206 609.505 179.206C609.588 179.206 609.667 179.176 609.729 179.121C609.79 179.066 609.829 178.99 609.837 178.908L609.883 178.885Z" fill="#263238"/>
<path d="M610.387 178.244C610.385 178.213 610.39 178.183 610.401 178.154C610.412 178.126 610.429 178.1 610.45 178.078C610.472 178.057 610.498 178.04 610.526 178.029C610.555 178.018 610.585 178.013 610.616 178.015C610.646 178.015 610.675 178.021 610.702 178.032C610.729 178.044 610.754 178.061 610.774 178.083C610.794 178.104 610.81 178.129 610.82 178.157C610.831 178.185 610.835 178.214 610.834 178.244C610.834 178.302 610.811 178.357 610.77 178.398C610.729 178.439 610.674 178.461 610.616 178.461C610.586 178.463 610.557 178.459 610.529 178.448C610.501 178.438 610.476 178.422 610.455 178.402C610.433 178.382 610.416 178.357 610.405 178.33C610.393 178.303 610.387 178.273 610.387 178.244ZM610.387 179.274C610.385 179.244 610.39 179.213 610.401 179.185C610.412 179.156 610.429 179.13 610.45 179.109C610.472 179.087 610.498 179.07 610.526 179.059C610.555 179.049 610.585 179.044 610.616 179.045C610.646 179.045 610.675 179.051 610.702 179.063C610.729 179.075 610.754 179.092 610.774 179.113C610.794 179.135 610.81 179.16 610.82 179.188C610.831 179.215 610.835 179.245 610.834 179.274C610.834 179.332 610.811 179.387 610.77 179.428C610.729 179.469 610.674 179.492 610.616 179.492C610.586 179.494 610.557 179.489 610.529 179.479C610.501 179.469 610.476 179.453 610.455 179.432C610.433 179.412 610.416 179.388 610.405 179.36C610.393 179.333 610.387 179.304 610.387 179.274Z" fill="#263238"/>
<path d="M611.063 178.53C611.063 177.912 611.395 177.568 611.841 177.568C612.288 177.568 612.631 177.912 612.631 178.53C612.631 179.148 612.299 179.503 611.841 179.503C611.383 179.503 611.063 179.148 611.063 178.53ZM612.288 178.53C612.288 178.072 612.105 177.866 611.841 177.866C611.578 177.866 611.418 178.072 611.418 178.53C611.418 178.988 611.589 179.194 611.841 179.194C612.093 179.194 612.288 178.988 612.288 178.53Z" fill="#263238"/>
<path d="M612.872 178.53C612.872 177.912 613.215 177.568 613.662 177.568C614.108 177.568 614.452 177.912 614.452 178.53C614.452 179.148 614.108 179.503 613.662 179.503C613.215 179.503 612.872 179.148 612.872 178.53ZM614.097 178.53C614.097 178.072 613.925 177.866 613.662 177.866C613.398 177.866 613.227 178.072 613.227 178.53C613.227 178.988 613.41 179.194 613.662 179.194C613.914 179.194 614.097 178.988 614.097 178.53Z" fill="#263238"/>
<path d="M617.612 178.416H616.753V176.423H618.734V177.282H617.612V178.416Z" fill="#263238"/>
<path d="M618.734 180.969H616.753V178.988H617.612V180.11H618.734V180.969Z" fill="#263238"/>
<path d="M621.837 180.969H619.856V180.11H620.979V178.988H621.837V180.969Z" fill="#263238"/>
<path d="M621.837 178.404H620.979V177.282H619.856V176.423H621.837V178.404Z" fill="#263238"/>
<path d="M597.345 89.103C598.64 88.9362 599.944 88.8597 601.25 88.874H601.479V89.1259C601.479 90.5228 601.479 92.2289 601.479 94.0724V94.7938L600.963 94.2785L600.448 93.7633L599.131 92.435H599.532L597.46 94.2556L597.013 94.645V94.061C596.993 92.4047 597.077 90.7487 597.265 89.103C597.447 90.7493 597.535 92.4047 597.528 94.061L597.093 93.8663L599.131 91.9999L599.337 91.8167L599.532 92.0114L600.86 93.3282L601.376 93.8549L600.872 94.061C600.872 92.2175 600.872 90.5114 600.872 89.1144L601.112 89.3435C599.853 89.3379 598.595 89.2576 597.345 89.103Z" fill="#263238"/>
<path d="M611.681 89.7328C611.403 90.154 611.097 90.5557 610.765 90.9351C610.124 91.7251 609.173 92.9274 607.994 94.2556L607.502 94.8053V94.061C607.502 93.2824 607.502 92.4579 607.502 91.5992V91.3587L607.593 91.5763L605.864 89.8931L605.36 89.4007H606.059C607.788 89.4007 609.265 89.5267 610.238 89.5954C610.725 89.5986 611.212 89.6407 611.692 89.7213C611.635 89.7213 610.994 89.7213 609.975 89.8244C608.956 89.9274 607.616 89.9618 606.059 89.9618L606.253 89.4809L608.005 91.1412L608.097 91.2213V91.6564C608.097 92.5152 608.097 93.3396 608.097 94.1182L607.593 93.9236C608.738 92.7786 609.677 91.7709 610.433 91.0266C611.189 90.2824 611.624 89.7557 611.681 89.7328Z" fill="#263238"/>
<path d="M611.681 89.7328C611.75 89.8816 610.925 90.374 609.849 90.8778C608.773 91.3816 607.845 91.5763 607.788 91.416C607.731 91.2557 608.544 90.7747 609.62 90.3282C610.696 89.8816 611.624 89.5725 611.681 89.7328Z" fill="#263238"/>
<path d="M618.666 89.103C618.897 89.0343 619.144 89.0343 619.376 89.103C620.032 89.2206 620.623 89.5751 621.036 90.0992C621.352 90.4899 621.562 90.9552 621.646 91.4504C621.73 91.9457 621.686 92.4543 621.517 92.9274C621.32 93.5311 620.937 94.0571 620.422 94.43C619.908 94.8029 619.289 95.0038 618.654 95.0038C618.019 95.0038 617.4 94.8029 616.886 94.43C616.372 94.0571 615.989 93.5311 615.792 92.9274C615.623 92.4543 615.578 91.9457 615.662 91.4504C615.747 90.9552 615.957 90.4899 616.273 90.0992C616.685 89.5751 617.276 89.2206 617.933 89.103C618.391 89.0343 618.643 89.103 618.631 89.103C618.62 89.103 618.391 89.1717 617.99 89.3091C617.434 89.4918 616.952 89.8492 616.616 90.3282C616.346 90.7007 616.184 91.1406 616.148 91.5994C616.113 92.0581 616.204 92.5178 616.414 92.9277C616.623 93.3375 616.941 93.6816 617.333 93.9219C617.726 94.1623 618.177 94.2894 618.637 94.2894C619.097 94.2894 619.548 94.1623 619.941 93.9219C620.333 93.6816 620.651 93.3375 620.861 92.9277C621.07 92.5178 621.161 92.0581 621.126 91.5994C621.09 91.1406 620.928 90.7007 620.658 90.3282C620.322 89.8492 619.84 89.4918 619.284 89.3091C618.918 89.1717 618.666 89.1602 618.666 89.103Z" fill="#263238"/>
<path d="M619.616 93.0419C619.49 93.1564 618.872 92.7328 618.219 92.0801L618.139 91.9885V91.8511C618.139 90.9236 618.265 90.1793 618.437 90.1793C618.608 90.1793 618.734 90.9236 618.734 91.8511L618.643 91.6335C619.295 92.3091 619.73 92.9274 619.616 93.0419Z" fill="#263238"/>
<path d="M551.647 92.8587C551.647 93.0305 532.628 93.1564 509.177 93.1564C485.727 93.1564 466.708 93.0305 466.708 92.8587C466.708 92.6869 485.727 92.561 509.189 92.561C532.651 92.561 551.647 92.6984 551.647 92.8587Z" fill="#263238"/>
<path d="M462.689 92.8587C462.691 93.5232 462.496 94.1734 462.128 94.7269C461.761 95.2804 461.237 95.7122 460.623 95.9675C460.01 96.2229 459.334 96.2903 458.682 96.1612C458.031 96.0321 457.432 95.7123 456.962 95.2424C456.492 94.7726 456.172 94.1737 456.043 93.5219C455.914 92.87 455.981 92.1945 456.237 91.581C456.492 90.9675 456.924 90.4436 457.477 90.0758C458.031 89.7081 458.681 89.5129 459.346 89.5152C460.231 89.5182 461.08 89.8715 461.707 90.4978C462.333 91.1242 462.686 91.9729 462.689 92.8587Z" fill="#263238"/>
<path d="M622.101 192.648C622.101 192.648 622.627 192.648 623.601 192.477C625.053 192.228 626.42 191.618 627.574 190.702C628.523 189.974 629.316 189.062 629.906 188.022C630.496 186.981 630.871 185.833 631.009 184.645C631.124 181.828 631.009 178.53 631.009 174.832C631.009 160.049 630.952 138.671 630.917 112.256C630.917 105.66 630.917 98.7327 630.917 91.5305C630.917 89.7328 630.917 87.8778 630.917 86.0916C630.723 84.2639 629.964 82.5424 628.744 81.1672C627.525 79.7919 625.907 78.8315 624.116 78.4198C623.192 78.2428 622.251 78.1698 621.311 78.2023H618.414H568.811H455.178C453.958 78.1991 452.751 78.4535 451.636 78.9487C450.521 79.444 449.524 80.169 448.708 81.0763C447.892 81.9793 447.269 83.0387 446.875 84.1903C446.481 85.3418 446.326 86.5613 446.418 87.7748V102.66C446.418 112.469 446.418 122.133 446.418 131.652V159.637C446.418 164.217 446.418 168.74 446.418 173.206V183.179C446.383 184.249 446.531 185.318 446.853 186.339C447.509 188.36 448.882 190.07 450.712 191.148C451.615 191.674 452.603 192.038 453.632 192.225C454.675 192.363 455.729 192.409 456.781 192.362H493.422L536.555 192.419L599.131 192.522H616.135H620.566H622.066C622.066 192.522 621.562 192.522 620.566 192.522H616.135L599.131 192.58L536.555 192.671H493.342H469.296H456.701C455.618 192.724 454.533 192.674 453.46 192.522C451.802 192.237 450.254 191.504 448.982 190.402C447.711 189.3 446.765 187.871 446.246 186.271C445.912 185.196 445.757 184.074 445.788 182.95V179.652C445.788 177.431 445.788 175.21 445.788 172.977V159.649C445.788 150.488 445.788 141.16 445.788 131.664V87.832C445.717 86.5545 445.876 85.2747 446.258 84.0534C446.874 82.1931 448.061 80.5744 449.65 79.4274C451.239 78.2804 453.149 77.6634 455.109 77.6641H568.742H618.345H621.288C622.263 77.6302 623.239 77.711 624.196 77.9046C626.106 78.3375 627.829 79.3635 629.12 80.8359C630.394 82.2817 631.194 84.0845 631.41 85.9999C631.501 87.8778 631.41 89.6641 631.41 91.4847C631.41 98.6869 631.41 105.614 631.41 112.21C631.41 138.626 631.33 160.003 631.307 174.786C631.307 178.484 631.307 181.759 631.227 184.622C631.079 185.825 630.695 186.987 630.096 188.04C629.496 189.094 628.693 190.018 627.734 190.759C626.552 191.666 625.163 192.264 623.692 192.5C623.314 192.562 622.931 192.593 622.547 192.591L622.101 192.648Z" fill="#263238"/>
<path d="M541.696 130.416C548.488 130.416 553.994 124.91 553.994 118.118C553.994 111.326 548.488 105.82 541.696 105.82C534.905 105.82 529.399 111.326 529.399 118.118C529.399 124.91 534.905 130.416 541.696 130.416Z" fill="#455A64"/>
<path d="M351.884 122.412C352.927 122.313 353.928 121.951 354.793 121.359C355.812 120.611 356.544 119.535 356.865 118.313C357.031 117.523 357.089 116.714 357.037 115.908C357.037 115.038 357.037 114.099 357.037 113.114C357.037 105.156 357.117 93.7404 357.186 79.645C357.186 76.1183 357.186 72.4084 357.254 68.5611C357.254 66.626 357.254 64.668 357.254 62.6642C357.308 61.6821 357.273 60.6973 357.151 59.7214C356.972 58.8119 356.535 57.9733 355.892 57.3054C355.215 56.5806 354.324 56.0911 353.35 55.9085C352.318 55.8251 351.281 55.806 350.247 55.8512H343.709L330.06 55.9314L269.281 56.2634C268.056 56.297 266.888 56.784 266.001 57.6302C265.115 58.4764 264.574 59.6215 264.484 60.8436C264.484 63.4848 264.449 66.1145 264.381 68.7328C264.335 73.9771 264.285 79.145 264.232 84.2366C264.117 94.4045 264.014 104.206 263.923 113.549C263.923 114.694 263.923 115.84 263.923 116.985C263.863 118.049 264.127 119.107 264.678 120.019C265.216 120.891 266.018 121.569 266.969 121.954C267.985 122.255 269.051 122.356 270.106 122.252H282.988H306.094H339.609H348.712H351.071C351.342 122.227 351.614 122.227 351.884 122.252C351.614 122.272 351.342 122.272 351.071 122.252L348.77 122.572L339.667 122.71L306.209 123.042L283.091 123.214L270.22 123.305C269.063 123.406 267.897 123.285 266.785 122.95C265.627 122.51 264.643 121.707 263.98 120.66C263.333 119.601 263.018 118.373 263.075 117.133C263.075 115.988 263.075 114.843 263.075 113.698C263.156 104.355 263.247 94.5419 263.327 84.374C263.373 79.29 263.419 74.1221 263.465 68.8702C263.465 66.2367 263.499 63.5649 263.568 60.855C263.683 59.3787 264.342 57.9975 265.416 56.9783C266.49 55.959 267.904 55.3739 269.385 55.3359L330.094 55.0153H343.743H350.293C351.381 54.9767 352.472 55.0111 353.556 55.1184C354.679 55.3298 355.711 55.8815 356.51 56.6985C357.283 57.5012 357.815 58.5051 358.045 59.5955C358.171 60.6286 358.201 61.6712 358.136 62.71C358.136 64.7138 358.136 66.6832 358.067 68.6069C358.022 72.4695 357.976 76.1679 357.93 79.7023C357.724 93.7862 357.564 105.214 357.449 113.16C357.449 114.156 357.449 115.084 357.392 115.965C357.431 116.797 357.35 117.63 357.151 118.439C356.792 119.711 356.003 120.82 354.919 121.576C354.255 122.031 353.494 122.325 352.697 122.435C352.426 122.463 352.153 122.455 351.884 122.412Z" fill="#934C67"/>
<path d="M314.098 83.3893L325.388 90.1679L313.915 96.9808L302.442 103.782L302.613 90.1908L302.797 76.5992L314.098 83.3893Z" fill="#934C67"/>
</svg>
