<svg width="200" height="200" viewBox="0 0 200 200" fill="none" xmlns="http://www.w3.org/2000/svg">
<path d="M42.6997 11.417C38.7497 13.417 34.8797 16.417 33.6997 20.747C32.9397 23.567 33.4397 26.577 33.0197 29.467C32.5369 32.3049 31.1909 34.9249 29.1653 36.9702C27.1397 39.0156 24.5328 40.3867 21.6997 40.897C29.3197 46.547 41.3297 44.897 47.1897 37.467C48.4997 35.787 49.5597 33.847 51.2897 32.587C54.8597 29.977 59.2897 30.457 61.7297 26.237C63.2797 23.577 64.7297 19.107 64.0697 15.997C62.0997 6.36702 49.0097 8.15702 42.6997 11.417Z" fill="#0F1322"/>
<path d="M32.3897 45.307C28.3207 45.3491 24.3456 44.0837 21.0497 41.697C20.9 41.5822 20.7858 41.4274 20.7203 41.2504C20.6549 41.0735 20.6408 40.8816 20.6797 40.697C20.7269 40.5049 20.83 40.3311 20.976 40.1976C21.1219 40.0641 21.3042 39.9769 21.4997 39.947C24.1383 39.4881 26.5707 38.2254 28.4644 36.3317C30.3582 34.438 31.6208 32.0055 32.0797 29.367C32.2252 28.1828 32.2887 26.99 32.2697 25.797C32.2156 24.0286 32.3904 22.2606 32.7897 20.537C33.7897 16.637 37.0297 13.287 42.2697 10.537C46.2697 8.46701 54.2697 6.37701 59.9097 9.08701C61.2424 9.7104 62.4031 10.6489 63.2917 11.8215C64.1803 12.9941 64.77 14.3654 65.0097 15.817C65.6597 19.097 64.2597 23.817 62.5397 26.747C60.8197 29.677 58.3497 30.567 55.9297 31.457C54.4734 31.9214 53.0923 32.5952 51.8297 33.457C50.7239 34.369 49.7717 35.4529 49.0097 36.667C48.6597 37.167 48.2997 37.667 47.9197 38.147C46.0322 40.4269 43.6569 42.2538 40.969 43.4931C38.2811 44.7323 35.3492 45.3522 32.3897 45.307ZM24.1797 41.307C31.3097 45.077 41.3397 43.237 46.3497 36.857C46.7097 36.397 47.0397 35.917 47.3497 35.447C48.2541 34.0485 49.3865 32.8113 50.6997 31.787C52.1127 30.8261 53.6592 30.0782 55.2897 29.567C57.5697 28.737 59.5397 28.017 60.8597 25.737C62.3497 23.177 63.6397 18.957 63.0897 16.197C62.9061 15.053 62.4457 13.9712 61.7486 13.0457C61.0514 12.1203 60.1387 11.3792 59.0897 10.887C54.6697 8.75701 47.6297 10.027 43.2397 12.297C38.5197 14.747 35.6697 17.677 34.7697 21.017C34.419 22.5749 34.2678 24.171 34.3197 25.767C34.3387 27.0503 34.2686 28.3334 34.1097 29.607C33.6695 32.2738 32.5132 34.7708 30.7643 36.8315C29.0153 38.8922 26.7394 40.4391 24.1797 41.307Z" fill="#0F1322"/>
<path d="M61.9999 15.247C64.3699 15.247 66.9299 16.247 67.9999 18.317C69.3599 20.977 67.8699 24.177 66.1699 26.637C63.1699 31.007 54.9499 39.637 51.7799 30.527C49.2999 23.367 54.1999 15.257 61.9999 15.247Z" fill="#0F1322"/>
<path d="M56.0601 35.527C55.8437 35.5416 55.6265 35.5416 55.4101 35.527C53.3601 35.247 51.8201 33.687 50.8501 30.897C50.1767 28.9659 49.9751 26.9017 50.2621 24.8767C50.5492 22.8518 51.3165 20.9249 52.5001 19.257C53.5611 17.7174 54.9798 16.4582 56.6345 15.5873C58.2891 14.7165 60.1303 14.26 62.0001 14.257C64.4401 14.257 67.5301 15.257 68.8901 17.867C70.2501 20.477 69.5401 23.547 66.9901 27.217C66.3901 28.087 61.0901 35.527 56.0601 35.527ZM62.0001 16.247C60.4531 16.2473 58.9292 16.6222 57.5587 17.3397C56.1881 18.0572 55.0117 19.0959 54.1301 20.367C53.1351 21.7757 52.4893 23.4008 52.2459 25.1082C52.0025 26.8156 52.1684 28.5564 52.7301 30.187C53.4401 32.187 54.4301 33.327 55.6801 33.497C58.6801 33.917 63.1301 29.277 65.3601 26.057C66.8001 23.977 68.2701 21.057 67.1201 18.757C66.1701 16.897 63.7801 16.237 62.0101 16.237L62.0001 16.247Z" fill="#0F1322"/>
<path d="M58.8396 172.007C54.4196 172.007 51.1696 170.507 49.7796 167.747C48.2796 164.747 49.3696 161.277 50.1696 158.747C55.5596 141.507 58.1696 126.897 58.1696 114.087C58.1776 111.611 59.1655 109.238 60.9175 107.488C62.6696 105.738 65.0432 104.752 67.5196 104.747H83.8396C84.006 104.755 84.1689 104.798 84.3172 104.874C84.4655 104.95 84.5959 105.057 84.6996 105.187C84.9796 105.557 85.6996 106.547 84.6496 129.037C84.1396 139.667 83.3196 152.037 82.6996 154.207C82.1966 155.956 81.5442 157.659 80.7496 159.297C79.2206 162.546 76.9163 165.368 74.0396 167.517C70.6996 169.947 66.4196 171.387 60.9496 171.927C60.2396 171.967 59.5296 172.007 58.8396 172.007ZM67.5496 106.717C65.6028 106.72 63.7364 107.493 62.3588 108.869C60.9813 110.245 60.2049 112.11 60.1996 114.057C60.1996 127.057 57.5296 141.877 52.0796 159.317C51.3496 161.677 50.4296 164.607 51.5596 166.847C53.2896 170.257 58.5596 170.127 60.7896 169.907C65.8896 169.397 69.8496 168.077 72.8996 165.907C75.5099 163.947 77.598 161.375 78.9796 158.417C79.7299 156.888 80.3423 155.295 80.8096 153.657C81.9196 149.797 83.7296 112.187 83.1296 106.757L67.5496 106.717Z" fill="#0F1322"/>
<path d="M128.63 167.667H103.96C103.695 167.667 103.44 167.562 103.253 167.374C103.065 167.187 102.96 166.932 102.96 166.667V105.667C102.96 105.402 103.065 105.147 103.253 104.96C103.44 104.772 103.695 104.667 103.96 104.667H119.85C122.444 104.672 124.93 105.706 126.763 107.541C128.596 109.376 129.627 111.863 129.63 114.457V166.667C129.63 166.932 129.525 167.187 129.337 167.374C129.15 167.562 128.895 167.667 128.63 167.667ZM104.96 165.667H127.63V114.507C127.63 112.443 126.811 110.463 125.352 109.002C123.893 107.542 121.914 106.72 119.85 106.717H104.96V165.667Z" fill="#0F1322"/>
<path d="M69.0998 146.367L69.4598 166.467H117.89L118.7 146.367C118.7 146.367 130.17 119.607 116.02 105.767H71.7998C57.6398 119.557 69.0998 146.367 69.0998 146.367Z" fill="#0F1322"/>
<path d="M117.89 167.417H69.4598C69.1946 167.417 68.9403 167.312 68.7527 167.124C68.5652 166.937 68.4598 166.682 68.4598 166.417L68.0998 146.507C66.1513 141.626 64.808 136.525 64.0998 131.317C62.6298 119.977 65.0298 110.867 71.0998 104.987C71.2861 104.802 71.5375 104.698 71.7999 104.697H116.03C116.292 104.698 116.544 104.802 116.73 104.987C122.73 110.867 125.16 119.987 123.68 131.317C122.967 136.527 121.624 141.631 119.68 146.517L118.85 166.437C118.845 166.692 118.743 166.935 118.564 167.118C118.386 167.3 118.145 167.407 117.89 167.417ZM70.4399 165.417H116.93L117.73 146.277C117.731 146.156 117.759 146.037 117.81 145.927C117.92 145.667 128.68 119.997 115.62 106.717H72.2098C59.1398 120.017 69.9099 145.717 70.0199 145.927C70.0711 146.047 70.0983 146.176 70.0998 146.307L70.4399 165.417Z" fill="#0F1322"/>
<path d="M94.4097 133.747H93.4097C84.7597 133.747 77.7197 126.067 77.7197 116.627V105.717C77.7197 105.452 77.8251 105.197 78.0126 105.01C78.2002 104.822 78.4545 104.717 78.7197 104.717H109.1C109.365 104.717 109.619 104.822 109.807 105.01C109.994 105.197 110.1 105.452 110.1 105.717V116.627C110.1 126.067 103.06 133.747 94.4097 133.747ZM79.7297 106.747V116.657C79.7297 124.997 85.8697 131.777 93.4197 131.777H94.4197C101.97 131.777 108.11 124.997 108.11 116.657V106.747H79.7297Z" fill="#0F1322"/>
<path d="M100.08 108.267C99.8146 108.267 99.5603 108.162 99.3728 107.974C99.1852 107.787 99.0799 107.532 99.0799 107.267V101.527H89.3599V107.267C89.3599 107.532 89.2545 107.787 89.067 107.974C88.8794 108.162 88.6251 108.267 88.3599 108.267C88.0946 108.267 87.8403 108.162 87.6528 107.974C87.4652 107.787 87.3599 107.532 87.3599 107.267V100.527C87.3599 100.262 87.4652 100.007 87.6528 99.8199C87.8403 99.6324 88.0946 99.527 88.3599 99.527H100.08C100.345 99.527 100.599 99.6324 100.787 99.8199C100.975 100.007 101.08 100.262 101.08 100.527V107.267C101.08 107.532 100.975 107.787 100.787 107.974C100.599 108.162 100.345 108.267 100.08 108.267Z" fill="#0F1322"/>
<path d="M60.7001 80.887C53.8701 80.887 48.3101 76.037 48.3101 70.077C48.3101 64.117 53.8901 59.267 60.7001 59.267C67.5101 59.267 73.0901 64.117 73.0901 70.077C73.0901 76.037 67.5501 80.887 60.7001 80.887ZM60.7001 61.267C54.9701 61.267 50.3101 65.217 50.3101 70.077C50.3101 74.937 54.9701 78.887 60.7001 78.887C66.4301 78.887 71.0901 74.887 71.0901 70.077C71.0901 65.267 66.4501 61.267 60.7001 61.267Z" fill="#0F1322"/>
<path d="M127.11 80.887C120.28 80.887 114.72 76.037 114.72 70.077C114.72 64.117 120.28 59.267 127.11 59.267C133.94 59.267 139.5 64.117 139.5 70.077C139.5 76.037 133.94 80.887 127.11 80.887ZM127.11 61.267C121.38 61.267 116.72 65.217 116.72 70.077C116.72 74.937 121.38 78.887 127.11 78.887C132.84 78.887 137.5 74.887 137.5 70.077C137.5 65.267 132.84 61.267 127.11 61.267Z" fill="#0F1322"/>
<path d="M94.2196 103.057C84.8484 103.049 75.8631 99.3236 69.2357 92.698C62.6083 86.0725 58.8802 77.0883 58.8696 67.717C58.8696 60.947 58.8696 52.537 60.6196 44.987C60.6571 44.8228 60.7353 44.6708 60.8472 44.5449C60.9591 44.419 61.101 44.3234 61.2596 44.267C61.4255 44.2023 61.6056 44.183 61.7814 44.2111C61.9572 44.2392 62.1223 44.3138 62.2596 44.427C63.0996 45.097 64.5496 44.867 66.6796 43.717C75.2796 39.087 83.2396 34.267 86.1796 26.197C86.2366 26.041 86.3316 25.9016 86.4559 25.7915C86.5803 25.6814 86.7301 25.604 86.8919 25.5663C87.0536 25.5286 87.2223 25.5317 87.3825 25.5755C87.5427 25.6193 87.6895 25.7023 87.8096 25.817C92.1096 29.897 97.3196 34.457 103.4 37.307C107.124 38.953 111.13 39.8663 115.2 39.997C118.09 40.167 121.07 40.117 123.96 40.067C125.513 40.067 127.063 40.047 128.61 40.007C128.875 40.007 129.129 40.1124 129.317 40.2999C129.504 40.4875 129.61 40.7418 129.61 41.007V67.717C129.599 77.0952 125.865 86.0855 119.229 92.7122C112.593 99.3388 103.598 103.06 94.2196 103.057ZM62.2996 46.667C60.8696 53.667 60.8696 61.427 60.8696 67.667C61.0211 76.4107 64.6008 84.745 70.8377 90.8749C77.0746 97.0047 85.4697 100.44 94.2146 100.44C102.96 100.44 111.355 97.0047 117.592 90.8749C123.829 84.745 127.408 76.4107 127.56 67.667V42.007L123.95 42.067C121.03 42.067 118.01 42.167 115.04 41.997C110.719 41.855 106.468 40.877 102.52 39.117C96.6996 36.367 91.6996 32.187 87.4596 28.277C83.9396 36.157 76.0496 40.927 67.5896 45.477C66.1096 46.277 64.0896 47.157 62.2996 46.667Z" fill="#0F1322"/>
<path d="M111.12 72.017C112.876 72.017 114.3 70.5933 114.3 68.837C114.3 67.0807 112.876 65.657 111.12 65.657C109.364 65.657 107.94 67.0807 107.94 68.837C107.94 70.5933 109.364 72.017 111.12 72.017Z" fill="#0F1322"/>
<path d="M83.2996 72.017C85.0559 72.017 86.4796 70.5933 86.4796 68.837C86.4796 67.0807 85.0559 65.657 83.2996 65.657C81.5434 65.657 80.1196 67.0807 80.1196 68.837C80.1196 70.5933 81.5434 72.017 83.2996 72.017Z" fill="#0F1322"/>
<path d="M95.6999 78.977C94.6618 78.9698 93.6257 78.8862 92.5999 78.727C92.4705 78.7041 92.3469 78.6559 92.2362 78.5852C92.1255 78.5145 92.0297 78.4226 91.9545 78.3149C91.8793 78.2071 91.826 78.0857 91.7978 77.9573C91.7695 77.829 91.7669 77.6964 91.7899 77.567C91.8128 77.4376 91.861 77.314 91.9318 77.2033C92.0025 77.0926 92.0943 76.9969 92.202 76.9216C92.3098 76.8464 92.4313 76.7932 92.5596 76.7649C92.6879 76.7367 92.8206 76.734 92.9499 76.757C94.5046 77.016 96.09 77.0329 97.6499 76.807C97.8399 75.887 96.6499 72.487 94.9799 69.297C94.8567 69.0623 94.8317 68.7882 94.9104 68.5351C94.9892 68.2819 95.1652 68.0704 95.3999 67.947C95.6295 67.8391 95.8914 67.8224 96.1328 67.9004C96.3742 67.9784 96.5769 68.1452 96.6999 68.367C97.8199 70.507 100.31 75.697 99.3899 77.727C99.2899 77.9721 99.1338 78.1903 98.934 78.364C98.7343 78.5377 98.4965 78.662 98.2399 78.727C97.4063 78.9119 96.5535 78.9958 95.6999 78.977Z" fill="#0F1322"/>
<path d="M87.6196 62.927H87.3996L72.3996 60.787C71.9819 60.7287 71.6044 60.5068 71.3503 60.1701C71.0962 59.8335 70.9862 59.4097 71.0446 58.992C71.1029 58.5743 71.3248 58.1969 71.6615 57.9427C71.9981 57.6886 72.4219 57.5787 72.8396 57.637L87.8396 59.777C88.2501 59.8202 88.6277 60.0213 88.8926 60.3379C89.1575 60.6545 89.289 61.0616 89.2591 61.4733C89.2292 61.885 89.0404 62.269 88.7326 62.544C88.4248 62.819 88.022 62.9635 87.6096 62.947L87.6196 62.927Z" fill="#0F1322"/>
<path d="M103.7 63.527C103.309 63.526 102.933 63.3813 102.642 63.1205C102.352 62.8598 102.167 62.5012 102.124 62.1132C102.081 61.7251 102.182 61.3347 102.408 61.0164C102.634 60.6981 102.969 60.474 103.35 60.387L118.14 57.047C118.545 56.9704 118.964 57.0539 119.308 57.28C119.653 57.5061 119.896 57.8571 119.987 58.2591C120.077 58.661 120.008 59.0825 119.795 59.4347C119.581 59.7869 119.238 60.0422 118.84 60.147L104.05 63.487C103.935 63.5102 103.817 63.5236 103.7 63.527Z" fill="#0F1322"/>
<path d="M101.7 90.367C97.5539 90.4642 93.4384 89.637 89.6521 87.9453C85.8657 86.2537 82.5036 83.7401 79.8098 80.587C79.7251 80.4866 79.6611 80.3704 79.6212 80.2452C79.5814 80.12 79.5667 79.9881 79.5778 79.8572C79.589 79.7262 79.6258 79.5988 79.6862 79.4821C79.7466 79.3654 79.8294 79.2617 79.9298 79.177C80.0303 79.0923 80.1465 79.0282 80.2717 78.9884C80.3969 78.9486 80.5288 78.9339 80.6597 78.945C80.7906 78.9562 80.9181 78.993 81.0348 79.0534C81.1515 79.1138 81.2551 79.1966 81.3398 79.297C91.8198 91.717 107.55 87.797 107.71 87.757C107.967 87.6907 108.24 87.7293 108.469 87.8644C108.698 87.9994 108.864 88.2198 108.93 88.477C108.996 88.7343 108.958 89.0074 108.823 89.2361C108.687 89.4649 108.467 89.6307 108.21 89.697C106.071 90.161 103.888 90.3858 101.7 90.367Z" fill="#0F1322"/>
<path d="M118.29 13.537C112.817 9.68884 106.379 7.44464 99.6998 7.05701C92.9827 6.73407 86.3964 8.99153 81.2898 13.367C80.7247 13.9868 80.0129 14.4545 79.2198 14.727C78.4584 14.8329 77.683 14.768 76.9498 14.537C71.2798 13.347 65.1998 15.337 60.7898 19.097C53.8498 25.007 52.0498 32.337 51.9898 41.097C51.9898 43.457 51.5398 63.317 46.7598 62.437C54.6045 63.9964 62.7486 62.6455 69.6698 58.637C76.4198 54.507 81.3498 47.217 81.8798 39.317C86.6998 45.487 94.2198 48.777 101.42 51.837L118.16 58.947C123.57 61.237 129.05 63.557 134.85 64.497C140.65 65.437 146.91 64.867 151.85 61.717C144.19 56.017 139.85 46.907 136.53 37.967C132.93 28.367 126.9 19.367 118.29 13.537Z" fill="#0F1322"/>
<path d="M139.82 65.867C138.101 65.8681 136.386 65.7276 134.69 65.447C128.69 64.447 123.16 62.117 117.77 59.837L101.03 52.727C95.03 50.187 87.72 47.077 82.6 41.657C81.898 45.3293 80.43 48.8125 78.2918 51.8794C76.1535 54.9464 73.3929 57.5284 70.19 59.457C63.58 63.457 54.98 64.927 46.59 63.397C46.3248 63.3493 46.0894 63.1981 45.9356 62.9768C45.7818 62.7556 45.7222 62.4822 45.77 62.217C45.8177 61.9518 45.9689 61.7164 46.1901 61.5626C46.4114 61.4089 46.6848 61.3493 46.95 61.397C47.0579 61.416 47.1688 61.4087 47.2733 61.3756C47.3777 61.3425 47.4727 61.2847 47.55 61.207C49.99 59.207 50.96 47.757 51 41.027C51.05 33.577 52.18 25.027 60.15 18.257C62.4383 16.2276 65.1568 14.7431 68.1012 13.9152C71.0456 13.0873 74.1393 12.9375 77.15 13.477L77.41 13.537C77.9415 13.765 78.5351 13.804 79.0919 13.6476C79.6487 13.4911 80.1351 13.1485 80.47 12.677L80.61 12.547C85.9156 8.00371 92.7643 5.67306 99.74 6.03702C106.605 6.42261 113.225 8.72278 118.85 12.677C129.12 19.677 134.65 30.047 137.47 37.557C140.62 45.907 144.86 55.197 152.47 60.857C152.6 60.9541 152.704 61.0813 152.774 61.2277C152.843 61.374 152.876 61.5351 152.87 61.697C152.865 61.8592 152.82 62.0177 152.74 62.1589C152.66 62.3 152.547 62.4195 152.41 62.507C148.615 64.7934 144.25 65.9584 139.82 65.867ZM81.88 38.287C82.0327 38.2874 82.1833 38.3227 82.3202 38.3903C82.4572 38.4579 82.5768 38.556 82.67 38.677C87.45 44.787 95.08 48.027 101.81 50.887L118.55 57.997C123.83 60.237 129.29 62.557 135.01 63.477C140.112 64.4637 145.395 63.7945 150.09 61.567C142.82 55.567 138.7 46.477 135.61 38.287C132.89 31.057 127.61 21.037 117.73 14.357C112.423 10.6214 106.179 8.4397 99.7 8.05702C93.2456 7.71178 86.9054 9.85981 81.99 14.057L81.85 14.177C81.2809 14.8675 80.5127 15.3657 79.6502 15.6038C78.7876 15.8418 77.8726 15.808 77.03 15.507L76.78 15.457C74.066 14.9737 71.2777 15.1133 68.6255 15.8651C65.9733 16.6169 63.5266 17.9614 61.47 19.797C55.61 24.797 53.09 31.147 53.02 41.057C53.02 42.797 52.82 57.057 49.68 61.807C56.4491 62.5954 63.2914 61.1673 69.18 57.737C75.92 53.617 80.42 46.517 80.91 39.207C80.9257 39.0058 81.0019 38.8141 81.1287 38.657C81.2554 38.5 81.4267 38.3849 81.62 38.327C81.7043 38.3014 81.7918 38.288 81.88 38.287Z" fill="#0F1322"/>
<path d="M138.74 38.587H50.21V44.307H138.74V38.587Z" fill="white"/>
<path d="M138.7 45.307H50.21C49.9447 45.307 49.6904 45.2017 49.5029 45.0141C49.3153 44.8266 49.21 44.5723 49.21 44.307V38.587C49.21 38.3218 49.3153 38.0675 49.5029 37.8799C49.6904 37.6924 49.9447 37.587 50.21 37.587H138.7C138.965 37.587 139.22 37.6924 139.407 37.8799C139.595 38.0675 139.7 38.3218 139.7 38.587V44.307C139.7 44.5723 139.595 44.8266 139.407 45.0141C139.22 45.2017 138.965 45.307 138.7 45.307ZM51.17 43.307H137.7V39.587H51.21L51.17 43.307Z" fill="#0F1322"/>
<path d="M93.9197 29.587H60.1997V40.077C60.1997 43.4197 61.5269 46.6256 63.8896 48.9901C66.2522 51.3547 69.4571 52.6844 72.7997 52.687H81.3097C84.6533 52.6844 87.8591 51.355 90.2234 48.9907C92.5877 46.6265 93.9171 43.4206 93.9197 40.077C93.9197 43.4214 95.2483 46.6288 97.6131 48.9937C99.9779 51.3585 103.185 52.687 106.53 52.687H115.03C118.373 52.6844 121.579 51.355 123.943 48.9907C126.308 46.6265 127.637 43.4206 127.64 40.077V29.587H93.9197Z" fill="white"/>
<path d="M115.03 53.687H106.53C103.822 53.6843 101.177 52.8753 98.9312 51.3633C96.6853 49.8512 94.9407 47.7046 93.9197 45.197C92.8965 47.703 91.1513 49.8482 88.906 51.3599C86.6606 52.8716 84.0165 53.6817 81.3097 53.687H72.7997C69.1927 53.6817 65.735 52.2458 63.1854 49.6943C60.6357 47.1428 59.2024 43.6841 59.1997 40.077V29.587C59.1997 29.3218 59.3051 29.0675 59.4926 28.8799C59.6801 28.6924 59.9345 28.587 60.1997 28.587H127.64C127.905 28.587 128.159 28.6924 128.347 28.8799C128.534 29.0675 128.64 29.3218 128.64 29.587V40.077C128.634 43.685 127.199 47.1437 124.648 49.6949C122.096 52.2461 118.638 53.6817 115.03 53.687ZM93.9197 39.077C94.1849 39.077 94.4393 39.1824 94.6268 39.3699C94.8144 39.5575 94.9197 39.8118 94.9197 40.077C94.9224 43.1554 96.1464 46.1069 98.3231 48.2836C100.5 50.4603 103.451 51.6844 106.53 51.687H115.03C118.107 51.6817 121.057 50.4569 123.233 48.2807C125.41 46.1045 126.634 43.1546 126.64 40.077V30.587H61.1997V40.077C61.2024 43.1537 62.425 46.1037 64.5996 48.2801C66.7741 50.4565 69.7231 51.6817 72.7997 51.687H81.3097C84.3872 51.6817 87.3372 50.4569 89.5134 48.2807C91.6895 46.1045 92.9144 43.1546 92.9197 40.077C92.9197 39.9457 92.9456 39.8157 92.9958 39.6944C93.0461 39.573 93.1197 39.4628 93.2126 39.3699C93.3055 39.2771 93.4157 39.2034 93.537 39.1532C93.6583 39.1029 93.7884 39.077 93.9197 39.077Z" fill="#0F1322"/>
<path d="M121.45 166.417H66.3198V184.387H121.45V166.417Z" fill="#0F1322"/>
<path d="M121.45 185.367H66.3198C66.0546 185.367 65.8003 185.262 65.6127 185.074C65.4252 184.887 65.3198 184.632 65.3198 184.367V166.367C65.3198 166.102 65.4252 165.847 65.6127 165.66C65.8003 165.472 66.0546 165.367 66.3198 165.367H121.45C121.715 165.367 121.969 165.472 122.157 165.66C122.344 165.847 122.45 166.102 122.45 166.367V184.367C122.45 184.632 122.344 184.887 122.157 185.074C121.969 185.262 121.715 185.367 121.45 185.367ZM67.3198 183.367H120.45V167.367H67.3198V183.367Z" fill="#0F1322"/>
<path d="M157.75 121.647L114.96 188.367C114.322 189.279 113.356 189.909 112.264 190.125C111.172 190.341 110.038 190.125 109.101 189.525C108.164 188.924 107.496 187.983 107.237 186.901C106.977 185.818 107.147 184.677 107.71 183.717L150.5 116.967L157.75 121.647Z" fill="#0F1322"/>
<path d="M111.33 191.367C110.122 191.363 108.952 190.948 108.012 190.19C107.072 189.432 106.419 188.376 106.16 187.197C106.006 186.517 105.989 185.812 106.111 185.125C106.233 184.439 106.491 183.783 106.87 183.197L149.7 116.457C149.845 116.236 150.071 116.081 150.33 116.027C150.587 115.97 150.857 116.017 151.08 116.157L158.33 120.797C158.441 120.868 158.538 120.961 158.613 121.069C158.689 121.178 158.742 121.3 158.77 121.429C158.798 121.559 158.8 121.692 158.776 121.822C158.752 121.952 158.702 122.076 158.63 122.187L115.8 188.937C115.424 189.522 114.937 190.028 114.365 190.424C113.794 190.821 113.15 191.1 112.47 191.247C112.095 191.326 111.713 191.367 111.33 191.367ZM150.8 118.367L108.55 184.277C108.076 185.014 107.915 185.909 108.102 186.766C108.288 187.622 108.808 188.369 109.545 188.842C110.282 189.315 111.177 189.477 112.033 189.29C112.89 189.103 113.636 188.584 114.11 187.847L156.36 121.937L150.8 118.367Z" fill="#0F1322"/>
<path d="M164.29 136.847C163.182 136.856 162.102 136.505 161.21 135.847L138.54 118.567C137.533 117.79 136.853 116.665 136.633 115.413C136.413 114.16 136.669 112.871 137.35 111.797L149.25 93.237C149.942 92.1676 151.009 91.3954 152.241 91.0717C153.473 90.748 154.782 90.8961 155.91 91.487L181.06 104.877C181.679 105.206 182.223 105.659 182.658 106.208C183.093 106.757 183.411 107.39 183.59 108.067C183.759 108.742 183.79 109.445 183.68 110.133C183.57 110.82 183.322 111.478 182.95 112.067L168.56 134.517C168.179 135.105 167.682 135.609 167.099 135.998C166.516 136.387 165.86 136.652 165.17 136.777C164.879 136.825 164.585 136.848 164.29 136.847ZM153.53 92.847C153.012 92.847 152.503 92.977 152.049 93.2251C151.595 93.4732 151.21 93.8315 150.93 94.267L139.03 112.827C138.616 113.478 138.462 114.26 138.597 115.019C138.732 115.778 139.147 116.459 139.76 116.927L162.42 134.207C162.758 134.464 163.146 134.648 163.559 134.748C163.972 134.848 164.402 134.861 164.82 134.787C165.239 134.717 165.639 134.559 165.992 134.322C166.346 134.086 166.645 133.778 166.87 133.417L181.27 110.967C181.498 110.609 181.65 110.207 181.715 109.787C181.781 109.367 181.759 108.938 181.65 108.527C181.547 108.114 181.358 107.727 181.094 107.392C180.83 107.058 180.498 106.783 180.12 106.587L154.97 93.207C154.525 92.9791 154.03 92.8624 153.53 92.867V92.847Z" fill="#0F1322"/>
<path d="M148.642 96.01L139.651 110.036C138.667 109.405 137.973 108.408 137.723 107.266C137.473 106.123 137.687 104.928 138.318 103.943L142.555 97.3344C143.187 96.3526 144.183 95.6618 145.324 95.4135C146.466 95.1652 147.659 95.3797 148.642 96.01Z" fill="#0F1322"/>
<path d="M139.64 111.037C139.448 111.037 139.261 110.981 139.1 110.877C137.894 110.102 137.045 108.88 136.739 107.479C136.434 106.079 136.696 104.614 137.47 103.407L141.71 96.797C142.485 95.591 143.707 94.742 145.107 94.4364C146.508 94.1308 147.973 94.3936 149.18 95.167C149.402 95.3105 149.559 95.5363 149.615 95.795C149.671 96.0537 149.623 96.3241 149.48 96.547L140.48 110.547C140.339 110.77 140.116 110.928 139.86 110.987L139.64 111.037ZM146.26 96.307C146.014 96.3089 145.77 96.3358 145.53 96.387C144.648 96.5816 143.878 97.1172 143.39 97.877L139.15 104.487C138.768 105.097 138.589 105.813 138.637 106.531C138.686 107.249 138.96 107.934 139.42 108.487L147.17 96.397C146.872 96.3268 146.566 96.2965 146.26 96.307Z" fill="#0F1322"/>
<path d="M185.027 104.941L182.482 103.305C181.28 102.533 179.68 102.88 178.908 104.082L159.462 134.33C158.69 135.532 159.038 137.132 160.239 137.905L162.784 139.541C163.986 140.313 165.586 139.965 166.359 138.764L185.804 108.515C186.576 107.314 186.228 105.714 185.027 104.941Z" fill="#0F1322"/>
<path d="M164.77 141.227C164.082 141.229 163.408 141.031 162.83 140.657L160.29 139.037C159.492 138.517 158.928 137.706 158.72 136.777C158.619 136.315 158.61 135.838 158.694 135.373C158.779 134.908 158.954 134.464 159.21 134.067L178.64 103.757C178.895 103.355 179.227 103.008 179.617 102.735C180.007 102.463 180.447 102.27 180.912 102.169C181.377 102.068 181.858 102.059 182.326 102.145C182.794 102.23 183.241 102.408 183.64 102.667L186.18 104.297C186.58 104.553 186.927 104.886 187.198 105.276C187.47 105.666 187.662 106.106 187.764 106.571C187.865 107.035 187.873 107.515 187.789 107.983C187.704 108.451 187.528 108.897 187.27 109.297L167.8 139.577C167.474 140.084 167.025 140.502 166.496 140.79C165.966 141.078 165.373 141.229 164.77 141.227ZM181.7 104.107C181.432 104.106 181.167 104.172 180.931 104.3C180.696 104.427 180.495 104.612 180.35 104.837L160.92 135.147C160.696 135.504 160.621 135.934 160.711 136.345C160.801 136.756 161.048 137.116 161.4 137.347L163.94 138.977C164.298 139.208 164.733 139.287 165.15 139.197C165.561 139.102 165.92 138.851 166.15 138.497L185.58 108.187C185.692 108.011 185.768 107.814 185.804 107.608C185.84 107.402 185.835 107.191 185.79 106.987C185.746 106.782 185.661 106.588 185.541 106.416C185.421 106.244 185.267 106.099 185.09 105.987L182.52 104.367C182.276 104.205 181.992 104.115 181.7 104.107Z" fill="#0F1322"/>
<path d="M121.88 177.587L114.96 188.367C114.322 189.279 113.356 189.909 112.264 190.125C111.172 190.341 110.038 190.125 109.101 189.524C108.164 188.924 107.496 187.983 107.237 186.901C106.977 185.818 107.147 184.677 107.71 183.717L114.64 172.917L121.88 177.587Z" fill="#0F1322"/>
<path d="M111.33 191.367C110.122 191.363 108.952 190.948 108.012 190.19C107.072 189.432 106.419 188.376 106.16 187.197C106.006 186.517 105.989 185.812 106.111 185.125C106.233 184.439 106.491 183.783 106.87 183.197L113.8 172.367C113.87 172.256 113.961 172.16 114.069 172.084C114.176 172.009 114.297 171.955 114.426 171.926C114.554 171.897 114.686 171.894 114.816 171.917C114.945 171.939 115.069 171.987 115.18 172.057L122.42 176.707C122.531 176.777 122.627 176.869 122.702 176.976C122.778 177.083 122.832 177.205 122.861 177.333C122.889 177.461 122.893 177.594 122.87 177.723C122.848 177.852 122.8 177.976 122.73 178.087L115.8 188.897C115.424 189.482 114.937 189.988 114.365 190.384C113.794 190.781 113.15 191.06 112.47 191.207C112.096 191.3 111.714 191.354 111.33 191.367ZM114.94 174.367L108.55 184.367C108.076 185.104 107.915 185.999 108.102 186.856C108.288 187.712 108.808 188.459 109.545 188.932C110.282 189.405 111.177 189.567 112.033 189.38C112.89 189.193 113.636 188.674 114.11 187.937L120.5 177.937L114.94 174.367Z" fill="#0F1322"/>
<path d="M172.98 114.367C172.804 114.365 172.631 114.317 172.48 114.227L147.05 99.357C146.823 99.2235 146.658 99.0057 146.59 98.7511C146.523 98.4964 146.559 98.2254 146.69 97.997C146.756 97.8833 146.844 97.7837 146.949 97.704C147.054 97.6243 147.173 97.5661 147.3 97.5327C147.428 97.4992 147.56 97.4912 147.691 97.5091C147.821 97.527 147.946 97.5705 148.06 97.637L173.49 112.497C173.718 112.632 173.883 112.853 173.949 113.11C174.014 113.366 173.975 113.639 173.84 113.867C173.753 114.018 173.627 114.144 173.477 114.232C173.326 114.319 173.155 114.366 172.98 114.367Z" fill="#0F1322"/>
<path d="M165.53 125.937C165.323 125.939 165.12 125.876 164.95 125.757L140.83 108.857C140.722 108.781 140.63 108.685 140.559 108.573C140.488 108.462 140.441 108.337 140.418 108.207C140.396 108.077 140.4 107.944 140.429 107.815C140.459 107.686 140.513 107.564 140.59 107.457C140.743 107.241 140.975 107.095 141.235 107.05C141.496 107.005 141.764 107.065 141.98 107.217L166.1 124.117C166.317 124.268 166.465 124.5 166.512 124.76C166.559 125.021 166.501 125.289 166.35 125.507C166.258 125.639 166.135 125.748 165.993 125.823C165.85 125.898 165.691 125.937 165.53 125.937Z" fill="#0F1322"/>
<path d="M157.94 115.367C159.873 115.367 161.44 113.8 161.44 111.867C161.44 109.934 159.873 108.367 157.94 108.367C156.007 108.367 154.44 109.934 154.44 111.867C154.44 113.8 156.007 115.367 157.94 115.367Z" fill="#0F1322"/>
<path d="M157.93 116.367C157.124 116.366 156.333 116.148 155.64 115.736C154.947 115.324 154.378 114.733 153.992 114.025C153.607 113.317 153.419 112.519 153.448 111.713C153.478 110.908 153.723 110.125 154.16 109.447C154.478 108.951 154.891 108.522 155.375 108.185C155.86 107.848 156.405 107.61 156.982 107.484C157.558 107.359 158.153 107.348 158.734 107.452C159.314 107.556 159.868 107.774 160.365 108.092C160.861 108.41 161.29 108.824 161.627 109.308C161.963 109.792 162.201 110.338 162.327 110.914C162.453 111.49 162.464 112.085 162.36 112.666C162.256 113.246 162.038 113.801 161.72 114.297C161.314 114.933 160.753 115.457 160.091 115.819C159.428 116.181 158.685 116.369 157.93 116.367ZM157.93 109.367C157.494 109.363 157.066 109.474 156.686 109.687C156.307 109.899 155.989 110.208 155.765 110.581C155.541 110.954 155.419 111.38 155.41 111.815C155.401 112.25 155.505 112.68 155.713 113.062C155.921 113.444 156.226 113.766 156.596 113.994C156.966 114.223 157.39 114.351 157.825 114.366C158.26 114.38 158.691 114.281 159.076 114.078C159.461 113.875 159.786 113.574 160.02 113.207C160.377 112.65 160.498 111.974 160.358 111.327C160.217 110.68 159.826 110.116 159.27 109.757C158.874 109.508 158.417 109.373 157.95 109.367H157.93Z" fill="#0F1322"/>
<path d="M137.52 161.607C136.876 161.605 136.246 161.414 135.71 161.057L128.15 156.057C127.419 155.576 126.908 154.824 126.73 153.967C126.605 153.334 126.668 152.678 126.911 152.081C127.155 151.483 127.568 150.971 128.1 150.606C128.632 150.241 129.26 150.04 129.905 150.027C130.55 150.015 131.184 150.192 131.73 150.537L139.29 155.537C139.839 155.894 140.269 156.406 140.526 157.009C140.783 157.611 140.855 158.276 140.733 158.919C140.61 159.563 140.3 160.155 139.84 160.621C139.38 161.087 138.791 161.406 138.15 161.537C137.942 161.578 137.731 161.601 137.52 161.607ZM129.25 154.427L136.81 159.427C136.955 159.524 137.119 159.591 137.29 159.624C137.462 159.657 137.639 159.654 137.81 159.617C137.977 159.583 138.135 159.516 138.276 159.42C138.417 159.324 138.537 159.2 138.63 159.057C138.817 158.768 138.882 158.418 138.813 158.081C138.744 157.745 138.545 157.448 138.26 157.257L130.7 152.257C130.554 152.16 130.391 152.093 130.219 152.06C130.047 152.027 129.871 152.03 129.7 152.067C129.533 152.101 129.374 152.168 129.233 152.264C129.092 152.36 128.972 152.484 128.88 152.627C128.782 152.772 128.715 152.936 128.683 153.108C128.65 153.279 128.652 153.456 128.69 153.627C128.724 153.794 128.791 153.953 128.887 154.094C128.983 154.234 129.106 154.355 129.25 154.447V154.427Z" fill="#0F1322"/>
<path d="M134.99 165.447C134.351 165.444 133.726 165.256 133.19 164.907L125.63 159.907C125.263 159.673 124.947 159.37 124.698 159.013C124.449 158.657 124.273 158.254 124.18 157.83C124.087 157.405 124.079 156.966 124.156 156.539C124.234 156.111 124.395 155.702 124.63 155.337C125.113 154.608 125.864 154.097 126.72 153.917C127.145 153.83 127.582 153.828 128.008 153.91C128.433 153.993 128.838 154.158 129.2 154.397L136.76 159.397C137.309 159.754 137.739 160.266 137.996 160.869C138.253 161.471 138.325 162.136 138.203 162.779C138.081 163.423 137.77 164.015 137.31 164.481C136.85 164.948 136.262 165.266 135.62 165.397C135.412 165.435 135.201 165.452 134.99 165.447ZM126.7 158.267L134.26 163.267C134.401 163.362 134.56 163.428 134.727 163.46C134.894 163.493 135.066 163.492 135.233 163.458C135.399 163.423 135.557 163.356 135.698 163.26C135.838 163.163 135.958 163.04 136.05 162.897C136.145 162.755 136.211 162.595 136.244 162.428C136.277 162.26 136.276 162.087 136.242 161.92C136.207 161.752 136.14 161.593 136.043 161.452C135.947 161.311 135.823 161.19 135.68 161.097L128.12 156.097C127.975 155.999 127.812 155.931 127.64 155.898C127.468 155.866 127.291 155.869 127.12 155.907C126.868 155.959 126.637 156.085 126.457 156.268C126.276 156.451 126.154 156.684 126.106 156.937C126.058 157.189 126.086 157.451 126.186 157.687C126.287 157.924 126.455 158.126 126.67 158.267H126.7Z" fill="#0F1322"/>
<path d="M132.47 169.287C131.827 169.288 131.197 169.101 130.66 168.747L123.11 163.747C122.494 163.227 122.091 162.499 121.974 161.702C121.858 160.905 122.038 160.092 122.48 159.418C122.921 158.744 123.594 158.255 124.372 158.043C125.149 157.831 125.977 157.91 126.7 158.267L134.26 163.267C134.99 163.749 135.5 164.5 135.676 165.357C135.852 166.214 135.681 167.106 135.2 167.837C134.965 168.2 134.66 168.513 134.303 168.757C133.946 169 133.544 169.171 133.12 169.257C132.905 169.289 132.687 169.299 132.47 169.287ZM124.2 162.117L131.76 167.117C131.905 167.215 132.069 167.281 132.241 167.312C132.413 167.343 132.59 167.338 132.76 167.297C132.926 167.265 133.085 167.199 133.226 167.105C133.366 167.01 133.487 166.889 133.58 166.747C133.677 166.602 133.744 166.438 133.777 166.266C133.81 166.095 133.807 165.918 133.77 165.747C133.736 165.58 133.669 165.421 133.573 165.28C133.477 165.14 133.353 165.019 133.21 164.927L125.65 159.927C125.504 159.831 125.34 159.766 125.168 159.735C124.996 159.704 124.82 159.708 124.65 159.747C124.317 159.821 124.026 160.023 123.839 160.309C123.652 160.595 123.584 160.942 123.65 161.277C123.721 161.616 123.922 161.914 124.21 162.107L124.2 162.117Z" fill="#0F1322"/>
<path d="M129.95 173.127C129.306 173.129 128.677 172.941 128.14 172.587L120.58 167.587C120.217 167.349 119.905 167.043 119.661 166.684C119.417 166.326 119.246 165.923 119.158 165.499C119.07 165.074 119.066 164.637 119.147 164.211C119.228 163.785 119.392 163.379 119.63 163.017C120.113 162.288 120.863 161.777 121.72 161.597C122.144 161.507 122.582 161.503 123.008 161.585C123.434 161.668 123.839 161.835 124.2 162.077L131.76 167.077C132.334 167.472 132.768 168.04 132.999 168.698C133.23 169.356 133.246 170.07 133.045 170.738C132.843 171.405 132.435 171.992 131.879 172.412C131.322 172.833 130.647 173.065 129.95 173.077V173.127ZM122.39 163.567H122.13C121.963 163.601 121.804 163.668 121.663 163.764C121.522 163.86 121.402 163.984 121.31 164.127C121.212 164.272 121.145 164.436 121.113 164.608C121.08 164.78 121.082 164.956 121.12 165.127C121.154 165.294 121.221 165.453 121.317 165.594C121.413 165.734 121.536 165.855 121.68 165.947L129.24 170.947C129.454 171.098 129.708 171.181 129.97 171.184C130.232 171.186 130.489 171.109 130.706 170.963C130.923 170.816 131.09 170.607 131.186 170.363C131.281 170.119 131.3 169.852 131.24 169.597C131.206 169.43 131.139 169.271 131.042 169.131C130.946 168.99 130.823 168.87 130.68 168.777L123.13 163.777C122.909 163.636 122.652 163.563 122.39 163.567Z" fill="#0F1322"/>
<path d="M121.24 160.457C120.606 160.459 119.986 160.271 119.46 159.917C119.1 159.684 118.79 159.382 118.548 159.029C118.306 158.676 118.136 158.278 118.049 157.858C117.961 157.439 117.958 157.006 118.039 156.585C118.12 156.165 118.283 155.764 118.52 155.407L122.44 149.407C122.664 149.027 122.964 148.696 123.32 148.435C123.676 148.174 124.081 147.988 124.511 147.889C124.941 147.789 125.387 147.778 125.822 147.856C126.256 147.934 126.67 148.099 127.039 148.341C127.408 148.584 127.723 148.899 127.967 149.268C128.21 149.636 128.376 150.05 128.455 150.484C128.533 150.918 128.523 151.364 128.424 151.795C128.325 152.225 128.14 152.63 127.88 152.987L123.97 158.987C123.672 159.439 123.267 159.81 122.79 160.066C122.314 160.323 121.781 160.457 121.24 160.457ZM125.16 149.977C124.951 149.977 124.746 150.029 124.562 150.128C124.379 150.228 124.223 150.372 124.11 150.547L120.19 156.547C120.093 156.692 120.026 156.856 119.996 157.028C119.965 157.2 119.969 157.377 120.01 157.547C120.043 157.708 120.107 157.861 120.2 157.997C120.293 158.132 120.412 158.248 120.55 158.337C120.694 158.437 120.858 158.504 121.03 158.535C121.203 158.566 121.38 158.56 121.55 158.517C121.877 158.448 122.164 158.255 122.35 157.977L126.26 151.977C126.442 151.698 126.506 151.359 126.439 151.033C126.371 150.707 126.178 150.421 125.9 150.237C125.688 150.073 125.428 149.981 125.16 149.977Z" fill="#0F1322"/>
<path d="M61.0297 154.727C61.1004 154.85 61.1807 154.967 61.2697 155.077C61.4406 155.278 61.6495 155.443 61.8845 155.563C62.1195 155.683 62.3759 155.756 62.6389 155.776C62.902 155.797 63.1665 155.765 63.4172 155.682C63.6679 155.6 63.8999 155.469 64.0997 155.297L73.3297 147.417C73.6795 147.119 73.9162 146.71 73.9999 146.259C74.0837 145.807 74.0095 145.34 73.7897 144.937L64.5597 127.877C64.435 127.645 64.2655 127.439 64.061 127.272C63.8565 127.106 63.6211 126.981 63.3683 126.906C63.1155 126.831 62.8503 126.806 62.5879 126.834C62.3256 126.861 62.0713 126.941 61.8397 127.067L53.1597 131.767C52.6916 132.02 52.3433 132.449 52.1914 132.959C52.0395 133.469 52.0964 134.019 52.3497 134.487C52.603 134.955 53.0319 135.303 53.542 135.455C54.0521 135.607 54.6016 135.55 55.0697 135.297L61.9897 131.547L69.4897 145.417L61.4897 152.247C61.1399 152.545 60.9033 152.954 60.8195 153.405C60.7357 153.857 60.81 154.324 61.0297 154.727Z" fill="#0F1322"/>
<path d="M62.7999 156.777C62.3687 156.785 61.941 156.699 61.5458 156.527C61.1506 156.354 60.7973 156.098 60.5099 155.777C60.3719 155.613 60.2512 155.436 60.1499 155.247C59.8228 154.643 59.7129 153.945 59.8385 153.27C59.9641 152.595 60.3176 151.983 60.8399 151.537L68.2199 145.237L61.5799 132.957L55.5799 136.227C55.2325 136.415 54.8516 136.532 54.4588 136.573C54.0661 136.613 53.6691 136.576 53.2907 136.463C52.9123 136.351 52.5599 136.164 52.2534 135.915C51.947 135.666 51.6927 135.359 51.5049 135.012C51.3171 134.665 51.1996 134.284 51.159 133.891C51.1184 133.498 51.1556 133.101 51.2684 132.723C51.3812 132.344 51.5675 131.992 51.8165 131.686C52.0656 131.379 52.3725 131.125 52.7199 130.937L61.4099 126.237C61.7571 126.049 62.1379 125.932 62.5306 125.892C62.9232 125.851 63.32 125.889 63.6981 126.002C64.0762 126.116 64.4282 126.302 64.7339 126.552C65.0397 126.802 65.2932 127.109 65.4799 127.457L74.6999 144.467C75.0269 145.071 75.1368 145.769 75.0112 146.444C74.8857 147.119 74.5322 147.731 74.0099 148.177L64.7799 156.057C64.2286 156.528 63.5252 156.784 62.7999 156.777ZM61.9899 130.547C62.0827 130.533 62.1771 130.533 62.2699 130.547C62.3966 130.583 62.5148 130.645 62.6178 130.727C62.7208 130.809 62.8065 130.911 62.8699 131.027L70.3699 144.897C70.4772 145.098 70.5129 145.329 70.471 145.552C70.4292 145.776 70.3124 145.979 70.1399 146.127L62.1399 152.957C61.965 153.106 61.8466 153.31 61.8048 153.536C61.7629 153.762 61.8 153.995 61.9099 154.197C61.9452 154.26 61.9853 154.32 62.0299 154.377C62.1153 154.478 62.2201 154.562 62.338 154.622C62.456 154.682 62.5847 154.719 62.7169 154.729C62.849 154.739 62.9818 154.723 63.1077 154.682C63.2335 154.64 63.3498 154.574 63.4499 154.487L72.6799 146.607C72.8548 146.458 72.9731 146.254 73.015 146.028C73.0569 145.802 73.0198 145.569 72.9099 145.367L63.6999 128.367C63.6386 128.251 63.555 128.147 63.4537 128.063C63.3525 127.979 63.2356 127.916 63.1099 127.877C62.9827 127.838 62.849 127.826 62.7168 127.839C62.5846 127.853 62.4565 127.893 62.3399 127.957L53.6599 132.657C53.5432 132.719 53.44 132.803 53.3562 132.905C53.2724 133.007 53.2096 133.125 53.1714 133.252C53.1333 133.378 53.1206 133.511 53.1341 133.642C53.1476 133.773 53.1869 133.901 53.2499 134.017C53.3133 134.133 53.399 134.235 53.5019 134.317C53.6049 134.399 53.7231 134.46 53.8499 134.497C54.1025 134.575 54.3758 134.55 54.6099 134.427L61.5299 130.677C61.6723 130.602 61.8291 130.557 61.9899 130.547Z" fill="#0F1322"/>
<path d="M66.19 156.687L80.83 183.747L65.3 192.147L61.31 171.027L62.85 169.067L59.23 158.667L66.19 156.687Z" fill="#0F1322"/>
<path d="M65.2998 193.147C65.1505 193.149 65.0028 193.115 64.8698 193.047C64.7273 192.981 64.6023 192.882 64.505 192.759C64.4077 192.636 64.3408 192.491 64.3098 192.337L60.3098 171.207C60.2844 171.067 60.289 170.923 60.3235 170.785C60.358 170.647 60.4215 170.518 60.5098 170.407L61.7098 168.877L58.2698 158.987C58.2251 158.858 58.2071 158.722 58.217 158.586C58.2268 158.451 58.2642 158.318 58.3269 158.198C58.3896 158.077 58.4763 157.97 58.5817 157.884C58.6871 157.798 58.809 157.734 58.9398 157.697L65.9398 155.697C66.1587 155.636 66.3918 155.651 66.6008 155.74C66.8099 155.829 66.9823 155.987 67.0898 156.187L81.6998 183.277C81.8227 183.511 81.8479 183.784 81.7698 184.037C81.7333 184.164 81.6721 184.282 81.5897 184.385C81.5074 184.488 81.4054 184.574 81.2898 184.637L65.7598 193.027C65.6184 193.103 65.4606 193.145 65.2998 193.147ZM62.3798 171.287L66.0298 190.617L79.4698 183.367L65.6998 157.867L60.5298 159.367L63.7998 168.767C63.8553 168.926 63.8697 169.096 63.8418 169.263C63.8138 169.429 63.7443 169.585 63.6398 169.717L62.3798 171.287Z" fill="#0F1322"/>
<path d="M59.6398 158.827L47.6497 171.117L41.4897 166.257L51.9998 155.017L59.6398 158.827Z" fill="#0F1322"/>
<path d="M47.6998 172.117C47.4754 172.119 47.2571 172.045 47.0798 171.907L40.9298 167.047C40.8202 166.962 40.7295 166.855 40.6635 166.733C40.5975 166.611 40.5576 166.477 40.5463 166.338C40.535 166.2 40.5526 166.061 40.598 165.93C40.6433 165.799 40.7155 165.679 40.8098 165.577L51.2698 154.367C51.4174 154.209 51.6121 154.104 51.8248 154.066C52.0376 154.028 52.2568 154.06 52.4498 154.157L60.0898 157.967C60.2283 158.041 60.3485 158.145 60.4419 158.271C60.5353 158.398 60.5995 158.543 60.6298 158.697C60.6569 158.853 60.6466 159.013 60.5996 159.165C60.5527 159.316 60.4705 159.454 60.3598 159.567L48.3598 171.857C48.179 172.021 47.9442 172.114 47.6998 172.117ZM43.0198 166.117L47.6198 169.747L58.0198 159.077L52.2698 156.207L43.0198 166.117Z" fill="#0F1322"/>
<path d="M53.3471 156.287L29.1997 111.628L42.2888 104.55L66.4363 149.21C67.3748 150.946 67.5853 152.983 67.0216 154.874C66.4579 156.765 65.1661 158.355 63.4303 159.293C61.6946 160.232 59.6571 160.442 57.7662 159.879C55.8752 159.315 54.2856 158.023 53.3471 156.287Z" fill="#0F1322"/>
<path d="M59.8999 161.187C58.3764 161.184 56.8818 160.771 55.5727 159.992C54.2637 159.212 53.1885 158.095 52.4599 156.757L28.3299 112.117C28.2037 111.884 28.1749 111.611 28.2499 111.357C28.326 111.105 28.4985 110.893 28.7299 110.767L41.8199 103.687C42.0522 103.562 42.3244 103.534 42.5773 103.609C42.8301 103.684 43.0431 103.856 43.1699 104.087L67.3099 148.727C68.3696 150.697 68.6058 153.007 67.9667 155.151C67.3277 157.295 65.8654 159.099 63.8999 160.167C62.673 160.836 61.2976 161.187 59.8999 161.187ZM30.5599 112.047L54.2199 155.807C54.6224 156.551 55.1675 157.208 55.8241 157.742C56.4806 158.275 57.2358 158.674 58.0465 158.915C58.8571 159.157 59.7074 159.236 60.5487 159.149C61.3901 159.062 62.206 158.81 62.9499 158.407C63.6939 158.005 64.3512 157.459 64.8845 156.803C65.4178 156.146 65.8166 155.391 66.058 154.581C66.2994 153.77 66.3788 152.92 66.2916 152.078C66.2045 151.237 65.9524 150.421 65.5499 149.677L41.8899 105.927L30.5599 112.047Z" fill="#0F1322"/>
<path d="M24.3265 93.5159L33.0161 109.587L38.9801 106.362L30.2905 90.2911L24.3265 93.5159Z" fill="#0F1322"/>
<path d="M33.0196 110.577C32.8398 110.578 32.6631 110.529 32.5082 110.438C32.3533 110.346 32.226 110.215 32.1396 110.057L23.4496 93.9871C23.3248 93.7547 23.2969 93.4826 23.3718 93.2297C23.4467 92.9769 23.6184 92.7639 23.8496 92.6371L29.8496 89.407C30.0837 89.2842 30.357 89.259 30.6096 89.3371C30.736 89.3715 30.8538 89.4321 30.9554 89.5147C31.057 89.5974 31.1402 89.7004 31.1996 89.8171L39.8896 105.887C40.0159 106.12 40.0446 106.393 39.9696 106.647C39.9308 106.773 39.8675 106.89 39.7835 106.991C39.6994 107.092 39.5961 107.176 39.4796 107.237L33.4796 110.457C33.34 110.538 33.181 110.58 33.0196 110.577ZM25.6996 93.9171L33.4396 108.227L37.6396 105.957L29.9096 91.6471L25.6996 93.9171Z" fill="#0F1322"/>
<path d="M24.3298 94.517C24.166 94.5173 24.0047 94.4773 23.86 94.4006C23.7152 94.3239 23.5916 94.2128 23.4998 94.0771L13.1698 78.897C13.0918 78.7809 13.0391 78.6497 13.015 78.5119C12.9909 78.3741 12.9959 78.2328 13.0298 78.097C13.0638 77.9613 13.1258 77.8342 13.2119 77.724C13.2981 77.6138 13.4064 77.5228 13.5298 77.457L22.7699 72.457C22.8932 72.3909 23.0289 72.3514 23.1685 72.3411C23.308 72.3308 23.4481 72.3498 23.5798 72.3971C23.7119 72.4438 23.8327 72.5179 23.9344 72.6144C24.036 72.7108 24.1162 72.8276 24.1698 72.957L31.2198 89.907C31.3137 90.1356 31.3197 90.3907 31.2366 90.6234C31.1535 90.8561 30.9872 91.0497 30.7698 91.1671L24.7699 94.3971C24.6344 94.4704 24.4838 94.5115 24.3298 94.517ZM15.4498 78.6871L24.6498 92.207L29.0198 89.8371L22.7498 74.747L15.4498 78.6871Z" fill="#0F1322"/>
<path d="M38.9798 107.367C38.7999 107.368 38.6232 107.319 38.4683 107.228C38.3135 107.136 38.1861 107.005 38.0998 106.847L33.7598 98.847C33.6899 98.716 33.6501 98.5711 33.6432 98.4227C33.6363 98.2744 33.6625 98.1264 33.72 97.9895C33.7774 97.8525 33.8647 97.7301 33.9753 97.6311C34.086 97.5321 34.2173 97.459 34.3598 97.4171L49.1198 93.237C49.3375 93.1751 49.5698 93.1888 49.7787 93.276C49.9876 93.3632 50.1607 93.5187 50.2698 93.7171L53.0298 98.817C53.1538 99.0506 53.1803 99.3237 53.1035 99.5767C53.0266 99.8297 52.8527 100.042 52.6198 100.167L39.4498 107.287C39.3019 107.351 39.1406 107.379 38.9798 107.367ZM36.1098 98.957L39.3798 105.017L50.7898 98.847L48.8898 95.337L36.1098 98.957Z" fill="#0F1322"/>
<path d="M49.1096 148.447C49.1096 148.447 41.2896 154.277 34.9296 152.907L31.0996 145.827C31.0996 145.827 41.3696 144.437 45.0996 141.117L49.1096 148.447Z" fill="#0F1322"/>
<path d="M36.9797 154.117C36.2197 154.122 35.4616 154.042 34.7197 153.877C34.5785 153.847 34.4456 153.787 34.3299 153.7C34.2143 153.614 34.1187 153.504 34.0497 153.377L30.2197 146.297C30.1443 146.154 30.105 145.994 30.105 145.832C30.105 145.67 30.1443 145.51 30.2197 145.367C30.292 145.223 30.398 145.099 30.5285 145.005C30.6591 144.911 30.8104 144.85 30.9697 144.827C31.0697 144.827 40.9697 143.447 44.4897 140.367C44.6033 140.268 44.7378 140.196 44.8833 140.156C45.0288 140.116 45.1814 140.109 45.3297 140.137C45.4771 140.164 45.6166 140.224 45.7377 140.312C45.8589 140.401 45.9587 140.515 46.0297 140.647L50.0297 147.977C50.1421 148.187 50.1757 148.431 50.1243 148.664C50.073 148.897 49.9401 149.103 49.7497 149.247C49.4097 149.467 43.1097 154.117 36.9797 154.117ZM35.5797 152.007C40.2897 152.757 45.8597 149.427 47.7997 148.137L44.7997 142.617C41.3697 144.887 35.3697 146.117 32.6297 146.617L35.5797 152.007Z" fill="#0F1322"/>
<path d="M34.31 122.087C34.0878 122.086 33.8724 122.011 33.6976 121.874C33.5228 121.737 33.3987 121.545 33.3448 121.33C33.2909 121.114 33.3103 120.887 33.4 120.683C33.4897 120.48 33.6445 120.313 33.84 120.207L46.92 113.127C47.0361 113.064 47.1635 113.025 47.2949 113.011C47.4263 112.998 47.559 113.01 47.6854 113.049C47.8119 113.087 47.9295 113.15 48.0316 113.233C48.1336 113.317 48.2181 113.42 48.28 113.537C48.404 113.771 48.4305 114.044 48.3537 114.297C48.2768 114.55 48.1029 114.762 47.87 114.887L34.79 121.967C34.6426 122.047 34.4775 122.088 34.31 122.087Z" fill="#0F1322"/>
<path d="M37.0001 127.057C36.8191 127.057 36.6418 127.007 36.4868 126.914C36.3318 126.82 36.2051 126.687 36.12 126.527C35.9953 126.295 35.9673 126.023 36.0422 125.77C36.1171 125.517 36.2889 125.304 36.5201 125.177L49.6101 118.097C49.8434 117.964 50.1199 117.93 50.3787 118.001C50.6375 118.072 50.8574 118.244 50.99 118.477C51.1226 118.71 51.1571 118.987 51.0859 119.246C51.0146 119.505 50.8434 119.724 50.6101 119.857L37.5201 126.937C37.3608 127.023 37.1811 127.065 37.0001 127.057Z" fill="#0F1322"/>
<path d="M39.7 132.017C39.5184 132.019 39.3396 131.972 39.1828 131.881C39.026 131.789 38.8971 131.656 38.81 131.497C38.747 131.381 38.7076 131.254 38.6942 131.122C38.6807 130.991 38.6934 130.858 38.7315 130.732C38.7696 130.605 38.8324 130.487 38.9163 130.385C39.0001 130.283 39.1033 130.199 39.22 130.137L52.3 123.067C52.4155 123.001 52.5429 122.959 52.6748 122.943C52.8067 122.926 52.9405 122.936 53.0687 122.971C53.1968 123.006 53.3167 123.067 53.4216 123.148C53.5265 123.23 53.6143 123.331 53.68 123.447C53.7456 123.563 53.7879 123.69 53.8043 123.822C53.8207 123.954 53.811 124.088 53.7758 124.216C53.7405 124.344 53.6803 124.464 53.5987 124.569C53.517 124.674 53.4155 124.761 53.3 124.827L40.21 131.897C40.0558 131.987 39.8781 132.029 39.7 132.017Z" fill="#0F1322"/>
<path d="M54.2996 164.507C53.4871 164.512 52.7021 164.212 52.0996 163.667L45.3596 157.667C45.0365 157.378 44.7735 157.028 44.5856 156.638C44.3977 156.247 44.2885 155.824 44.2644 155.391C44.2403 154.958 44.3016 154.525 44.4449 154.116C44.5882 153.707 44.8107 153.33 45.0996 153.007C45.3878 152.683 45.7372 152.419 46.1278 152.23C46.5184 152.041 46.9424 151.932 47.3755 151.908C47.8086 151.883 48.2422 151.945 48.6514 152.089C49.0606 152.233 49.4372 152.457 49.7596 152.747L56.4996 158.747C56.9838 159.181 57.3288 159.749 57.4913 160.379C57.6537 161.009 57.6264 161.673 57.4127 162.287C57.199 162.902 56.8084 163.439 56.2901 163.833C55.7718 164.226 55.1489 164.457 54.4996 164.497L54.2996 164.507ZM46.6996 156.157L53.4396 162.157C53.566 162.273 53.7144 162.361 53.8759 162.418C54.0374 162.475 54.2088 162.498 54.3796 162.487C54.6353 162.472 54.8809 162.383 55.0857 162.229C55.2905 162.075 55.4454 161.864 55.5309 161.623C55.6163 161.382 55.6286 161.12 55.5661 160.872C55.5036 160.624 55.3691 160.399 55.1796 160.227L48.4296 154.227C48.171 154.007 47.8365 153.896 47.4977 153.92C47.1588 153.943 46.8425 154.098 46.6164 154.351C46.3904 154.605 46.2725 154.937 46.2881 155.276C46.3036 155.615 46.4513 155.935 46.6996 156.167V156.157Z" fill="#0F1322"/>
<path d="M51.23 167.937C50.4213 167.937 49.641 167.638 49.04 167.097L42.29 161.097C41.9445 160.815 41.6597 160.466 41.4529 160.07C41.2462 159.675 41.1217 159.242 41.0871 158.797C41.0525 158.352 41.1084 157.905 41.2515 157.482C41.3946 157.06 41.6218 156.671 41.9196 156.339C42.2173 156.006 42.5793 155.738 42.9837 155.549C43.3881 155.361 43.8265 155.257 44.2724 155.243C44.7183 155.228 45.1624 155.305 45.578 155.467C45.9935 155.629 46.3718 155.874 46.69 156.187L53.43 162.187C53.9283 162.633 54.2795 163.219 54.4372 163.868C54.5949 164.518 54.5517 165.2 54.3132 165.824C54.0747 166.449 53.6522 166.986 53.1017 167.365C52.5511 167.744 51.8984 167.947 51.23 167.947V167.937ZM43.63 159.577L50.37 165.577C50.6286 165.797 50.9631 165.908 51.302 165.884C51.6408 165.861 51.9571 165.706 52.1832 165.453C52.4093 165.199 52.5271 164.867 52.5116 164.528C52.496 164.189 52.3483 163.869 52.1 163.637L45.36 157.637C45.2354 157.519 45.0872 157.429 44.9253 157.372C44.7633 157.315 44.5911 157.293 44.42 157.307C44.1628 157.319 43.915 157.407 43.7084 157.561C43.5019 157.715 43.3461 157.927 43.2612 158.17C43.1762 158.413 43.1659 158.676 43.2317 158.925C43.2974 159.174 43.4361 159.398 43.63 159.567V159.577Z" fill="#0F1322"/>
<path d="M48.17 171.367C47.3582 171.368 46.5746 171.069 45.97 170.527L39.23 164.527C38.7458 164.093 38.4008 163.525 38.2383 162.895C38.0759 162.265 38.1032 161.601 38.3169 160.987C38.5307 160.372 38.9212 159.835 39.4395 159.441C39.9578 159.048 40.5807 158.817 41.23 158.777C41.6637 158.748 42.0988 158.806 42.5094 158.949C42.92 159.092 43.2977 159.315 43.62 159.607L50.36 165.607C50.8583 166.053 51.2095 166.639 51.3672 167.288C51.5249 167.938 51.4817 168.62 51.2432 169.244C51.0047 169.869 50.5822 170.406 50.0317 170.785C49.4811 171.164 48.8284 171.367 48.16 171.367H48.17ZM40.56 163.007L47.3 169.007C47.5573 169.238 47.8957 169.357 48.2407 169.338C48.5858 169.319 48.9093 169.164 49.14 168.907C49.3708 168.65 49.4898 168.311 49.4711 167.966C49.4523 167.621 49.2973 167.298 49.04 167.067L42.29 161.067C42.1657 160.952 42.0188 160.864 41.8587 160.809C41.6986 160.754 41.5288 160.733 41.36 160.747C41.1885 160.753 41.0201 160.794 40.8653 160.868C40.7104 160.942 40.5725 161.047 40.46 161.177C40.2316 161.433 40.1139 161.77 40.1327 162.113C40.1514 162.455 40.305 162.777 40.56 163.007Z" fill="#0F1322"/>
<path d="M45.0997 174.797C44.291 174.797 43.5107 174.498 42.9097 173.957L36.1597 167.957C35.6708 167.525 35.3214 166.957 35.1561 166.325C34.9908 165.694 35.017 165.028 35.2314 164.411C35.4458 163.795 35.8387 163.256 36.3602 162.864C36.8816 162.471 37.508 162.243 38.1597 162.207C38.5919 162.178 39.0256 162.236 39.4346 162.379C39.8436 162.521 40.2195 162.745 40.5397 163.037L47.2797 169.037C47.778 169.483 48.1292 170.069 48.2869 170.718C48.4446 171.368 48.4014 172.05 48.1629 172.674C47.9244 173.299 47.5019 173.836 46.9514 174.215C46.4008 174.594 45.7481 174.797 45.0797 174.797H45.0997ZM38.3697 164.167H38.2897C37.9436 164.19 37.6203 164.348 37.3897 164.607C37.2768 164.733 37.1902 164.88 37.1352 165.039C37.0803 165.199 37.058 165.368 37.0697 165.537C37.0781 165.708 37.1204 165.876 37.1942 166.03C37.268 166.185 37.3719 166.323 37.4997 166.437L44.2397 172.437C44.4974 172.664 44.8345 172.78 45.1774 172.759C45.5203 172.739 45.8411 172.583 46.0697 172.327C46.184 172.202 46.2721 172.055 46.3288 171.895C46.3854 171.736 46.4096 171.566 46.3997 171.397C46.3914 171.226 46.3491 171.058 46.2752 170.904C46.2014 170.749 46.0976 170.611 45.9697 170.497L39.2297 164.497C38.992 164.287 38.6867 164.17 38.3697 164.167Z" fill="#0F1322"/>
<path d="M51.04 173.597C50.3854 173.596 49.7464 173.397 49.2062 173.028C48.666 172.658 48.2496 172.134 48.0111 171.525C47.7727 170.915 47.7232 170.248 47.8693 169.61C48.0154 168.972 48.3501 168.392 48.83 167.947L54.05 163.097C54.3601 162.789 54.7289 162.547 55.1345 162.384C55.5401 162.222 55.9742 162.143 56.4111 162.151C56.8479 162.16 57.2786 162.256 57.6774 162.435C58.0763 162.613 58.4352 162.87 58.7329 163.189C59.0306 163.509 59.261 163.886 59.4103 164.296C59.5597 164.707 59.625 165.143 59.6023 165.58C59.5797 166.016 59.4695 166.443 59.2784 166.836C59.0874 167.229 58.8192 167.58 58.49 167.867L53.26 172.727C52.6564 173.287 51.8633 173.598 51.04 173.597ZM56.27 164.227C55.9531 164.225 55.6479 164.347 55.42 164.567L50.19 169.417C50.0535 169.525 49.9408 169.66 49.859 169.813C49.7773 169.967 49.7282 170.136 49.7148 170.309C49.7015 170.483 49.7242 170.657 49.7816 170.821C49.839 170.985 49.9297 171.136 50.0482 171.263C50.1666 171.391 50.3101 171.492 50.4697 171.562C50.6293 171.631 50.8015 171.666 50.9755 171.666C51.1495 171.665 51.3214 171.628 51.4805 171.558C51.6397 171.488 51.7825 171.385 51.9 171.257L57.13 166.407C57.3707 166.175 57.5137 165.861 57.53 165.527C57.5354 165.358 57.5068 165.19 57.4458 165.033C57.3849 164.875 57.293 164.731 57.1754 164.61C57.0579 164.489 56.9172 164.392 56.7616 164.327C56.6061 164.261 56.4389 164.227 56.27 164.227Z" fill="#0F1322"/>
<path d="M112.61 154.797H102.11C100.989 154.797 100.08 155.706 100.08 156.827V170.907C100.08 172.028 100.989 172.937 102.11 172.937H112.61C113.731 172.937 114.64 172.028 114.64 170.907V156.827C114.64 155.706 113.731 154.797 112.61 154.797Z" fill="white"/>
<path d="M112.61 173.947H102.1C101.304 173.947 100.541 173.631 99.9783 173.068C99.4157 172.506 99.0996 171.743 99.0996 170.947V156.827C99.0996 156.031 99.4157 155.268 99.9783 154.706C100.541 154.143 101.304 153.827 102.1 153.827H112.61C113.405 153.827 114.168 154.143 114.731 154.706C115.294 155.268 115.61 156.031 115.61 156.827V170.917C115.614 171.314 115.539 171.707 115.39 172.074C115.241 172.442 115.021 172.776 114.742 173.058C114.463 173.34 114.131 173.563 113.765 173.716C113.399 173.868 113.006 173.947 112.61 173.947ZM102.1 155.797C101.834 155.797 101.58 155.902 101.393 156.09C101.205 156.277 101.1 156.532 101.1 156.797V170.887C101.1 171.152 101.205 171.407 101.393 171.594C101.58 171.782 101.834 171.887 102.1 171.887H112.61C112.875 171.887 113.129 171.782 113.317 171.594C113.504 171.407 113.61 171.152 113.61 170.887V156.827C113.61 156.562 113.504 156.307 113.317 156.12C113.129 155.932 112.875 155.827 112.61 155.827L102.1 155.797Z" fill="#0F1322"/>
<path d="M113.7 162.717H100.52C100.255 162.717 100 162.612 99.8129 162.424C99.6254 162.237 99.52 161.982 99.52 161.717C99.52 161.452 99.6254 161.197 99.8129 161.01C100 160.822 100.255 160.717 100.52 160.717H113.7C113.965 160.717 114.22 160.822 114.407 161.01C114.595 161.197 114.7 161.452 114.7 161.717C114.7 161.982 114.595 162.237 114.407 162.424C114.22 162.612 113.965 162.717 113.7 162.717Z" fill="#0F1322"/>
<path d="M68.54 47.127C68.3414 47.1282 68.1469 47.0702 67.9814 46.9604C67.8159 46.8505 67.6868 46.6939 67.6106 46.5105C67.5345 46.3271 67.5146 46.1251 67.5537 45.9303C67.5928 45.7356 67.689 45.5569 67.83 45.417L79.45 33.827C79.543 33.7333 79.6536 33.6589 79.7754 33.6081C79.8973 33.5574 80.028 33.5312 80.16 33.5312C80.292 33.5312 80.4227 33.5574 80.5446 33.6081C80.6664 33.6589 80.777 33.7333 80.87 33.827C81.0562 34.0144 81.1608 34.2678 81.1608 34.532C81.1608 34.7962 81.0562 35.0497 80.87 35.237L69.24 46.837C69.0537 47.0218 68.8023 47.1259 68.54 47.127Z" fill="#0F1322"/>
<path d="M83.2997 43.877C83.098 43.8765 82.9013 43.815 82.7352 43.7007C82.5691 43.5864 82.4415 43.4245 82.369 43.2363C82.2966 43.0482 82.2827 42.8425 82.3292 42.6464C82.3757 42.4502 82.4804 42.2726 82.6296 42.137L90.3896 35.207C90.5886 35.0306 90.8494 34.9405 91.1147 34.9565C91.3801 34.9724 91.6283 35.0931 91.8046 35.292C91.981 35.4909 92.0711 35.7517 92.0552 36.0171C92.0393 36.2825 91.9186 36.5306 91.7196 36.707L83.9596 43.627C83.7773 43.7878 83.5427 43.8767 83.2997 43.877Z" fill="#0F1322"/>
<path d="M103.7 47.127C103.498 47.1265 103.302 47.065 103.136 46.9507C102.97 46.8364 102.842 46.6745 102.769 46.4864C102.697 46.2982 102.683 46.0925 102.73 45.8964C102.776 45.7002 102.881 45.5226 103.03 45.387L115.03 34.517C115.226 34.3398 115.485 34.2476 115.75 34.2607C116.014 34.2738 116.262 34.3912 116.44 34.587C116.529 34.6845 116.598 34.7988 116.643 34.9232C116.688 35.0475 116.708 35.1796 116.701 35.3116C116.695 35.4437 116.662 35.5731 116.605 35.6925C116.548 35.8119 116.468 35.9188 116.37 36.007L104.37 46.867C104.187 47.0337 103.948 47.1264 103.7 47.127Z" fill="#0F1322"/>
<path d="M117.02 43.877C116.818 43.8765 116.621 43.815 116.455 43.7007C116.289 43.5864 116.162 43.4245 116.089 43.2363C116.017 43.0482 116.003 42.8425 116.049 42.6464C116.096 42.4502 116.201 42.2726 116.35 42.137L121.43 37.617C121.628 37.441 121.887 37.3506 122.151 37.3656C122.416 37.3806 122.663 37.4998 122.84 37.697C122.929 37.7952 122.997 37.9099 123.041 38.0347C123.085 38.1594 123.104 38.2916 123.096 38.4237C123.089 38.5558 123.055 38.6851 122.998 38.8041C122.94 38.9231 122.859 39.0294 122.76 39.117L117.7 43.627C117.512 43.7924 117.27 43.8816 117.02 43.877Z" fill="#0F1322"/>
</svg>
